<?xml version="1.0" standalone="no"?>
<!DOCTYPE svg PUBLIC "-//W3C//DTD SVG 20010904//EN"
 "http://www.w3.org/TR/2001/REC-SVG-20010904/DTD/svg10.dtd">
<svg version="1.0" xmlns="http://www.w3.org/2000/svg"
 width="1502.000000pt" height="1322.000000pt" viewBox="0 0 1502.000000 1322.000000"
 preserveAspectRatio="xMidYMid meet">
<metadata>
Created by potrace 1.16, written by Peter Selinger 2001-2019
</metadata>
<g transform="translate(0.000000,1322.000000) scale(0.100000,-0.100000)"
fill="#000000" stroke="none">
<path d="M10565 10319 c-814 -26 -1518 -48 -1565 -48 l-85 -1 -169 -1253
c-414 -3064 -644 -4772 -642 -4773 0 -1 87 -7 191 -14 105 -7 192 -14 195 -17
3 -3 5 -196 5 -429 0 -233 2 -424 5 -424 3 -1 58 -2 123 -3 l117 -2 0 423 c0
331 3 422 13 422 54 0 2630 -171 2636 -175 5 -2 11 -53 15 -113 4 -60 29 -365
56 -678 27 -313 48 -569 47 -570 -1 -1 -67 -23 -147 -49 -245 -81 -308 -117
-277 -159 11 -15 47 -17 361 -17 264 0 352 4 363 13 13 10 15 31 11 110 -3 54
-1 99 4 100 5 2 18 147 28 323 24 388 26 411 28 268 1 -62 5 -113 10 -113 4 0
57 -1 117 -2 l110 -1 5 274 c3 151 7 271 8 268 1 -3 71 -199 156 -435 85 -236
159 -441 164 -455 9 -23 4 -34 -54 -107 -35 -45 -88 -98 -119 -119 -30 -21
-58 -49 -61 -61 -11 -40 13 -52 104 -53 78 -1 85 1 130 34 322 233 411 299
416 313 9 22 -18 68 -80 135 -30 32 -54 61 -54 64 0 2 -38 154 -85 337 -204
804 -275 1219 -274 1608 0 161 0 157 68 480 26 118 31 170 32 280 1 102 5 142
17 165 45 85 12 1281 -44 1604 -19 111 -76 232 -152 326 -43 53 -82 130 -82
162 0 6 30 66 67 134 l67 122 0 101 c1 85 -3 108 -22 147 -12 25 -32 51 -45
58 -34 18 -117 144 -117 178 0 15 45 394 100 842 55 448 100 818 100 823 0 13
-248 8 -1795 -43z m1772 -1 c-4 -18 -49 -388 -102 -823 -53 -434 -98 -791 -99
-793 -2 -1 -16 3 -30 10 -21 9 -40 9 -85 0 -51 -11 -64 -10 -117 9 -32 11 -71
18 -86 16 l-28 -4 0 91 c-1 436 -258 826 -635 964 -142 52 -295 65 -441 37
-43 -8 -80 -12 -83 -9 -3 3 -11 33 -16 67 l-10 62 -45 -3 c-24 -2 -80 -17
-124 -33 -305 -111 -530 -397 -582 -739 -15 -101 -18 -210 -7 -273 l6 -39 63
4 63 3 6 -70 c8 -90 39 -220 76 -316 109 -285 358 -513 644 -590 122 -33 299
-30 420 5 50 15 122 43 161 62 94 46 220 149 285 232 29 37 56 71 60 75 3 5 7
-51 7 -125 1 -73 6 -148 11 -167 29 -97 111 -158 196 -146 45 7 45 7 60 -29 8
-19 15 -49 15 -66 0 -25 -4 -30 -24 -30 -20 0 -35 -18 -86 -102 -57 -95 -61
-100 -55 -62 6 37 4 42 -17 47 -13 4 -694 6 -1515 6 l-1491 0 -11 -67 c-71
-431 -77 -481 -64 -486 7 -3 380 -5 829 -5 l817 -1 43 -64 c24 -36 44 -70 44
-75 0 -7 -294 -10 -874 -8 l-874 2 -6 -40 c-3 -22 -22 -143 -42 -268 -20 -125
-35 -230 -32 -232 2 -3 664 -5 1471 -5 1408 0 1467 -1 1467 -19 0 -10 -11
-107 -25 -217 -14 -109 -25 -204 -25 -211 0 -6 25 -21 55 -34 39 -16 55 -28
55 -42 0 -10 -9 -94 -20 -185 -106 -864 -139 -1177 -147 -1404 -3 -98 -9 -178
-13 -178 -7 0 -2055 132 -2864 185 -208 14 -381 27 -384 30 -3 3 81 647 187
1433 106 785 235 1742 287 2127 52 385 146 1087 210 1560 64 473 117 861 118
863 4 4 3075 99 3250 101 l158 1 -5 -32z m-1288 -513 c149 -31 316 -127 437
-251 156 -159 257 -376 284 -609 17 -149 13 -188 -21 -269 -28 -64 -37 -75
-78 -97 -93 -49 -155 -134 -143 -196 2 -13 24 -42 48 -65 l43 -41 -32 -44 -31
-44 -332 332 -331 331 -77 466 c-43 257 -80 475 -82 484 -4 13 4 18 38 21 69
8 197 -1 277 -18z m-329 -2 c0 -5 36 -217 79 -473 44 -255 78 -466 77 -468 -2
-1 -178 -16 -392 -32 -214 -16 -410 -31 -436 -34 l-48 -5 0 39 c0 35 3 40 23
40 55 0 740 60 745 65 4 4 -108 699 -135 837 -4 22 -1 27 18 31 41 7 69 7 69
0z m498 -1296 l333 -334 -63 -58 c-304 -282 -720 -314 -1063 -82 -192 130
-345 361 -400 604 -32 142 -32 143 8 144 17 0 187 13 377 28 190 16 374 29
410 30 l65 1 333 -333z m786 -66 c25 -26 30 -41 38 -123 12 -111 21 -138 47
-138 18 0 64 45 73 71 7 20 78 -20 78 -43 0 -31 -37 -75 -73 -87 -21 -8 -46
-31 -72 -67 -51 -71 -168 -182 -211 -200 -47 -20 -101 -17 -140 7 -72 44 -99
136 -92 310 5 127 16 159 54 159 21 0 25 4 22 22 -2 12 -12 27 -24 33 -18 9
-19 14 -10 35 14 34 26 41 61 36 17 -3 46 -1 65 3 19 5 62 9 96 10 54 1 63 -2
88 -28z m187 -486 c52 -141 53 -137 -32 -191 -35 -22 -169 -64 -205 -64 -7 0
-15 19 -19 41 -4 23 -14 57 -21 75 -8 19 -10 34 -5 34 16 0 135 115 181 175
23 30 45 55 49 55 3 0 27 -56 52 -125z m152 -351 c77 -68 82 -281 17 -719 -43
-290 -58 -374 -91 -485 -24 -86 -39 -105 -80 -105 -33 0 -33 -1 -224 -345
-104 -190 -195 -354 -202 -365 -11 -20 -11 -20 -33 0 -33 30 -71 100 -72 132
0 15 65 181 146 367 l146 339 -20 32 c-36 58 -28 90 42 157 l62 59 7 117 c10
138 29 291 39 297 3 2 1 -40 -6 -93 -8 -53 -14 -128 -14 -167 -2 -137 -10
-160 -79 -224 -80 -74 -81 -95 -8 -165 53 -52 157 -111 214 -122 31 -6 34 -4
49 31 40 96 84 329 129 678 29 226 33 417 11 492 -15 49 -59 105 -83 105 -7 0
-13 4 -13 10 0 13 34 -1 63 -26z m-1993 -48 c-5 -5 -65 -44 -132 -86 -68 -42
-124 -84 -126 -92 -2 -9 40 -82 92 -163 53 -81 93 -151 90 -156 -3 -5 -365 -9
-804 -9 -787 0 -800 1 -800 20 0 11 14 106 30 212 17 106 33 213 37 238 l5 45
809 0 c500 0 804 -4 799 -9z m239 -309 l172 -308 -98 -112 c-53 -62 -100 -116
-103 -120 -4 -5 -40 43 -80 105 -40 62 -141 216 -223 341 -82 126 -148 230
-146 232 26 23 295 183 300 178 3 -5 84 -147 178 -316z m1143 261 c-3 -33 -20
-94 -46 -158 -24 -58 -53 -143 -66 -190 -12 -47 -24 -90 -26 -97 -2 -9 -80
-11 -317 -10 l-314 2 -134 81 c-116 70 -142 91 -193 153 -32 40 -69 78 -82 83
-14 6 -45 48 -74 99 -27 49 -50 90 -50 91 0 2 294 2 652 1 l653 -3 -3 -52z
m-1108 -227 c30 -37 78 -84 108 -103 169 -112 562 -318 605 -318 28 0 122 39
196 82 30 18 47 23 47 15 0 -36 -32 -253 -38 -259 -4 -4 -38 -15 -76 -24 -96
-24 -155 -12 -281 61 -122 70 -280 180 -399 277 -82 67 -94 81 -146 178 -31
58 -64 117 -74 133 -36 54 4 25 58 -42z m964 -270 c-2 -19 -22 -34 -96 -74
-79 -42 -101 -49 -150 -50 -52 -1 -69 5 -187 67 -72 38 -133 71 -137 75 -4 3
123 6 283 6 l290 0 -3 -24z m-1112 -246 c38 -58 72 -105 75 -105 3 0 43 43 89
95 45 53 90 100 99 104 9 5 61 8 116 7 l100 -2 100 -66 c55 -36 135 -84 178
-107 69 -36 86 -41 146 -41 37 0 90 7 117 15 27 8 49 15 50 15 0 0 -9 -73 -20
-162 l-21 -163 -1450 -2 c-797 -2 -1456 1 -1463 6 -10 6 -6 53 23 237 19 126
37 239 40 251 l5 23 874 -1 874 0 68 -104z m1153 -956 c32 -11 43 -39 16 -39
-44 0 5 -138 72 -201 49 -46 110 -82 117 -70 3 5 -10 19 -29 31 -19 12 -35 24
-35 27 0 3 22 47 50 98 l50 92 202 6 c203 6 280 17 347 50 19 9 36 17 38 17 1
0 3 -46 3 -102 0 -116 -15 -222 -60 -413 -49 -212 -56 -296 -41 -501 29 -426
90 -758 267 -1453 53 -206 91 -377 87 -380 -64 -43 -195 -140 -218 -162 l-30
-28 -169 472 c-256 713 -294 823 -331 942 -18 60 -37 111 -42 112 -6 2 -13
-59 -17 -149 -4 -84 -25 -443 -46 -798 -22 -355 -40 -654 -40 -665 0 -19 -6
-20 -150 -17 -82 2 -150 6 -150 10 0 4 -18 212 -40 462 -96 1091 -96 1061 10
1955 22 182 49 411 60 510 12 99 23 186 26 193 4 15 12 15 53 1z m393 -1822
l78 -228 0 -304 0 -303 -104 0 -104 -1 3 313 c3 299 20 703 32 756 4 17 7 20
11 10 3 -8 40 -118 84 -243z m-3309 214 c4 -1 7 -188 7 -416 l0 -415 -105 0
-105 0 0 418 c0 230 2 421 4 423 3 3 154 -4 199 -10z"/>
<path d="M9656 10145 l-37 -45 -132 0 c-73 0 -195 -3 -273 -7 l-140 -6 -33
-246 c-18 -135 -35 -258 -38 -273 l-5 -28 334 0 334 0 37 268 c21 147 37 275
37 285 0 13 -8 17 -36 17 l-35 0 20 29 c12 16 21 34 21 40 0 22 -18 10 -54
-34z m64 -72 c0 -10 -16 -124 -35 -253 -19 -129 -35 -241 -35 -247 0 -10 -70
-13 -316 -13 l-316 0 5 33 c4 17 20 131 37 252 18 121 34 222 36 224 6 7 504
14 504 8 0 -4 -70 -99 -157 -213 l-156 -206 -33 54 c-18 29 -52 85 -76 125
-38 64 -68 92 -68 64 0 -9 154 -267 170 -284 4 -4 89 100 189 233 176 232 183
240 216 240 27 0 35 -4 35 -17z"/>
<path d="M9572 9417 l-40 -54 -129 -6 c-70 -4 -194 -7 -275 -7 l-146 0 -11
-67 c-6 -38 -26 -160 -44 -273 l-34 -205 335 -3 c184 -1 336 -1 338 0 3 3 74
528 74 547 0 6 -16 11 -35 11 -19 0 -35 3 -35 6 0 3 14 24 31 46 21 26 28 43
22 49 -7 7 -24 -9 -51 -44z m-69 -89 c-5 -7 -74 -97 -152 -201 -78 -103 -146
-185 -150 -183 -4 3 -40 59 -80 126 -66 110 -91 140 -91 108 0 -15 162 -287
171 -288 3 0 82 101 175 224 168 223 169 225 207 225 37 1 38 0 32 -31 -3 -18
-16 -118 -30 -223 -14 -104 -28 -207 -31 -227 l-6 -38 -314 0 c-244 0 -314 3
-314 13 0 6 16 121 37 254 l37 243 161 3 c88 1 204 4 259 5 77 2 96 -1 89 -10z"/>
<path d="M9450 8620 l-43 -60 -267 0 -266 0 -39 -247 c-21 -137 -40 -259 -43
-273 l-4 -25 338 5 338 5 27 220 c15 121 30 241 33 268 l7 47 -41 0 c-22 0
-40 3 -40 6 0 4 16 28 35 54 39 53 41 60 22 60 -8 0 -33 -27 -57 -60z m-207
-272 c-80 -106 -147 -194 -148 -196 -1 -1 -35 53 -76 120 -68 110 -99 148 -99
119 0 -8 101 -183 156 -269 15 -23 19 -18 180 195 l166 218 45 3 c34 2 44 0
41 -10 -3 -7 -18 -122 -34 -255 l-29 -243 -318 0 -318 0 6 33 c10 59 75 467
75 472 0 3 112 5 250 5 l249 0 -146 -192z"/>
<path d="M8525 5938 c-5 -33 -183 -1460 -188 -1508 l-2 -25 315 -17 c1206 -66
2558 -138 2605 -138 72 0 71 16 -2 24 -32 3 -663 38 -1403 76 -740 39 -1360
74 -1379 76 -31 5 -13 15 187 105 122 54 229 99 238 99 9 0 54 -12 101 -26 48
-16 88 -23 93 -18 4 5 72 88 150 184 78 96 145 176 148 178 4 1 50 -11 102
-26 l95 -28 301 295 302 296 603 136 c332 75 605 136 606 135 2 -1 -42 -42
-97 -92 -55 -49 -98 -93 -96 -99 7 -25 44 -1 171 114 l137 124 -198 48 c-110
27 -205 48 -212 49 -8 0 -12 -8 -10 -17 2 -14 36 -25 152 -53 l149 -35 -614
-138 -614 -138 -295 -294 -295 -294 -95 30 c-52 16 -100 28 -106 27 -6 -2 -75
-82 -154 -178 -78 -96 -145 -178 -149 -182 -4 -4 -43 3 -86 17 -44 14 -86 25
-93 25 -8 0 -126 -50 -263 -111 -137 -62 -252 -110 -254 -107 -6 6 -4 21 105
901 38 312 70 578 70 592 0 36 -18 31 -25 -7z"/>
<path d="M12271 5573 c-1 -251 -95 -609 -283 -1070 -38 -96 -68 -176 -66 -179
6 -5 97 209 156 366 84 221 153 467 187 655 21 120 32 345 17 345 -8 0 -11
-37 -11 -117z"/>
<path d="M3994 8678 c-14 -32 -15 -32 -11 -5 3 18 0 27 -9 27 -17 0 -28 -22
-43 -85 -7 -27 -17 -68 -23 -90 l-10 -40 -28 61 c-52 115 -69 94 -39 -48 14
-70 19 -121 15 -159 -12 -119 -236 -834 -297 -949 -18 -33 -61 -94 -96 -135
l-64 -75 -25 17 c-25 16 -25 19 -19 87 5 48 13 78 26 91 26 29 48 86 55 147 8
69 -11 224 -37 299 -18 52 -19 65 -8 113 6 30 9 70 5 91 -11 57 -84 128 -180
175 -219 108 -469 112 -629 10 -151 -96 -175 -200 -101 -440 36 -115 39 -134
39 -245 l0 -120 -102 -260 c-55 -143 -109 -287 -119 -320 -15 -50 -30 -73 -95
-140 -141 -147 -193 -254 -193 -395 1 -142 64 -281 203 -447 34 -40 61 -75 61
-77 0 -2 -18 -26 -40 -52 -93 -112 -140 -254 -140 -427 0 -236 88 -435 250
-564 37 -30 60 -56 60 -68 0 -11 -88 -456 -195 -990 -107 -533 -195 -982 -195
-997 0 -35 26 -38 40 -5 5 12 50 229 100 482 50 253 94 470 97 483 5 22 6 22
209 22 l204 0 -5 -22 c-19 -84 -125 -668 -125 -690 0 -35 26 -38 40 -5 5 12
36 173 70 357 34 184 63 343 66 353 5 15 23 17 194 17 l188 0 -14 -47 c-7 -27
-52 -194 -99 -373 -47 -179 -88 -333 -91 -343 -3 -9 -19 -24 -35 -32 -46 -24
-145 -133 -111 -123 5 2 68 -45 139 -104 72 -59 142 -112 155 -118 18 -7 257
-50 282 -50 3 0 6 10 6 23 0 32 -34 60 -97 82 -51 18 -53 18 -73 0 -23 -21
-27 -14 -5 9 14 14 12 19 -19 48 -18 18 -53 69 -76 113 l-41 80 119 255 c66
140 149 323 186 405 37 83 70 156 75 163 5 9 40 13 110 15 l103 2 -1 -215 c-1
-118 -6 -332 -12 -475 l-11 -260 -29 -44 c-33 -51 -44 -96 -36 -153 7 -49 19
-58 72 -56 l40 1 -40 4 c-22 3 -44 9 -50 14 -8 8 158 4 220 -6 11 -2 102 -4
203 -4 143 -1 182 -4 176 -13 -5 -10 -4 -10 5 -2 7 6 11 24 9 40 -4 38 -36 53
-123 56 -66 3 -69 2 -76 -22 -6 -23 -7 -23 -8 -3 -1 12 4 25 10 29 8 4 6 10
-6 17 -15 8 -22 5 -37 -13 -19 -24 -24 -20 -9 9 8 14 -6 29 -83 85 l-92 69 23
121 c25 133 31 153 32 116 2 -35 16 -54 35 -47 20 8 20 18 0 126 l-15 86 45
250 c25 138 48 260 51 273 5 20 11 22 73 22 l68 0 94 -512 c88 -475 96 -513
115 -513 16 0 20 6 19 30 0 17 -62 365 -139 774 l-138 745 11 85 c7 47 17 147
24 222 10 116 9 144 -4 197 l-16 62 28 35 c44 55 97 173 120 265 31 121 38
314 16 412 -57 257 -247 438 -556 532 l-85 26 0 352 c0 292 -3 369 -18 446
l-17 92 58 73 c217 273 275 434 378 1057 42 256 48 282 88 370 48 104 69 197
43 187 -13 -5 -14 0 -7 24 5 17 5 31 -1 34 -11 7 -11 7 -14 -25 -1 -14 -9 -49
-18 -77 -18 -59 -9 -70 16 -20 l16 32 -6 -35 c-3 -19 -25 -78 -48 -130 -37
-85 -46 -120 -79 -325 -103 -635 -168 -820 -379 -1082 l-50 -62 -28 85 c-16
47 -35 98 -43 113 -14 27 -13 29 53 110 87 104 116 163 191 391 197 596 224
725 185 870 -21 79 -18 83 16 18 16 -32 31 -58 34 -58 9 0 31 64 50 138 22 92
30 89 10 -4 -17 -81 -18 -94 -6 -94 4 0 16 30 26 67 10 37 20 62 22 56 2 -6
-2 -36 -11 -67 -8 -31 -10 -56 -6 -56 13 0 42 97 46 152 4 56 -10 63 -32 16z
m-996 -424 c42 -8 114 -31 160 -49 148 -60 212 -127 212 -221 0 -70 -12 -84
-40 -46 -42 57 -122 88 -211 83 -25 -1 -27 -4 -31 -70 -5 -73 -39 -160 -100
-253 -27 -43 -34 -48 -66 -48 -45 0 -72 -24 -72 -65 0 -38 21 -59 76 -79 28
-9 39 -19 38 -32 -1 -11 -24 -93 -51 -184 l-50 -165 -97 -50 c-185 -96 -325
-181 -414 -253 -24 -19 -45 -32 -47 -30 -7 7 42 147 125 358 127 327 132 377
60 622 -63 214 -53 299 44 385 116 102 276 136 464 97z m217 -255 c24 -7 57
-29 82 -54 45 -44 54 -65 28 -65 -8 0 -15 -4 -15 -9 0 -5 9 -7 19 -4 25 6 49
-32 26 -41 -22 -8 -18 -29 4 -23 30 8 46 -66 46 -213 0 -150 -15 -193 -79
-224 -36 -17 -45 -18 -100 -7 -76 16 -135 46 -214 110 -35 28 -70 51 -79 51
-23 0 -73 39 -73 58 0 36 29 62 70 62 37 0 42 4 76 58 55 85 83 155 96 238 12
73 12 74 42 74 17 0 49 -5 71 -11z m-98 -618 c34 -17 67 -31 72 -31 6 0 12
-16 12 -35 1 -19 3 -39 4 -45 1 -5 3 -26 4 -45 0 -20 9 -42 21 -53 31 -29 82
-152 87 -212 9 -100 -35 -147 -148 -157 -113 -11 -196 54 -266 204 -33 71 -34
79 -23 117 6 23 32 109 57 193 l46 152 36 -29 c20 -16 64 -43 98 -59z m202
-172 c-16 -10 -80 -22 -86 -16 -2 3 -7 36 -12 75 l-7 71 55 3 56 3 3 -64 c2
-43 -1 -67 -9 -72z m-669 -346 c0 -65 -4 -123 -8 -129 -4 -6 -29 -24 -57 -40
-80 -46 -238 -168 -298 -228 -91 -93 -115 -175 -82 -277 46 -136 199 -427 282
-533 58 -75 64 -99 37 -166 -22 -55 -26 -46 -9 20 18 65 17 60 7 60 -5 0 -17
-28 -28 -62 l-19 -63 -3 53 c-3 56 -22 63 -23 9 0 -18 -4 -41 -9 -52 -6 -14
-9 -3 -9 40 -1 43 -4 56 -11 45 -5 -8 -10 -30 -10 -49 0 -19 -3 -32 -6 -28 -5
5 -10 73 -13 170 -1 34 -11 49 -91 133 -208 218 -289 381 -277 558 4 66 12 93
47 163 50 100 165 227 304 332 92 71 240 161 263 161 10 0 13 -29 13 -117z
m-3 -229 c3 -73 20 -210 40 -332 8 -51 13 -95 11 -97 -2 -3 -41 4 -86 15 -139
33 -269 110 -321 189 -15 24 -14 25 54 88 76 71 271 206 289 200 6 -2 12 -30
13 -63z m-312 -297 c55 -52 184 -114 280 -134 44 -9 84 -19 88 -23 8 -7 49
-152 44 -156 -1 -1 -38 -14 -82 -29 -83 -29 -201 -84 -247 -116 -14 -11 -30
-19 -35 -19 -11 0 -117 211 -150 299 -33 89 -33 158 3 218 l27 47 16 -24 c9
-14 34 -42 56 -63z m1270 -346 c218 -61 409 -203 487 -361 56 -114 71 -186 71
-325 -1 -137 -21 -247 -63 -348 -29 -69 -87 -167 -99 -167 -4 0 -34 66 -68
148 -33 81 -75 179 -93 218 l-33 71 24 32 c39 52 33 130 -15 225 -50 98 -140
236 -233 359 -68 89 -73 100 -67 132 3 19 9 35 13 35 3 0 38 -9 76 -19z m-838
-7 c3 -9 -2 -28 -11 -43 -27 -40 -91 -180 -111 -240 -21 -63 -23 -240 -6 -386
9 -70 61 -394 65 -402 1 -1 290 59 343 72 19 4 33 -12 106 -122 118 -179 157
-255 157 -311 l0 -45 -192 6 c-106 4 -224 11 -263 17 -119 17 -256 61 -360
113 -83 43 -115 66 -191 142 -100 98 -147 178 -179 304 -56 220 -5 478 124
622 l40 44 42 -42 42 -41 7 -116 c4 -64 10 -120 14 -123 4 -4 31 -8 61 -8 l54
-2 25 57 c14 32 26 66 26 76 0 23 -30 74 -80 134 -20 25 -49 67 -64 95 l-27
50 28 22 c58 47 275 142 326 143 10 0 20 -7 24 -16z m1086 -896 c73 -162 131
-310 147 -377 33 -140 -15 -491 -216 -1581 -81 -439 -78 -428 -111 -436 -14
-4 -38 -3 -52 2 -25 10 -26 12 -23 89 1 44 7 211 12 370 5 160 10 367 10 460
0 94 5 222 10 285 6 63 14 181 19 262 5 81 14 155 20 166 22 42 71 238 71 287
0 83 -53 211 -165 401 -25 42 -44 78 -43 79 2 1 41 15 87 31 46 16 103 41 125
56 23 14 44 27 47 27 4 1 31 -54 62 -121z m-270 -116 c86 -150 134 -262 143
-328 5 -41 0 -74 -21 -151 -66 -235 -263 -707 -558 -1338 -137 -294 -158 -335
-169 -335 -22 0 -78 42 -78 59 0 30 225 867 290 1076 103 337 132 458 134 560
1 88 0 92 -42 170 -24 44 -78 131 -119 193 -42 62 -74 114 -72 115 2 2 72 18
154 36 83 17 173 38 200 45 28 8 55 15 60 15 6 1 40 -52 78 -117z m-1013 -380
c52 -21 125 -45 162 -52 37 -8 72 -16 78 -20 6 -4 -10 -112 -43 -288 l-52
-282 -225 -134 c-124 -73 -226 -130 -228 -126 -2 6 160 830 183 928 4 14 11
22 18 18 7 -3 55 -23 107 -44z m568 -92 l175 0 -7 -55 c-6 -57 -122 -474 -135
-488 -4 -4 -97 -6 -207 -5 l-200 3 52 275 c29 151 53 277 53 279 1 2 22 1 47
-3 26 -3 126 -6 222 -6z m861 -631 c16 -84 28 -155 26 -157 -6 -7 -105 60
-105 71 0 7 9 64 20 127 11 63 20 120 21 125 2 21 10 -17 38 -166z m-855 -6
c-8 -27 -22 -73 -30 -104 l-17 -56 -184 -8 c-101 -4 -187 -4 -191 -1 -5 6 26
192 35 209 2 4 94 7 203 7 l199 0 -15 -47z m466 -53 c0 -75 -3 -102 -13 -106
-8 -3 -52 -4 -99 -2 l-85 3 45 103 45 102 53 0 54 0 0 -100z m-910 69 c0 -6
-7 -51 -16 -100 l-17 -89 -155 0 c-85 0 -153 2 -151 4 9 10 325 195 332 196 4
0 7 -5 7 -11z"/>
<path d="M5510 8277 c-14 -6 -54 -33 -90 -60 -139 -103 -130 -93 -130 -148 0
-56 -10 -81 -48 -121 -19 -20 -26 -42 -30 -81 -5 -63 17 -114 77 -180 47 -51
61 -78 61 -112 0 -15 11 -36 28 -51 23 -23 34 -25 76 -21 39 3 55 11 75 33
l24 29 -7 -55 c-10 -73 -26 -106 -51 -102 -11 2 -52 6 -91 9 -72 5 -72 5 -114
-33 -23 -21 -50 -55 -61 -77 -11 -21 -34 -46 -51 -55 -290 -159 -362 -302
-389 -774 -11 -178 -10 -202 5 -242 9 -24 26 -52 36 -61 28 -25 75 -23 105 5
36 34 102 167 145 294 l38 111 1 -288 1 -287 -82 41 c-264 133 -404 117 -489
-56 -29 -59 -31 -71 -27 -134 6 -83 44 -168 111 -253 46 -56 206 -205 284
-262 39 -29 42 -35 43 -78 0 -64 18 -146 41 -188 l19 -35 -184 -974 c-101
-536 -182 -981 -179 -988 3 -8 13 -13 22 -11 16 3 41 116 111 496 l23 123 209
-1 c156 -1 208 -4 205 -13 -2 -7 -15 -76 -28 -154 -18 -112 -21 -145 -11 -155
22 -22 33 7 60 161 l26 151 192 0 192 0 86 -132 c174 -270 336 -380 447 -305
46 31 62 66 49 104 -6 15 -39 56 -73 90 -52 54 -67 63 -97 63 -19 0 -50 -9
-67 -20 -18 -11 -33 -17 -33 -15 0 13 68 45 95 45 25 0 27 2 15 14 -8 8 -31
19 -50 24 -30 9 -31 10 -10 11 l25 2 -23 18 c-27 23 -72 19 -117 -11 l-30 -20
30 26 c28 24 43 29 88 29 12 0 16 5 13 14 -4 8 -9 26 -12 39 l-6 24 195 0
c178 0 196 -2 201 -17 2 -10 15 -80 27 -156 15 -94 27 -141 36 -144 33 -13 35
14 13 149 -12 73 -24 141 -26 151 -5 16 8 17 165 17 l169 0 6 -27 c3 -16 26
-146 51 -291 25 -144 48 -269 51 -277 7 -17 30 -20 39 -5 4 6 -53 352 -125
769 l-132 760 56 84 c64 97 106 199 106 260 0 52 -63 190 -117 256 l-36 43 39
-24 c98 -61 453 -229 503 -238 136 -25 241 46 241 163 0 114 -87 196 -250 237
-112 27 -122 32 -190 91 -84 73 -153 87 -252 49 -29 -11 -74 -20 -100 -20 -47
0 -48 0 -48 33 l0 32 159 -3 159 -3 26 34 c14 18 42 69 62 113 33 73 50 93
212 256 233 235 233 234 -93 128 l-240 -78 -52 102 c-29 55 -52 115 -52 131
-2 79 -77 295 -170 490 -143 297 -259 439 -422 514 -65 31 -158 51 -239 51
-49 1 -74 14 -84 46 -6 18 1 25 46 47 119 58 144 162 112 457 -5 45 -4 53 7
43 7 -7 23 -13 36 -13 20 0 23 5 23 38 0 47 -14 98 -52 190 -34 81 -59 102
-126 102 -25 0 -49 8 -66 21 -29 23 -88 27 -146 9 -53 -15 -76 -12 -116 15
-41 28 -48 29 -84 12z m423 -228 c58 -16 79 -86 32 -107 -15 -7 -25 -20 -25
-32 0 -16 7 -20 34 -20 24 0 35 -5 39 -19 3 -12 -1 -18 -11 -17 -9 0 -18 -8
-20 -18 -3 -15 0 -18 16 -14 27 7 32 -13 32 -143 0 -130 -16 -184 -70 -233
-53 -47 -106 -55 -184 -26 -32 13 -76 38 -96 56 -39 35 -82 113 -95 172 -3 18
-12 32 -18 31 -7 -1 -29 -1 -50 0 -29 1 -40 6 -49 26 -16 36 11 71 64 86 31 8
63 30 112 77 63 61 69 64 78 46 6 -10 12 -21 14 -23 1 -2 25 7 53 20 53 25 68
56 31 66 -27 7 -26 11 12 50 35 36 44 38 101 22z m-330 -493 c34 -81 148 -166
224 -166 27 0 33 -4 33 -21 0 -32 17 -55 50 -69 55 -23 50 -90 -20 -235 -71
-148 -150 -224 -211 -203 -96 33 -269 291 -269 402 0 42 3 46 64 95 71 56 81
76 92 179 4 34 9 62 13 62 3 0 14 -20 24 -44z m-150 -155 c28 -6 27 -7 -36
-44 -107 -62 -137 -121 -218 -424 -127 -481 -242 -763 -310 -763 -109 0 -120
187 -29 470 56 173 205 439 308 552 22 24 49 62 61 85 26 52 78 112 105 123
24 10 78 10 119 1z m-55 -104 c-37 -121 194 -457 314 -457 82 0 232 237 245
388 l6 62 52 0 c162 0 330 -113 456 -307 170 -263 328 -667 291 -748 -16 -35
-106 -75 -181 -82 -54 -5 -60 -4 -96 28 -26 23 -53 65 -85 134 -56 120 -133
228 -158 223 -22 -5 -20 -41 19 -361 17 -137 29 -250 27 -251 -13 -9 -498
-146 -518 -146 -27 0 -199 44 -333 85 -46 14 -130 49 -188 78 l-104 52 -3 330
-2 330 66 245 c82 301 133 412 201 430 0 0 -3 -15 -9 -33z m-256 -114 c-113
-135 -235 -359 -297 -543 -31 -93 -35 -100 -35 -63 0 60 36 262 61 335 27 82
69 147 132 204 46 41 151 111 170 113 5 1 -10 -20 -31 -46z m1122 -675 c27
-28 76 -109 124 -203 60 -119 102 -164 161 -172 40 -5 43 -9 86 -88 25 -45 45
-85 45 -88 0 -3 -26 -14 -57 -24 -38 -12 -68 -29 -85 -49 l-28 -32 -97 35
c-54 20 -100 37 -101 38 -5 4 -58 417 -67 518 -7 77 -4 88 19 65z m565 -388
l48 -99 -88 -30 -88 -29 -49 86 -49 87 65 22 c36 12 75 31 86 43 11 11 22 20
24 20 1 0 24 -45 51 -100z m465 -12 c-17 -18 -98 -107 -181 -198 -83 -91 -159
-172 -169 -181 -18 -16 -31 -12 -217 54 l-198 70 26 26 c19 20 108 52 388 143
199 64 366 117 371 117 6 1 -4 -14 -20 -31z m-1614 -327 c277 -72 804 -169
853 -157 12 3 16 3 9 0 -6 -3 -10 -10 -6 -15 7 -12 20 -14 -219 26 -375 63
-535 97 -837 181 -169 47 -190 54 -190 64 0 4 37 -3 83 -17 45 -13 183 -50
307 -82z m1305 -96 c-20 -41 -44 -80 -53 -87 -10 -9 -55 -13 -144 -14 -134 -2
-179 3 -157 16 8 5 -10 19 -50 40 -83 41 -72 50 12 9 87 -41 108 -32 35 15
-32 20 -58 39 -58 42 0 7 36 -13 97 -53 74 -49 89 -36 20 16 -31 24 -57 45
-57 47 0 4 25 -6 123 -50 96 -43 123 -36 208 58 29 32 55 53 57 47 2 -6 -13
-45 -33 -86z m-1807 -163 c511 -260 909 -403 1162 -419 78 -5 88 -3 120 19 29
19 66 73 83 122 2 6 7 8 11 5 22 -20 -70 -144 -117 -157 -44 -12 -143 -5 -252
19 -49 10 -91 19 -94 19 -3 0 22 -18 56 -40 59 -39 113 -91 113 -110 0 -17
-162 -25 -475 -24 -442 1 -649 24 -722 80 -37 28 -68 83 -77 134 -12 73 -15
120 -6 120 6 0 40 -21 77 -46 145 -100 285 -151 387 -141 104 10 166 34 211
82 71 75 72 69 -8 100 -104 40 -627 297 -627 307 0 6 3 8 8 6 4 -2 72 -36 150
-76z m1762 -7 c14 -7 49 -34 77 -58 36 -31 71 -51 110 -62 32 -9 81 -22 108
-30 64 -18 136 -64 166 -106 35 -50 39 -142 7 -189 -13 -19 -39 -43 -58 -52
-33 -17 -110 -24 -123 -12 -11 11 25 109 59 161 19 29 34 64 34 77 0 36 -53
72 -147 100 -101 30 -137 49 -190 97 -28 25 -52 39 -70 39 -32 0 -146 31 -139
38 23 23 120 21 166 -3z m-225 -30 c27 -4 67 -16 88 -27 l39 -20 -6 -50 c-9
-63 -49 -144 -76 -153 -23 -7 -81 24 -139 74 -33 29 -33 30 -26 93 10 94 12
100 43 94 15 -2 49 -8 77 -11z m-1611 -489 c39 -16 144 -34 261 -44 78 -7 80
-8 77 -32 -24 -175 -165 -926 -174 -932 -258 -155 -443 -265 -445 -264 -1 1
52 289 117 639 66 351 120 640 120 642 0 8 8 6 44 -9z m1071 -78 c3 -18 10
-55 14 -83 11 -58 33 -23 -199 -320 -86 -110 -173 -223 -193 -252 -32 -44
-100 -178 -120 -235 -6 -16 -24 -18 -178 -18 -164 0 -171 1 -166 19 2 11 40
220 83 465 l79 446 325 3 c179 1 330 3 337 5 7 1 15 -13 18 -30z m515 -772
c39 -225 69 -413 68 -418 -4 -11 -371 259 -380 280 -4 9 -14 62 -23 116 l-16
99 28 33 c15 18 78 93 138 167 61 74 111 133 112 133 1 -1 34 -185 73 -410z
m-1030 -204 c0 -21 -12 -37 -55 -70 -30 -24 -55 -47 -55 -52 0 -5 16 -29 35
-55 l35 -46 -171 1 c-135 1 -169 4 -166 15 3 7 13 63 23 124 l18 111 168 0
168 0 0 -28z m696 -97 l20 -125 -203 0 c-156 0 -203 3 -203 13 0 6 15 19 33
27 24 11 47 41 90 113 l59 97 92 0 92 0 20 -125z m-1101 -1 c-9 -49 -19 -97
-21 -107 -5 -16 -19 -18 -169 -15 l-163 3 181 108 c99 59 182 105 184 103 2
-2 -3 -44 -12 -92z m1415 -111 c12 -11 -7 -13 -116 -13 l-131 0 -12 83 c-7 45
-15 95 -18 111 -6 26 3 22 128 -70 74 -53 141 -103 149 -111z m-998 59 c74
-58 95 -89 115 -180 9 -37 24 -84 35 -105 21 -43 83 -106 145 -148 41 -29 42
-29 53 -9 16 31 81 70 116 70 41 0 94 -57 94 -99 0 -72 -113 -105 -202 -60
-84 43 -193 163 -287 317 -28 46 -79 117 -112 158 -58 72 -69 104 -35 104 8 0
43 -22 78 -48z"/>
</g>
</svg>
