<svg width="621" height="441" viewBox="0 0 621 441" fill="none" xmlns="http://www.w3.org/2000/svg">
<path fill-rule="evenodd" clip-rule="evenodd" d="M440.912 4.95246C505.445 -9.49331 565.232 7.64587 597.366 56.6006C629.5 105.555 621.094 183.237 614.133 217.526C607.172 251.815 589.514 283.221 567.598 310.487C526.892 361.129 471.883 399.883 410.387 420.803C348.891 441.722 282.123 446.012 218.037 435.429C182.087 429.492 69.6329 400.408 45.3581 312.64C21.0834 224.872 5.72047 149.858 58.2878 119.387C110.855 88.9155 147.267 111.834 173.29 123.104C294.869 175.757 376.38 19.3982 440.912 4.95246Z" fill="#775ADA"/>
<path fill-rule="evenodd" clip-rule="evenodd" d="M493.572 76.1218C503.924 75.3223 515.082 75.8394 523.518 81.8923C531.954 87.9452 535.786 101.237 528.859 108.971C536.69 105.909 545.895 111.102 549.818 118.54C553.741 125.977 553.535 134.888 552.355 143.214C549.432 163.832 541.027 183.647 528.234 200.079C527.646 201.811 527.058 203.544 526.47 205.276C541.591 209.174 600.637 232.105 584.683 288.635C568.729 345.165 499.055 366.681 491.923 373.447C479.493 385.24 460.519 386.046 443.394 385.502C401.285 384.166 359.306 378.815 318.209 369.544C314.715 368.756 310.289 368.276 308.275 371.238C293.697 392.672 263.211 394.588 237.357 392.722C204.146 390.326 171.127 385.289 138.712 377.675C120.326 373.356 100.801 367.343 89.3471 352.326C75.994 334.819 77.5361 310.546 79.7028 288.635C70.9262 293.515 56.3696 296.158 36.0331 296.563C24.0595 294.121 16.5906 289.781 13.6266 283.543C0.0721931 255.014 -4.5759 218.252 12.3031 190.132C14.3307 186.754 16.6701 183.425 19.9717 181.276C23.472 178.997 27.7394 178.248 31.8999 177.879C48.3101 176.426 65.1473 180.256 79.3136 188.666C79.1871 142.623 79.0606 96.5797 78.9341 50.5367C78.9269 47.9 78.9636 45.1021 80.3693 42.8714C82.4025 39.6449 86.5675 38.6448 90.3164 37.945C124.419 31.5789 158.908 27.2854 193.53 25.0961C204.843 24.3808 220.325 27.5292 220.376 38.8643C220.573 82.2732 220.771 125.682 220.968 169.091C221.015 179.423 221.679 178.559 226.519 175.565C223.476 175.881 224.155 170.719 226.461 168.709C235.07 161.205 247.614 160.929 259.034 161.045C284.578 161.307 310.121 161.568 335.665 161.83C360.414 162.083 390.095 165.222 401.3 187.291C400.974 180.732 406.919 174.542 413.486 174.603C420.647 174.669 426.637 168.456 428.727 161.606C430.817 154.756 429.895 147.396 428.955 140.296C417.407 129.115 414.384 110.108 421.893 95.8957C429.402 81.6836 446.807 73.4692 462.551 76.7068C472.721 78.7981 483.22 76.9212 493.572 76.1218ZM197.175 289.054C196.835 298.194 196.475 307.456 193.786 316.197L197.175 289.054ZM186.592 176.891C188.969 177.587 191.911 179.695 190.663 181.834C200.991 182.866 197.907 182.388 198.371 170.218C198.843 157.868 198.882 144.213 190.797 134.866C183.643 126.595 171.976 124.008 161.08 123.078C148.362 121.992 135.507 122.514 122.919 124.627C116.777 125.658 110.124 127.434 106.56 132.541C104.565 135.4 103.831 138.929 103.245 142.365C100.94 155.881 100.22 169.666 101.105 183.348C127.583 171.029 158.564 168.689 186.592 176.891ZM416.384 267.626C417.031 266.972 418.012 266.813 418.923 266.688C422.562 266.187 426.201 265.687 429.839 265.186C421.489 261.414 416.427 252.455 414.915 243.418C413.403 234.381 414.88 225.14 416.371 216.1C411.029 222.044 411.414 231.013 412.114 238.974C413.646 256.399 415.737 268.28 416.384 267.626ZM347.682 353.454C348.397 351.126 350.833 349.876 352.617 348.218C355.828 345.234 357.021 340.723 358.068 336.466C361.687 321.757 365.329 306.869 365.284 291.721C365.274 288.512 365.111 285.215 366.174 282.187C367.236 279.159 369.899 276.42 373.108 276.405C376.492 276.388 377.3 271.694 376.997 268.324C375.954 256.703 374.911 245.081 373.868 233.46C373.535 229.748 373.195 226.002 372.069 222.449C367.904 209.316 351.855 201.374 338.888 206.031C337.3 206.601 336.876 208.606 336.696 210.283C334.7 228.872 332.704 247.461 330.708 266.049C330.354 269.352 334.618 271.46 337.838 270.642C341.057 269.824 343.515 267.309 346.299 265.496C349.082 263.684 353.006 262.641 355.562 264.762C358.451 267.16 362.728 264.496 365.237 261.704C367.747 258.912 371.015 255.546 374.584 256.71C370.397 260.715 366.211 264.72 362.024 268.724C360.636 270.053 359.412 272.705 361.166 273.489C365.976 271.783 370.325 268.793 373.64 264.913C375.173 264.864 375.245 267.271 374.39 268.544C371.167 273.341 363.581 274.409 361.628 279.848C357.069 292.543 342.85 300.975 329.524 298.887C326.791 298.459 325.428 302.054 325.099 304.802C323.787 315.756 322.475 326.71 321.163 337.664C320.862 340.183 320.58 342.849 321.618 345.165C323.349 349.03 327.979 350.492 332.084 351.532C337.51 352.907 342.999 354.288 348.545 354.889C350.88 355.141 350.871 354.286 347.682 353.454ZM131.507 333.37C139.26 335.967 147.466 336.847 155.597 337.71C159.045 338.077 162.717 338.405 165.81 336.838C169.451 334.994 171.391 330.997 172.957 327.228C181.69 306.208 186.676 283.638 187.61 260.896C187.743 257.665 183.606 256.238 180.379 256.021C154.617 254.292 129.979 265.617 106.647 276.676C105.529 277.206 104.332 277.811 103.78 278.918C103.368 279.744 103.389 280.71 103.42 281.632C103.838 294.196 104.365 307.21 109.984 318.456C111.502 321.492 113.432 324.415 116.165 326.429C117.82 327.65 119.715 328.497 121.594 329.333C124.855 330.785 128.122 332.237 131.507 333.37ZM298.164 286.871C301.598 268.404 304.018 249.748 305.41 231.016C305.886 224.607 306.235 218.092 304.849 211.818C303.464 205.543 300.122 199.443 294.658 196.061C291.291 193.977 287.35 193.042 283.452 192.346C276.338 191.077 269.101 190.502 261.876 190.63C255.501 190.743 248.81 191.52 243.605 195.204C241.884 196.422 240.321 198.017 239.692 200.029C239.064 202.042 239.593 204.515 241.339 205.697C245.752 208.686 247.55 214.277 248.377 219.542C249.204 224.806 249.403 230.319 251.802 235.078C253.039 237.532 254.813 239.673 256.674 241.696C266.761 252.664 279.919 260.778 294.248 264.867C296.767 265.586 299.972 267.142 299.44 269.707C307.365 274.706 298.032 287.58 298.164 286.871ZM276.324 341.339C279.242 339.567 281.22 336.616 282.962 333.68C290.351 321.22 295.197 307.259 297.115 292.9C270.535 292.78 244.113 282.752 224.148 265.204C223.464 267.947 223.595 270.817 223.688 273.642C224.271 291.277 223.225 308.966 220.567 326.409C219.933 330.567 222.417 334.725 225.832 337.181C229.247 339.636 233.454 340.691 237.584 341.487C246.895 343.28 256.41 344.016 265.886 343.674C269.49 343.544 273.242 343.212 276.324 341.339ZM444.053 189.225C442.504 185.491 441.341 181.281 438.127 178.83C434.912 176.378 428.86 177.578 428.671 181.616C431.852 181.03 434.284 184.957 433.742 188.146C433.2 191.335 430.882 193.87 429.04 196.529C426.495 200.203 424.754 204.362 423.032 208.487C418.935 218.3 417.341 229.146 418.439 239.723C419.086 245.95 420.793 252.346 425.004 256.98C429.214 261.613 436.432 263.93 441.98 261.03C446.746 258.539 449.123 253.048 450.216 247.783C451.309 242.518 451.503 237.007 453.568 232.042C457.377 222.882 466.77 217.349 476.062 213.875C462.094 211.977 449.456 202.245 444.053 189.225ZM405.427 199.133C406.048 201.534 406.908 203.873 407.99 206.105C408.64 202.96 409.683 199.897 411.087 197.009C409.667 196.847 408.236 196.77 406.807 196.778C406.46 196.78 406.093 196.793 405.8 196.979C405.139 197.398 405.231 198.376 405.427 199.133ZM237.06 196.661C236.181 197.369 235.665 198.893 236.593 199.535C238.015 198.111 239.437 196.687 240.859 195.264C240.565 194.899 240.138 194.645 239.677 194.56C239.113 195.538 237.94 195.954 237.06 196.661Z" fill="white"/>
<path d="M483.288 186.461C486.326 186.461 488.788 183.999 488.788 180.961C488.788 177.924 486.326 175.461 483.288 175.461C480.25 175.461 477.788 177.924 477.788 180.961C477.788 183.999 480.25 186.461 483.288 186.461Z" fill="#FF304F"/>
<path d="M451.788 180.961C453.445 180.961 454.788 179.618 454.788 177.961C454.788 176.305 453.445 174.961 451.788 174.961C450.131 174.961 448.788 176.305 448.788 177.961C448.788 179.618 450.131 180.961 451.788 180.961Z" fill="#FF304F"/>
<path fill-rule="evenodd" clip-rule="evenodd" d="M167.714 102.038C176.713 102.095 185.713 102.152 194.713 102.209C195.134 102.212 195.587 102.225 195.927 102.474C196.621 102.983 196.344 104.177 195.629 104.657C194.914 105.138 193.988 105.117 193.127 105.088C185.207 104.813 177.263 105.224 169.414 106.315C168.22 106.481 166.961 106.656 165.844 106.202C164.728 105.748 163.874 104.411 164.388 103.321C164.924 102.182 166.454 102.03 167.714 102.038ZM137.618 101.154C138.188 101.723 137.915 102.766 137.281 103.263C136.648 103.76 135.799 103.86 134.998 103.941C127.019 104.749 119.04 105.557 111.062 106.364C110.118 106.46 109.142 106.552 108.239 106.262C107.337 105.971 106.52 105.191 106.499 104.243C106.477 103.264 107.307 102.434 108.235 102.122C109.162 101.809 110.169 101.897 111.145 101.974C119.32 102.617 127.575 102.246 135.659 100.872C136.337 100.757 137.131 100.669 137.618 101.154ZM136.5 85.8385C137.096 86.3196 136.884 87.3509 136.286 87.8294C135.688 88.308 134.873 88.3874 134.11 88.4476L108.486 90.4693C107.527 90.5449 106.533 90.6163 105.629 90.289C104.724 89.9616 103.93 89.1187 103.982 88.1579C104.035 87.1845 104.934 86.4295 105.881 86.1996C106.828 85.9698 107.82 86.1414 108.784 86.284C117.481 87.5693 126.324 86.3974 135.079 85.6014C135.57 85.5567 136.116 85.5289 136.5 85.8385ZM172.285 80.7619C177.632 81.4449 183.052 81.5487 188.421 81.0711C190.555 80.8812 193.136 80.7922 194.348 82.5588C192.909 83.7224 190.931 83.8875 189.083 84.004C182.961 84.3898 176.839 84.7757 170.717 85.1616C169.32 85.2496 167.579 85.1439 167.004 83.8682C166.488 82.7234 167.396 81.3468 168.563 80.8832C169.73 80.4195 171.04 80.6028 172.285 80.7619ZM126.097 74.2161C126.103 75.1409 124.944 75.5399 124.029 75.674L110.574 77.6462C109.613 77.787 108.621 77.9262 107.683 77.6758C106.745 77.4254 105.868 76.6793 105.781 75.7125C105.673 74.529 106.784 73.5303 107.944 73.2724C109.104 73.0146 110.306 73.2843 111.485 73.4361C115.549 73.9597 119.649 73.0665 123.745 72.9258C124.747 72.8914 126.089 73.2134 126.097 74.2161ZM191.022 70.9953C192.063 71.1117 193.132 71.7328 193.41 72.7428C191.561 74.1411 189.117 74.3956 186.808 74.6003C182.856 74.9506 178.903 75.3009 174.951 75.6513C173.558 75.7747 172.166 75.8981 170.774 76.0215C169.755 76.1117 168.696 76.1968 167.74 75.8355C166.784 75.4741 165.967 74.5254 166.11 73.5133C166.334 71.9183 168.427 71.5043 170.038 71.5389C176.012 71.6673 182.062 72.569 187.916 71.3662C188.942 71.1553 189.981 70.8789 191.022 70.9953ZM196.271 55.9078C166.984 59.8568 136.956 57.8119 108.073 64.0593C106.36 64.4298 103.969 64.4481 103.526 62.7523C103.566 60.7543 106.15 60.0331 108.143 59.891C136.242 57.887 164.34 55.8831 192.438 53.8792C194.087 53.7616 196.4 54.2602 196.271 55.9078Z" fill="#E7EAEE"/>
<path fill-rule="evenodd" clip-rule="evenodd" d="M93.2498 359.49C93.5559 363.033 88.6717 364.233 85.1154 364.247C66.6322 364.32 48.1675 367.749 30.8899 374.315C28.2531 375.317 25.4311 376.579 24.1477 379.091C22.4484 382.418 24.3031 386.674 27.3094 388.891C30.3158 391.108 34.153 391.784 37.8397 392.384C133.667 407.988 230.92 414.828 327.988 412.79L329.548 412.756C340.743 412.497 352.168 411.896 362.425 407.463C353.934 401.512 345.444 395.562 336.953 389.611C351.651 386.675 366.816 388.766 381.731 390.239C415.868 393.609 450.331 393.677 484.481 390.444C482.077 394.286 476.791 394.819 472.26 394.916C429.303 395.841 386.293 394.315 343.509 390.348C349.091 394.021 354.673 397.695 360.255 401.368C362.278 402.699 364.516 404.389 364.633 406.808C364.808 410.443 360.342 412.256 356.752 412.85C344.838 414.818 332.718 415.132 320.644 415.308C226.345 416.687 131.929 409.939 38.785 395.165C34.24 394.444 29.5308 393.639 25.7412 391.028C21.9515 388.418 19.3679 383.454 20.9604 379.137C22.5444 374.842 27.3636 372.826 31.7147 371.404C51.6263 364.901 72.3499 360.888 93.2498 359.49ZM220.376 38.8643C220.573 82.2732 220.771 125.682 220.968 169.091C221.015 179.423 223.05 192.497 233.042 195.128C246.848 188.754 262.41 186.237 277.522 187.931C286.173 188.902 295.156 191.517 301.013 197.957C309.046 206.792 309.059 220.097 308.196 232.008C306.448 256.149 303.004 280.168 297.899 303.828C301.955 303.572 306.092 305.199 308.886 308.15C304.582 310.118 299.455 310.201 295.09 308.371C298.088 324.621 284.849 340.654 268.994 345.309C253.139 349.964 235.934 345.575 221.025 338.449C219.626 343.895 226.911 347.094 232.472 347.916C246.59 350.003 260.707 352.09 274.825 354.176C257.39 354.7 239.898 353.273 222.779 349.93C219.626 354.394 226.765 358.902 232.16 359.775C246.469 362.091 260.779 364.406 275.089 366.722C258.926 366.614 242.77 365.537 226.737 363.497C236.934 372.695 250.853 377.641 264.568 376.939C256.831 379.483 248.236 379.33 240.595 376.512C250.154 389.313 269.711 391.684 283.993 384.524C298.275 377.364 307.6 362.716 312.161 347.405C316.723 332.094 317.166 315.912 317.975 299.956C319.467 270.504 322.318 241.091 327.477 212.055C330.952 192.503 339.486 169.189 359.152 166.426C324.116 164.811 289.047 163.941 253.974 163.814C243.317 163.776 230.078 165.519 226.519 175.565C223.476 175.881 224.155 170.719 226.461 168.709C235.07 161.205 247.614 160.929 259.034 161.045L335.665 161.83C360.414 162.083 390.095 165.222 401.3 187.291C400.974 180.732 406.919 174.542 413.486 174.603C420.647 174.669 426.637 168.456 428.727 161.606C430.817 154.756 429.895 147.396 428.955 140.296C417.407 129.115 414.384 110.108 421.893 95.8957C424.017 91.8759 427.155 82.2911 444.68 76.1218C456.364 72.0089 467.913 72.4611 479.327 77.4784C500.763 73.3334 515.493 74.8047 523.518 81.8923C535.555 92.5238 535.786 101.237 528.859 108.971C536.69 105.909 545.895 111.102 549.818 118.54C553.741 125.977 553.535 134.888 552.355 143.214C549.432 163.832 541.027 183.647 528.234 200.079L526.47 205.276C557.417 213.254 582.452 240.607 587.665 272.138C577.376 248.947 563.448 224.387 539.451 216.154C534.036 221.834 528.468 227.761 525.925 235.185C523.382 242.609 524.756 251.989 531.204 256.461C527.154 257.4 523.104 258.339 519.054 259.278C520.402 261.669 521.75 264.06 523.099 266.451C507.795 278.085 506.034 300.09 506.127 319.313C506.22 338.537 505.87 360.216 491.923 373.447C479.493 385.24 460.519 386.046 443.394 385.502C401.285 384.166 359.305 378.815 318.209 369.544C314.715 368.756 310.289 368.276 308.275 371.238C293.697 392.672 263.211 394.588 237.357 392.722C204.146 390.326 171.127 385.289 138.712 377.675C120.326 373.356 100.801 367.343 89.3471 352.326C75.994 334.819 77.536 310.546 79.7028 288.635C66.5379 295.955 50.9308 298.788 36.0331 296.563C51.7369 286.297 59.3521 266.656 59.4952 247.894C59.6383 229.133 53.3758 210.947 46.4085 193.527C31.0574 202.431 22.9805 221.199 24.1816 238.904C25.3827 256.61 34.7769 273.044 47.3811 285.537C31.8435 275.731 21.5623 258.066 20.7113 239.713C19.8603 221.359 28.4628 202.818 43.0264 191.617C40.6992 183.659 28.6929 182.686 22.4003 188.086C16.1077 193.485 14.1328 202.249 12.5142 210.382C9.52327 225.408 6.52005 240.785 8.69316 255.951C10.8663 271.117 19.2439 286.298 33.2823 292.435C26.7217 297.164 17.9836 290.356 13.6265 283.543C-4.04233 255.912 -4.57592 218.252 12.3031 190.132C14.3306 186.754 16.6701 183.425 19.9717 181.276C23.472 178.997 27.7394 178.248 31.8999 177.879C48.3101 176.426 65.1473 180.256 79.3136 188.666C79.1871 142.623 79.0606 96.5797 78.9341 50.5367C78.9268 47.9 78.9636 45.1021 80.3693 42.8714C82.4025 39.6449 86.5675 38.6448 90.3164 37.945C124.419 31.5789 158.908 27.2854 193.53 25.0961C204.843 24.3808 220.325 27.5292 220.376 38.8643ZM197.253 27.8702C160.545 29.5982 123.97 34.1359 87.9532 41.4306C86.4203 41.7411 84.7972 42.1036 83.683 43.2011C82.1652 44.6961 82.0479 47.0651 82.0279 49.1954C81.5978 95.0417 81.7796 140.894 82.5734 186.735C86.9811 185.636 91.3887 184.537 95.7964 183.438C94.0734 174.032 92.3431 164.498 93.0798 154.963C93.8165 145.428 97.3155 135.732 104.512 129.434C112.301 122.618 123.171 120.692 133.496 119.967C143.424 119.27 153.413 119.432 163.314 120.449C173.421 121.488 184.068 123.733 191.36 130.808C201.892 141.029 202.063 157.587 201.517 172.253C200.07 211.187 198.622 250.121 197.175 289.054C196.835 298.194 196.475 307.456 193.786 316.197C191.096 324.938 185.757 333.245 177.68 337.535C169.754 341.744 160.27 341.625 151.353 340.611C142.84 339.644 134.409 337.956 126.179 335.572C121.18 334.124 116.178 332.38 111.929 329.374C97.871 319.425 96.2089 299.573 95.8675 282.354C90.4694 281.379 85.1923 285.488 82.9634 290.5C80.7346 295.512 80.8333 301.207 80.9718 306.691C81.3171 320.369 81.8501 334.731 88.8329 346.498C99.6066 364.653 122.236 371.361 142.898 375.696C179.571 383.391 216.805 388.409 254.207 390.697C237.515 382.196 222.716 367.645 219.196 349.247C218.239 344.249 218.137 339.132 218.037 334.045C216.088 234.566 214.139 135.088 212.191 35.6091C212.067 29.3181 203.538 27.5744 197.253 27.8702ZM339.55 191.195C338.622 193.46 337.947 195.972 338.565 198.34C339.183 200.708 341.484 202.776 343.898 202.373C354.711 200.573 366.367 205.899 372.083 215.252C376.799 222.97 377.454 232.412 377.985 241.441L382.821 323.686C383.338 332.475 383.593 342.147 378.13 349.051C371.043 358.01 357.735 358.308 346.367 357.196C336.986 356.279 327.118 354.718 319.835 348.735C320.093 352.218 319.078 355.78 317.023 358.604C314.488 362.089 318.581 366.675 322.564 368.323C327.429 370.335 332.718 371.037 337.939 371.714C361.85 374.818 385.776 377.811 409.716 380.693C428.142 382.911 446.863 385.059 465.182 382.082C453.593 378.83 442.503 373.804 432.418 367.233C427.387 363.954 422.522 360.209 419.09 355.28C413.489 347.235 412.309 337.013 411.376 327.254C408.605 298.236 406.542 269.151 405.19 240.032C404.193 218.555 397.306 197.38 385.479 179.425C383.364 176.214 380.776 172.883 377.037 171.989C362.17 168.435 345.351 177.053 339.55 191.195ZM271.38 377.054C272.641 377.269 273.935 377.551 274.975 378.297C276.014 379.042 276.739 380.366 276.419 381.605C276.099 382.844 274.464 383.658 273.432 382.903C272.292 382.07 270.777 382.041 269.418 381.657C268.06 381.273 266.636 380.145 266.88 378.755C267.19 376.993 269.616 376.755 271.38 377.054ZM219.022 377.578C220.586 377.903 222.418 379.018 222.097 380.584C221.815 381.965 220.107 382.425 218.71 382.611C217.144 382.82 215.473 383.014 214.051 382.326C212.63 381.637 211.708 379.695 212.64 378.421C213.269 377.561 214.446 377.332 215.511 377.289C216.687 377.241 217.869 377.338 219.022 377.578ZM312.63 360.177C311.145 361.248 310.125 362.826 309.077 364.328C304.3 371.172 298.246 377.121 291.319 381.777C291.492 382.512 292.593 382.326 293.246 381.948C301.266 377.301 306.99 369.624 312.483 362.158C312.932 361.547 313.303 360.524 312.63 360.177ZM384.347 175.282C388.626 180.335 392.938 185.436 396.069 191.27C399.462 197.596 401.369 204.605 402.904 211.617C411.491 250.845 409.199 291.628 414.764 331.397C415.768 338.573 417.096 345.901 420.83 352.111C425.204 359.386 432.463 364.429 439.859 368.596C445.84 371.966 452.083 374.926 458.652 376.922C469.098 380.096 481.646 380.319 489.654 372.897C494.15 368.73 496.516 362.784 498.363 356.938C506.282 331.882 507.152 304.64 500.85 279.129C501.009 294.387 502.99 309.608 502.536 324.859C502.083 340.111 498.952 355.816 489.987 368.162C488.211 370.608 486.153 372.955 483.469 374.345C479.934 376.177 475.735 376.141 471.783 375.659C464.882 374.816 458.133 372.73 451.96 369.532C447.27 367.103 442.931 364.051 438.727 360.854C433.84 357.138 429.042 353.135 425.618 348.039C422.225 342.989 420.333 337.089 418.833 331.192C407.878 288.135 415.711 241.689 402.712 199.205C399.648 189.192 394.327 178.449 384.347 175.282ZM123 364.703C148.289 368.607 173.579 372.51 198.869 376.414C198.228 378.087 195.916 378.145 194.14 377.908C172.512 375.019 150.884 372.13 129.256 369.24C126.811 368.914 124.366 368.587 121.921 368.26C120.76 368.105 119.319 367.685 119.172 366.524C118.966 364.886 121.369 364.452 123 364.703ZM416.371 216.1C411.029 222.044 411.414 231.013 412.114 238.974C413.645 256.399 415.177 273.824 416.708 291.249C416.78 292.064 416.867 292.924 417.345 293.588C418.127 294.674 419.64 294.863 420.975 294.957C439.157 296.238 457.339 297.519 475.521 298.801C474.162 300.95 471.098 300.982 468.562 300.786C451.445 299.465 434.258 299.036 417.096 299.504C416.8 308.305 418.097 317.157 420.906 325.503C422.123 329.121 426.81 329.891 430.624 330.046C445.167 330.634 459.71 331.223 474.254 331.812C474.923 333.319 472.573 334.26 470.925 334.241C455.976 334.069 441.027 333.897 426.078 333.725C424.03 333.702 423.29 336.602 424.061 338.499C426.078 343.456 432.498 344.524 437.839 344.858L471.261 346.951C472.024 346.999 472.183 348.198 471.626 348.721C471.069 349.244 470.22 349.259 469.456 349.243L430.324 348.413C440.442 360.455 454.633 369.011 470.005 372.339C473.318 373.056 476.829 373.527 480.047 372.465C483.898 371.193 486.738 367.924 488.961 364.532C500.751 346.544 499.967 323.4 498.762 301.926L497.396 277.587C497.873 276.931 498.853 276.703 499.57 277.083C499.847 275.89 498.295 275.181 497.09 274.96C470.492 270.074 443.199 265.181 416.579 269.953C415.729 269.604 415.737 268.28 416.384 267.626C417.031 266.972 418.012 266.813 418.923 266.688C422.562 266.187 426.201 265.687 429.839 265.186C421.489 261.414 416.427 252.455 414.915 243.418C413.403 234.381 414.88 225.14 416.371 216.1ZM285.644 364.064C288.013 364.505 290.749 365.229 291.674 367.454C289.036 369.252 285.572 369.068 282.39 368.813C281.515 368.743 280.558 368.637 279.943 368.01C278.855 366.901 279.667 364.857 281.067 364.183C282.467 363.51 284.117 363.78 285.644 364.064ZM105.212 347.805C132.459 356.366 160.694 361.779 189.175 363.901C191.384 364.066 194.354 365.119 193.93 367.293C163.808 363.886 133.87 358.852 104.291 352.218C102.404 351.795 99.9822 350.451 100.685 348.648C101.303 347.065 103.591 347.296 105.212 347.805ZM205.01 361.019C206.401 361.016 207.744 361.493 209.045 361.988C209.706 362.239 210.434 362.564 210.69 363.223C211.237 364.629 209.298 365.634 207.814 365.903C206.815 366.084 205.816 366.266 204.817 366.447C203.975 366.6 203.068 366.745 202.292 366.382C201.033 365.792 200.705 363.974 201.428 362.785C202.15 361.596 203.619 361.023 205.01 361.019ZM333.313 358.016C345.365 360.308 357.71 360.438 369.978 360.56C370.927 360.57 371.183 362.063 370.505 362.728C369.827 363.393 368.769 363.422 367.819 363.403C356.367 363.178 344.901 361.971 333.482 362.871C332.239 362.969 330.948 363.086 329.781 362.649C328.613 362.211 327.618 361.031 327.84 359.805C328.031 358.747 329.062 358.006 330.117 357.801C331.172 357.597 332.257 357.815 333.313 358.016ZM360.541 169.078C346.895 171.116 335.43 183.261 334.183 197.002C333.017 209.836 329.475 222.316 326.953 234.953C318.856 275.535 321.312 317.592 314.153 358.35C316.768 353.589 317.473 348.046 318.132 342.654L335.492 200.485C335.954 196.702 336.426 192.876 337.785 189.315C341.499 179.585 351.098 173.472 360.541 169.078ZM298.495 353.21C299.238 353.446 300 353.756 300.496 354.359C300.991 354.961 301.115 355.934 300.574 356.495C300.165 356.919 299.525 356.995 298.939 357.047C297.021 357.216 295.103 357.386 293.185 357.555C292.15 357.646 291.08 357.734 290.093 357.408C289.106 357.081 288.217 356.226 288.188 355.187C288.14 353.427 290.311 352.542 292.068 352.427C294.234 352.286 296.426 352.553 298.495 353.21ZM338.888 206.031C337.3 206.601 336.876 208.606 336.696 210.283L330.708 266.049C330.354 269.352 334.618 271.46 337.838 270.642C341.057 269.824 343.515 267.309 346.298 265.496C349.082 263.684 353.006 262.641 355.562 264.762C358.451 267.16 362.728 264.496 365.237 261.704C367.747 258.912 371.015 255.546 374.584 256.71C370.397 260.715 366.211 264.72 362.024 268.724C360.636 270.053 359.412 272.705 361.166 273.489C365.976 271.783 370.325 268.793 373.64 264.913C375.173 264.864 375.245 267.271 374.39 268.544C371.167 273.341 363.581 274.409 361.628 279.848C357.069 292.543 342.85 300.975 329.524 298.887C326.791 298.459 325.428 302.054 325.099 304.802C323.787 315.756 322.475 326.71 321.163 337.664C320.862 340.183 320.58 342.849 321.618 345.165C323.349 349.03 327.979 350.492 332.084 351.532C339.795 353.486 347.633 355.453 355.582 355.172C363.531 354.892 371.751 352.049 376.785 345.89C375.391 344.08 372.286 346.401 370.255 345.354C368.269 344.329 369.324 340.917 371.457 340.247C373.589 339.576 375.84 340.642 377.82 341.678C379.064 339.251 380.343 336.654 380.087 333.938C379.831 331.223 377.339 328.538 374.681 329.148C372.934 329.55 372.222 326.522 373.631 325.413C375.039 324.305 377.062 324.664 378.806 325.079C378.903 318.525 379 311.972 379.097 305.419C379.116 304.082 379.121 302.677 378.487 301.5C377.853 300.322 376.349 299.497 375.144 300.078C373.502 300.869 372.078 298.073 373.177 296.618C374.276 295.164 376.351 294.976 378.173 294.912C378.314 289.092 377.937 283.26 377.05 277.506C370.191 280.943 368.991 290.012 368.299 297.653C366.972 312.307 364.303 326.839 360.336 341.008C359.447 344.182 358.447 347.428 356.37 349.988C354.293 352.547 350.871 354.286 347.682 353.454C348.397 351.126 350.833 349.876 352.617 348.218C355.828 345.234 357.021 340.723 358.068 336.466C361.687 321.757 365.329 306.869 365.284 291.721L365.277 290.705C365.253 287.821 365.223 284.896 366.174 282.187C367.236 279.159 369.899 276.42 373.108 276.405C376.492 276.388 377.3 271.694 376.997 268.324C375.954 256.703 374.911 245.081 373.868 233.46C373.535 229.748 373.195 226.002 372.069 222.449C367.904 209.316 351.855 201.374 338.888 206.031ZM389.95 347.766C391.54 348.193 393.084 349.828 392.423 351.336C391.792 352.777 389.81 352.857 388.244 352.708C387.478 352.636 386.662 352.544 386.064 352.06C385.015 351.212 385.163 349.413 386.145 348.489C387.128 347.565 388.647 347.416 389.95 347.766ZM198.819 346.155C199.866 346.381 200.956 346.686 201.708 347.448C202.46 348.21 202.709 349.567 201.961 350.334C201.351 350.96 200.365 350.971 199.491 350.941C198.234 350.897 196.977 350.852 195.72 350.808C194.992 350.783 194.214 350.74 193.63 350.306C192.381 349.377 192.929 347.201 194.27 346.412C195.611 345.622 197.298 345.825 198.819 346.155ZM101.97 334.751C109.006 338.023 116.737 339.451 124.382 340.783C139.858 343.479 155.381 345.907 170.941 348.066C173.118 348.368 175.53 348.796 176.857 350.549C170.831 350.961 164.809 349.957 158.853 348.957C139.218 345.66 119.583 342.363 99.9484 339.065C97.8903 338.72 95.233 337.577 95.6338 335.528C96.109 333.101 99.7267 333.708 101.97 334.751ZM224.148 265.204C223.464 267.947 223.595 270.817 223.688 273.642C224.271 291.277 223.225 308.966 220.567 326.409C219.933 330.567 222.417 334.725 225.832 337.181C229.247 339.636 233.454 340.691 237.584 341.487C246.895 343.28 256.41 344.016 265.886 343.674C269.489 343.544 273.242 343.212 276.324 341.339C279.242 339.567 281.22 336.616 282.962 333.68C290.351 321.22 295.197 307.259 297.115 292.9C270.535 292.78 244.113 282.752 224.148 265.204ZM293.667 335.124C295.482 335.723 297.297 336.322 299.111 336.92C299.717 337.12 300.365 337.352 300.724 337.878C301.331 338.768 300.742 340.07 299.803 340.598C298.865 341.126 297.725 341.098 296.649 341.055C294.69 340.977 292.526 340.812 291.158 339.407C289.791 338.002 290.26 334.971 292.216 334.843C292.711 334.811 293.196 334.969 293.667 335.124ZM388.796 335.387C389.875 335.559 391.014 335.758 391.846 336.467C392.678 337.176 393.019 338.58 392.253 339.36C391.944 339.674 391.515 339.835 391.099 339.98C389.493 340.539 387.709 340.986 386.12 340.377C384.532 339.768 383.449 337.668 384.447 336.291C385.365 335.025 387.252 335.14 388.796 335.387ZM106.647 276.676C105.529 277.206 104.332 277.811 103.78 278.918C103.368 279.744 103.389 280.71 103.42 281.632C103.838 294.196 104.365 307.21 109.984 318.456C111.502 321.492 113.432 324.415 116.165 326.429C117.82 327.65 119.715 328.497 121.594 329.333C124.855 330.785 128.122 332.237 131.507 333.37C139.26 335.967 147.466 336.847 155.597 337.71C159.045 338.077 162.717 338.405 165.81 336.838C169.451 334.994 171.391 330.997 172.957 327.228C181.69 306.208 186.676 283.638 187.61 260.896C187.743 257.665 183.606 256.238 180.379 256.021C154.617 254.292 129.979 265.617 106.647 276.676ZM191.611 259.984C190.95 260.854 190.868 262.017 190.802 263.107C189.261 288.826 182.86 314.246 172.036 337.628C182.348 332.409 190.031 322.275 192.272 310.937C193.042 307.039 193.2 303.05 193.355 299.079C193.845 286.56 194.335 274.04 194.825 261.521C194.851 260.861 194.856 260.135 194.436 259.625C193.742 258.782 192.272 259.115 191.611 259.984ZM195.882 322.628C197.19 322.699 198.42 323.243 199.692 323.559C200.831 323.842 201.175 325.464 200.539 326.451C199.903 327.437 198.677 327.866 197.515 328.029C196.301 328.2 194.997 328.135 193.953 327.493C192.91 326.851 192.233 325.51 192.649 324.358C193.095 323.126 194.573 322.557 195.882 322.628ZM389.546 319.228C390.77 319.481 391.819 320.239 392.826 320.978C393.373 321.379 393.954 321.829 394.133 322.483C394.362 323.318 393.811 324.217 393.052 324.633C392.293 325.049 391.384 325.079 390.521 325.01C389.295 324.912 388.029 324.608 387.103 323.798C386.178 322.987 385.708 321.564 386.284 320.478C386.87 319.374 388.323 318.975 389.546 319.228ZM98.4936 280.334C98.159 280.931 98.2265 281.662 98.3037 282.342L100.121 298.347C101.108 307.033 102.4 316.393 108.471 322.682C109.483 322.202 108.912 320.681 108.274 319.76C103.356 312.663 102.409 303.64 101.611 295.043C101.144 290.004 100.676 284.965 100.209 279.925C99.7388 279.428 98.8282 279.738 98.4936 280.334ZM422.22 313.12C438.899 313.532 455.578 313.943 472.257 314.355C474.81 314.418 477.37 314.482 479.895 314.861C479.368 316.685 476.971 317.028 475.072 317.01C458.346 316.852 441.565 315.817 424.929 317.556C423.507 317.704 421.971 317.851 420.737 317.129C419.503 316.406 418.95 314.425 420.085 313.554C420.673 313.103 421.479 313.102 422.22 313.12ZM376.394 309.843C376.762 309.963 377.137 310.09 377.437 310.334C378.434 311.146 378.063 312.88 377.043 313.663C376.024 314.445 374.649 314.536 373.364 314.567C372.026 314.6 370.466 314.495 369.704 313.395C368.747 312.014 369.884 309.971 371.468 309.411C373.052 308.851 374.798 309.32 376.394 309.843ZM388.589 306.472C390.145 306.64 391.658 307.185 392.963 308.048C393.961 308.707 393.762 310.363 392.854 311.141C391.947 311.919 390.651 312.028 389.456 311.985C388.248 311.941 386.987 311.758 386.009 311.046C385.032 310.334 384.45 308.96 384.974 307.87C385.572 306.627 387.217 306.324 388.589 306.472ZM220.566 268.409C219.658 281.499 219.251 294.625 219.346 307.746C219.35 308.301 219.728 309.089 220.202 308.801C221.206 297.771 221.699 286.695 221.678 275.619C221.674 273.166 221.624 270.623 220.566 268.409ZM202.736 301.991C204.167 302.099 205.43 302.931 206.596 303.767C206.955 304.024 207.325 304.299 207.525 304.693C207.941 305.508 207.443 306.558 206.661 307.035C205.88 307.512 204.913 307.549 203.999 307.506C201.919 307.409 199.304 306.278 199.537 304.208C199.697 302.782 201.305 301.883 202.736 301.991ZM392.054 293.173C393.447 293.745 394.88 295.238 394.16 296.56C393.673 297.455 392.486 297.649 391.467 297.659C390.284 297.671 389.1 297.574 387.934 297.371C386.294 297.085 386.043 294.505 387.316 293.433C388.589 292.361 390.514 292.541 392.054 293.173ZM554.355 267.559C554.929 268.52 554.939 269.703 554.932 270.822C554.883 278.743 554.835 286.665 554.786 294.586C554.78 295.548 554.651 296.714 553.778 297.118C553.023 297.467 552.093 296.977 551.673 296.259C551.253 295.541 551.215 294.67 551.201 293.839C551.079 286.767 551.867 279.526 549.864 272.743C549.269 270.727 548.557 268.21 550.113 266.798C551.33 265.694 553.512 266.149 554.355 267.559ZM350.699 266.641C344.695 270.367 338.379 274.198 331.33 274.706C330.048 274.798 329.471 276.33 329.218 277.59C328.079 283.261 327.451 289.034 327.343 294.816C327.337 295.17 327.34 295.55 327.544 295.838C327.869 296.297 328.532 296.316 329.093 296.287C334.592 295.999 340.166 295.425 345.272 293.366C350.379 291.307 355.025 287.578 357.106 282.481C359.186 277.383 358.186 270.881 353.936 267.381C353.022 266.628 351.706 266.017 350.699 266.641ZM304.73 288.939C306.659 289.445 308.588 289.952 310.517 290.458C311.238 290.648 312.04 290.899 312.385 291.56C312.791 292.338 312.318 293.342 311.584 293.823C310.849 294.304 309.935 294.395 309.061 294.472C307.674 294.596 306.246 294.715 304.915 294.306C303.585 293.896 302.359 292.823 302.207 291.439C302.055 290.055 303.384 288.585 304.73 288.939ZM37.1151 183.378C44.3353 186.302 49.77 192.628 53.1408 199.651C56.5115 206.673 58.0464 214.417 59.384 222.091C61.5979 234.793 63.361 247.758 61.7467 260.549C60.1324 273.341 54.7852 286.096 44.8723 294.34C52.0932 294.726 60.7149 294.44 64.635 288.364C66.3943 285.637 70.1806 284.43 73.1934 285.636C71.2993 283.998 72.729 280.949 74.1347 278.877C79.8944 270.388 83.8464 260.631 85.2586 250.47C87.9968 230.768 81.1124 210.8 70.8972 193.731C64.2694 182.657 48.8098 177.919 37.1151 183.378ZM208.312 285.44C209.802 286.026 209.455 288.488 208.063 289.279C206.67 290.07 204.935 289.714 203.383 289.32C202.659 289.135 201.891 288.92 201.4 288.358C200.252 287.045 201.569 284.826 203.268 284.434C204.966 284.043 206.69 284.801 208.312 285.44ZM261.876 190.63C255.501 190.743 248.81 191.52 243.605 195.204C241.884 196.422 240.321 198.017 239.692 200.029C239.064 202.042 239.593 204.515 241.339 205.697C245.752 208.686 247.55 214.277 248.377 219.542C249.204 224.806 249.403 230.319 251.802 235.078C253.039 237.532 254.813 239.673 256.674 241.696C266.761 252.664 279.919 260.778 294.248 264.867C296.767 265.586 299.972 267.142 299.44 269.707C278.825 265.383 260.026 252.943 247.988 235.657C244.33 246.891 237.115 256.938 227.638 263.992C246.124 279.724 270.047 288.941 294.31 289.679C295.409 289.713 296.652 289.671 297.394 288.859C297.88 288.327 298.032 287.58 298.164 286.871C301.598 268.404 304.018 249.748 305.41 231.016C305.886 224.607 306.235 218.092 304.849 211.818C303.464 205.543 300.122 199.443 294.658 196.061C291.291 193.977 287.35 193.042 283.452 192.346C276.338 191.077 269.101 190.502 261.876 190.63ZM388.546 280.505C390.218 280.506 392.326 280.995 392.62 282.64C392.912 284.28 391.044 285.502 389.391 285.713C388.182 285.867 386.869 285.72 385.91 284.969C384.951 284.217 384.505 282.744 385.171 281.723C385.854 280.677 387.297 280.504 388.546 280.505ZM512.051 247.574C508.983 259.458 507.192 271.63 505.407 283.774C505.318 284.378 505.267 285.093 505.723 285.499C510.505 279.557 514.892 273.298 518.846 266.775C519.236 266.132 519.619 265.29 519.182 264.677C518.191 263.292 517.201 261.907 516.21 260.522C515.475 259.495 514.717 258.14 515.364 257.055C515.889 256.172 517.066 255.986 518.089 255.891L526.491 255.118C526.4 254.597 526.083 254.149 525.775 253.719C523.526 250.589 521.072 247.297 517.47 245.924C515.474 245.163 512.585 245.505 512.051 247.574ZM122.919 124.627C116.777 125.658 110.124 127.434 106.56 132.541C104.565 135.4 103.831 138.929 103.245 142.365C100.94 155.881 100.22 169.666 101.105 183.348C127.583 171.029 158.564 168.689 186.592 176.891C188.969 177.587 191.911 179.695 190.663 181.834C169.638 174.058 146.219 172.898 124.529 178.559C117.51 180.391 110.689 182.91 103.711 184.889C93.3395 187.83 82.6281 189.568 71.8593 190.059C91.472 216.688 94.01 254.818 78.0995 283.812C87.9987 281.939 97.3002 277.779 106.428 273.514C120.055 267.145 133.624 260.429 148.1 256.341C162.577 252.253 178.228 250.916 192.587 255.398C194.267 255.922 195.192 253.498 195.26 251.74L198.371 170.218C198.843 157.868 198.882 144.213 190.797 134.866C183.643 126.595 171.976 124.008 161.08 123.078C148.362 121.992 135.507 122.514 122.919 124.627ZM312.619 275.935C313.021 276.198 313.436 276.529 313.53 276.999C313.721 277.955 312.558 278.563 311.621 278.829C310.26 279.215 308.857 279.602 307.45 279.454C306.043 279.306 304.611 278.497 304.148 277.16C303.686 275.823 304.616 274.068 306.03 274.042C308.349 273.999 310.677 274.668 312.619 275.935ZM512.339 224.638C507.217 227.51 501.098 228.559 495.312 227.558C496.052 229.621 499.297 230.341 499.313 232.534C499.323 233.869 498.065 234.809 497.35 235.936C496.8 236.804 496.562 237.827 496.343 238.831C494.281 248.271 493.097 257.902 492.812 267.56C492.763 269.224 493.177 271.422 494.832 271.603C498.26 271.979 501.488 273.901 503.452 276.735C505.061 266.609 506.671 256.483 508.28 246.357C508.653 244.007 508.967 241.383 507.59 239.442C505.696 236.773 507.345 233.116 509.006 230.296L512.339 224.638ZM207.371 268.406C209.12 268.755 211.109 270.265 210.446 271.92C210.038 272.94 208.806 273.352 207.709 273.41C206.613 273.469 205.472 273.306 204.444 273.696C203.236 274.154 201.812 273.083 201.665 271.799C201.517 270.515 202.41 269.268 203.573 268.704C204.736 268.14 206.104 268.153 207.371 268.406ZM388.525 266.842C389.627 266.995 390.789 267.237 391.591 268.008C392.393 268.78 392.614 270.247 391.76 270.96C391.478 271.196 391.122 271.321 390.774 271.439C389.26 271.957 387.64 272.463 386.087 272.079C384.534 271.695 383.184 270.047 383.721 268.54C384.34 266.802 386.697 266.59 388.525 266.842ZM488.848 246.025C487.681 246.306 486.83 247.28 486.061 248.202L481.426 253.752C480.52 254.836 482.114 256.348 483.522 256.466C484.93 256.584 486.575 256.253 487.577 257.249C488.627 258.293 488.194 260.113 487.335 261.318C486.475 262.523 485.256 263.508 484.736 264.894C483.959 266.966 485.245 269.563 487.364 270.202C488.515 270.548 490.13 270.015 490.14 268.813C490.2 261.787 490.61 254.764 491.37 247.779C491.5 246.586 490.015 245.744 488.848 246.025ZM253.683 249.514C254.571 250.104 255.145 251.048 255.737 251.935C260.822 259.548 269.326 264.781 278.414 265.887C280.516 266.143 282.996 266.399 284.05 268.235C282.07 270.196 278.843 269.957 276.129 269.326C266.507 267.087 257.69 261.528 251.523 253.811C250.539 252.581 249.641 250.709 250.738 249.578C251.48 248.813 252.795 248.924 253.683 249.514ZM483.85 215.872C477.056 217.541 470.27 219.898 464.763 224.214C459.256 228.53 455.16 235.088 455.203 242.085C455.258 250.958 450.898 259.752 443.802 265.08L455.749 266.486C457.148 266.65 458.716 266.769 459.811 265.884C461.414 264.588 461.004 262.101 460.599 260.081C460.194 258.061 460.284 255.391 462.205 254.648C464.592 253.725 466.567 257.036 466.205 259.569C465.844 262.102 464.374 264.54 464.834 267.057C470.492 267.86 476.168 268.536 481.856 269.085C480.725 268.157 480.601 266.396 481.174 265.049C481.746 263.701 482.858 262.67 483.938 261.682C485.089 260.63 483.43 258.775 481.879 258.608C480.329 258.441 478.505 258.814 477.411 257.702C476.052 256.319 477.072 254 478.231 252.445C480.482 249.428 483.272 245.792 481.823 242.318C478.291 233.847 479.068 223.705 483.85 215.872ZM223.268 192.726C222.321 215.915 222.451 239.148 223.657 262.326C232.515 257.519 238.987 249.062 243.001 239.817C245.45 234.177 247.089 227.961 246.11 221.891C245.38 217.364 243.237 213.182 240.745 209.333C236.325 202.505 230.554 196.342 223.268 192.726ZM428.671 181.616C431.852 181.03 434.284 184.957 433.742 188.146C433.2 191.335 430.882 193.87 429.04 196.529C426.495 200.203 424.754 204.362 423.032 208.487C418.935 218.3 417.34 229.146 418.439 239.723C419.086 245.95 420.793 252.346 425.004 256.98C429.214 261.613 436.432 263.93 441.98 261.03C446.746 258.539 449.123 253.048 450.216 247.783C451.309 242.518 451.503 237.007 453.568 232.042C457.377 222.882 466.77 217.349 476.062 213.875C462.094 211.977 449.456 202.245 444.053 189.225C442.504 185.491 441.341 181.281 438.127 178.83C434.912 176.378 428.86 177.578 428.671 181.616ZM310.602 256.317C311.584 256.505 312.548 256.791 313.475 257.168C315.004 257.79 316.646 259.51 315.662 260.835C315.125 261.56 314.093 261.647 313.192 261.67C311.548 261.712 309.775 261.717 308.432 260.767C307.09 259.818 306.625 257.521 307.979 256.588C308.723 256.076 309.715 256.146 310.602 256.317ZM384.654 252.402C385.984 252.515 387.308 252.7 388.619 252.955C389.267 253.081 389.966 253.257 390.373 253.777C390.991 254.565 390.602 255.8 389.821 256.426C389.04 257.052 388.001 257.228 387.012 257.383C385.501 257.619 383.889 257.843 382.496 257.214C381.102 256.585 380.15 254.743 381.002 253.473C381.745 252.365 383.325 252.29 384.654 252.402ZM4.48604 245.249C3.35969 245.237 2.97002 246.741 3.00419 247.867C3.10238 251.102 3.75732 254.32 4.93162 257.337C5.25851 257.67 5.63805 256.974 5.59239 256.51L4.48604 245.249ZM220.927 253.58C220.224 253.961 219.956 254.971 220.378 255.65L220.395 255.675L220.38 255.692C220.361 255.714 220.341 255.741 220.319 255.773C220.037 256.201 220.433 256.88 220.945 256.844C221.291 255.792 221.284 254.628 220.927 253.58ZM206.287 249C207.811 249.337 209.465 250.602 209.086 252.116C208.835 253.12 207.779 253.708 206.77 253.933C205.76 254.157 204.693 254.142 203.729 254.517C202.502 254.993 201.025 254.004 200.773 252.713C200.52 251.422 201.311 250.074 202.452 249.42C203.594 248.765 205.002 248.716 206.287 249ZM215.107 35.4005C215.196 105.208 216.8 175.014 219.917 244.752L220.245 251.962L220.294 249.643C220.384 244.222 220.305 238.8 220.225 233.379C219.295 169.836 218.364 106.294 217.434 42.7513C217.395 40.0908 217.185 37.0626 215.107 35.4005ZM314.954 238.792C315.809 239.048 316.667 239.436 317.221 240.136C317.776 240.835 317.935 241.909 317.386 242.614C316.855 243.295 315.893 243.424 315.032 243.501L311.359 243.827C310.759 243.88 310.114 243.924 309.592 243.622C309.17 243.379 308.891 242.934 308.763 242.464C308.377 241.05 309.334 239.515 310.657 238.885C311.98 238.255 313.55 238.372 314.954 238.792ZM19.1182 184.148C15.2997 187.9 13.3136 193.086 11.4786 198.115C6.36524 212.128 1.50603 227.002 4.02902 241.704C4.80915 241.847 5.18101 240.786 5.23885 239.995C6.27606 225.811 9.11035 211.76 13.6525 198.284C15.3856 193.141 17.4701 187.92 21.32 184.096C21.2673 183.164 19.7835 183.494 19.1182 184.148ZM488.548 214.803C487.882 214.966 487.451 215.594 487.103 216.185C483.817 221.761 482.27 228.345 482.729 234.8C482.919 237.466 483.776 240.536 486.265 241.508C488.289 239.565 490.313 237.622 492.337 235.679C492.658 235.37 492.987 235.05 493.165 234.642C493.609 233.62 492.974 232.479 492.391 231.529C489.507 226.836 487.34 220.887 489.743 215.93C490.042 215.313 489.214 214.639 488.548 214.803ZM530.602 208.787C530.279 208.955 530.03 209.234 529.788 209.507C523.814 216.264 518.044 223.201 512.488 230.307C511.328 231.79 510.118 233.464 510.232 235.344C510.333 237.016 511.509 238.472 512.934 239.351C514.359 240.23 516.019 240.631 517.648 241.019C518.084 241.123 518.557 241.224 518.967 241.042C519.344 240.875 519.583 240.505 519.801 240.155C523.202 234.671 526.651 229.079 528.257 222.829C528.6 221.496 529.755 220.565 530.679 219.545C532.493 217.541 533.557 214.872 533.617 212.17C533.638 211.255 533.531 210.289 533.001 209.543C532.472 208.796 531.413 208.363 530.602 208.787ZM385.096 235.534C385.919 235.738 386.827 236.05 387.196 236.813C387.847 238.159 386.32 239.562 384.892 240.004C383.785 240.346 382.551 240.465 381.49 240.001C380.428 239.537 379.622 238.366 379.863 237.232C380.291 235.221 383.1 235.039 385.096 235.534ZM207.649 232.596C208.038 232.944 208.398 233.354 208.546 233.854C208.842 234.861 208.139 235.972 207.174 236.386C206.209 236.8 205.083 236.64 204.111 236.243C203.087 235.826 202.09 235.028 201.96 233.93C201.811 232.674 202.948 231.519 204.2 231.338C205.451 231.156 206.708 231.752 207.649 232.596ZM318.375 221.558C319.374 221.965 319.478 223.475 318.789 224.305C318.101 225.134 316.952 225.41 315.878 225.501C314.804 225.591 313.693 225.552 312.689 225.945C311.146 226.549 309.469 224.685 309.836 223.07C310.203 221.455 311.938 220.451 313.592 220.374C315.247 220.297 316.842 220.933 318.375 221.558ZM383.385 219.129C384.8 219.198 386.2 219.57 387.463 220.212C388.011 220.49 388.578 220.875 388.734 221.47C389.055 222.695 387.519 223.535 386.275 223.774C385.173 223.986 384.055 224.112 382.933 224.151C381.549 224.199 379.878 223.932 379.327 222.661C378.898 221.674 379.42 220.463 380.297 219.84C381.174 219.216 382.31 219.076 383.385 219.129ZM474.643 128.72C466.384 130.053 458.089 131.157 449.77 132.032C443.744 132.665 438.068 136.084 434.69 141.115C433.996 142.149 433.518 143.798 434.59 144.432C437.622 140.933 441.738 138.388 446.223 137.238C447.826 136.827 449.58 136.603 451.092 137.276C452.603 137.949 453.683 139.804 453 141.31C451.949 143.624 448.599 142.977 446.063 142.822C439.01 142.392 432.91 150.464 435.25 157.132C436.892 150.767 445.979 148.003 451.073 152.159C456.166 156.314 455.543 165.44 450.096 169.119C448.296 170.334 445.984 171.182 445.163 173.193C444.458 174.917 445.136 176.864 445.812 178.599C446.872 181.323 447.933 184.046 448.993 186.77C451.216 192.481 453.579 198.4 458.079 202.559C461.539 205.757 466.027 207.66 470.605 208.776C487.111 212.799 505.693 206.397 516.218 193.06C517.062 191.991 518.987 193.005 519.137 194.358C519.287 195.711 518.362 196.928 517.447 197.936C512.734 203.123 506.794 207.188 500.253 209.701C497.16 210.889 493.486 212.175 492.535 215.348C491.748 217.976 493.404 220.88 495.782 222.247C498.16 223.615 501.059 223.731 503.786 223.432C509.224 222.837 514.487 220.709 518.809 217.355C520.119 216.339 521.388 215.151 521.97 213.598C522.521 212.127 522.396 210.501 522.262 208.936L522.146 207.591C521.636 201.757 520.975 195.854 518.597 190.519C517.452 187.952 515.922 185.547 515.079 182.866C514.04 179.56 514.103 176.014 513.405 172.619C512.707 169.225 510.939 165.699 507.707 164.448C508.561 162.279 510.69 160.915 512.07 159.036C513.449 157.157 513.651 153.874 511.48 153.026C510.442 152.62 509.26 152.97 508.271 153.483C504.102 155.649 501.852 160.947 503.191 165.451C504.064 168.39 499.421 170.362 496.921 168.586C494.421 166.811 493.805 163.431 493.312 160.405C491.402 148.674 487.566 136.028 477.548 129.633C476.672 129.075 475.669 128.554 474.643 128.72ZM206.774 211.93C208.091 212.357 209.404 213.541 209.13 214.898C208.871 216.181 207.394 216.782 206.104 217.003C204.274 217.316 201.887 216.957 201.372 215.173C200.883 213.475 202.66 211.848 204.417 211.662C205.209 211.578 206.016 211.684 206.774 211.93ZM418.011 187.497C416.783 188.661 416.185 190.322 415.627 191.919C414.368 195.523 413.092 199.231 413.238 203.045C413.331 205.501 411.906 207.712 410.89 209.949C409.873 212.186 409.321 215.051 410.915 216.921C414.722 213.72 415.636 208.331 416.473 203.428C417.474 197.566 418.835 191.49 422.626 186.908C421.299 185.858 419.239 186.333 418.011 187.497ZM317.692 203.833C318.672 204.148 319.781 204.778 319.793 205.808C319.808 207.059 318.267 207.635 317.035 207.861C316.418 207.974 315.801 208.087 315.183 208.2C313.61 208.487 311.924 208.764 310.461 208.116C308.999 207.468 308.025 205.494 308.98 204.211C309.597 203.381 310.733 203.155 311.765 203.091C313.764 202.967 315.786 203.22 317.692 203.833ZM174.624 185.752C176.345 186.575 178.271 188.198 177.634 189.996C159.898 186.13 140.951 188.042 124.346 195.375C116.875 198.674 109.861 203.037 102.128 205.667C99.4827 206.567 96.5946 207.257 93.922 206.441C91.2495 205.625 89.0206 202.79 89.8024 200.107C90.5362 197.589 93.3403 196.392 95.8249 195.551C108.07 191.405 120.529 187.89 133.135 185.022C146.889 181.894 161.899 179.666 174.624 185.752ZM429.279 185.54C428.012 185.535 426.947 186.464 426.115 187.418C424.095 189.732 422.659 192.508 421.591 195.388C420.265 198.966 419.48 202.745 419.272 206.555C422.94 200.247 426.86 194.086 431.022 188.092C431.745 187.052 430.545 185.545 429.279 185.54ZM406.807 196.778C406.46 196.78 406.093 196.793 405.799 196.979C405.139 197.398 405.231 198.376 405.427 199.133C406.048 201.534 406.908 203.873 407.99 206.105C408.64 202.96 409.683 199.897 411.087 197.009C409.667 196.847 408.236 196.77 406.807 196.778ZM128.899 188.672C118.401 191.898 107.903 195.124 97.4057 198.351C96.1517 198.736 94.6966 199.331 94.4296 200.616C95.2831 201.861 96.9087 202.39 98.4167 202.317C99.9248 202.244 101.356 201.665 102.754 201.094C113.404 196.742 124.054 192.391 134.704 188.039C132.802 187.508 130.787 188.091 128.899 188.672ZM239.677 194.56C239.113 195.538 237.94 195.954 237.06 196.661C236.181 197.369 235.665 198.893 236.593 199.535C238.015 198.111 239.437 196.687 240.859 195.264C240.565 194.899 240.138 194.645 239.677 194.56ZM350.439 193.803C358.07 194.598 365.769 195.004 373.413 194.345C375.39 194.175 377.756 194.095 378.929 195.696C377.448 197.205 375.119 197.387 373.006 197.477C365.072 197.817 357.139 198.157 349.205 198.497C347.657 198.563 345.697 198.366 345.195 196.9C344.799 195.747 345.698 194.474 346.826 194.011C347.954 193.548 349.226 193.677 350.439 193.803ZM468.41 185.466C470.256 187.711 470.93 190.871 470.161 193.675C469.972 194.367 469.695 195.046 469.252 195.61C468.092 197.092 465.949 197.53 464.118 197.092C462.288 196.653 460.72 195.488 459.323 194.226C457.883 192.926 456.533 191.444 455.841 189.631C455.15 187.819 455.231 185.613 456.457 184.11C457.467 182.871 459.1 182.276 460.694 182.16C463.594 181.947 466.564 183.22 468.41 185.466ZM211.176 190.687C211.905 191.276 211.783 192.5 211.16 193.2C210.538 193.901 209.589 194.2 208.679 194.427C207.605 194.695 206.476 194.904 205.399 194.648C204.322 194.392 203.313 193.557 203.18 192.458C202.988 190.864 204.657 189.617 206.243 189.366C207.974 189.093 209.812 189.585 211.176 190.687ZM459.961 185.995C459.153 187.041 459.684 188.93 460.995 189.109C462.508 189.315 463.686 190.906 463.442 192.414C463.25 193.598 464.694 194.587 465.84 194.232C466.985 193.876 467.648 192.592 467.622 191.393C467.597 190.194 467.025 189.076 466.376 188.068C465.661 186.956 464.786 185.876 463.579 185.334C462.373 184.793 460.77 184.948 459.961 185.995ZM455.931 78.4988C444.93 80.5138 434.033 85.3188 426.937 93.9636C419.842 102.608 417.388 115.546 422.935 125.257C424.895 128.689 427.888 131.682 431.651 132.889C435.414 134.097 439.965 133.208 442.475 130.156C445.323 126.694 451.073 130.015 455.359 128.7C461.287 126.883 467.449 125.828 473.645 125.57C475.114 125.509 476.629 125.5 478 126.032C479.488 126.609 480.664 127.765 481.795 128.892C485.716 132.799 489.718 136.82 492.04 141.845C495.722 149.815 494.811 159.532 499.462 166.978C500.005 162.309 500.549 157.64 501.093 152.971C501.294 151.238 501.519 149.439 502.455 147.968C503.392 146.496 505.264 145.464 506.903 146.059C509.795 147.109 512.806 148.238 514.881 150.509C516.957 152.78 517.725 156.566 515.73 158.908C513.802 161.171 515.989 164.442 517.013 167.234C518.787 172.07 516.701 177.596 518.096 182.554C519.251 186.662 522.588 189.729 525.776 192.565C526.708 193.395 527.795 194.279 529.038 194.165C530.078 194.071 530.915 193.295 531.625 192.529C535.862 187.962 538.764 182.171 539.886 176.043C540.339 173.571 539.479 169.968 536.989 170.306C537.669 164.374 543.122 160.333 546.325 155.293C549.779 149.858 550.595 143.174 550.753 136.736C550.911 130.266 550.279 123.234 545.968 118.407C540.787 112.607 530.721 112.174 525.061 117.507C523.65 118.836 521.791 120.593 520.108 119.631C521.427 117.265 522.746 114.898 524.065 112.532C526.215 108.675 528.41 104.679 528.847 100.286C529.71 91.6171 523.111 83.4096 514.95 80.3612C506.79 77.3128 497.577 78.5768 489.391 81.5582C487.34 82.3055 484.916 83.9105 485.472 86.0219C485.795 87.2446 487.033 87.9828 487.669 89.076C488.065 89.7576 488.025 89.9759 487.577 90.5273C487.307 90.8605 486.819 91.8249 486.381 91.6368C481.741 86.2621 476.722 80.6352 469.918 78.6026C465.408 77.2553 460.561 77.6508 455.931 78.4988ZM403.224 189.346C402.644 189.002 401.534 188.777 401.642 189.442C401.956 191.07 403.422 192.281 405.003 192.779C406.585 193.276 408.282 193.193 409.938 193.104C410.585 193.069 411.276 193.019 411.791 192.625C412.223 192.295 412.46 191.777 412.68 191.28C413.057 190.428 413.434 189.576 413.811 188.724C410.734 186.722 406.383 191.218 403.224 189.346ZM314.373 183.785C315.667 183.882 316.952 184.108 318.201 184.458C319.284 184.762 320.528 185.396 320.582 186.519C320.652 187.997 318.729 188.601 317.254 188.729C315.753 188.858 314.252 188.988 312.751 189.118C311.658 189.212 310.421 189.261 309.617 188.513C308.537 187.51 308.973 185.563 310.142 184.665C311.311 183.768 312.903 183.675 314.373 183.785ZM349.473 183.464C356.651 184.425 363.927 184.656 371.152 184.154C372 184.095 372.923 184.045 373.621 184.53C374.319 185.015 374.493 186.264 373.731 186.64C373.5 186.754 373.233 186.766 372.976 186.776C364.241 187.105 355.507 187.435 346.772 187.764C345.976 187.795 345.099 187.799 344.486 187.289C343.39 186.376 344.019 184.424 345.277 183.749C346.534 183.075 348.059 183.274 349.473 183.464ZM419.17 176.349C416.382 176.5 413.544 176.758 410.969 177.84C408.394 178.921 406.084 180.956 405.316 183.641C405.159 184.185 405.102 184.856 405.52 185.239C405.845 185.537 406.335 185.541 406.776 185.524C411.408 185.342 416.021 184.652 420.504 183.471C422.733 182.883 425.419 181.467 425.118 179.182C424.959 177.979 423.921 177.038 422.775 176.64C421.629 176.242 420.382 176.284 419.17 176.349ZM97.4555 176.013C97.0108 178.366 96.9021 180.783 97.1337 183.167C97.7098 183.789 98.468 182.574 98.4193 181.728C98.308 179.795 97.9842 177.875 97.4555 176.013ZM246.618 173.135C262.675 173.86 278.732 174.586 294.79 175.312C296.288 175.38 298.279 175.954 298.191 177.451C296.274 178.682 293.802 178.427 291.54 178.164C277.226 176.496 262.746 176.265 248.386 177.477C247.147 177.582 245.83 177.683 244.724 177.114C243.618 176.545 242.904 175.03 243.622 174.014C244.251 173.125 245.531 173.086 246.618 173.135ZM207.682 171.451C208.388 171.557 209.124 171.742 209.637 172.239C210.81 173.376 210.086 175.537 208.675 176.361C207.264 177.184 205.516 177.069 203.888 176.928C202.102 176.774 201.523 174.094 202.696 172.739C203.869 171.383 205.909 171.183 207.682 171.451ZM264.156 165.511C290.326 166.869 316.495 168.227 342.664 169.584C344.066 169.657 345.921 170.196 345.847 171.598C341.532 172.375 337.063 172.289 332.781 171.345L336.583 174.617C334.771 175.76 332.84 176.94 330.697 176.987C328.555 177.035 326.222 175.455 326.283 173.313C327.367 172.813 328.451 172.313 329.535 171.812C308.395 170.001 287.157 169.34 265.945 169.834C264.721 169.862 263.414 169.873 262.381 169.217C261.347 168.561 260.824 166.965 261.68 166.09C262.292 165.463 263.282 165.466 264.156 165.511ZM433.607 169.011C432.664 169.063 431.864 169.689 431.133 170.287C430.266 170.996 429.4 171.705 428.534 172.414C427.626 173.156 426.643 174.043 426.59 175.214C426.561 175.85 427.045 176.605 427.665 176.462C427.838 176.422 427.988 176.317 428.133 176.214C430.197 174.759 432.261 173.303 434.325 171.847C434.746 171.55 435.196 171.214 435.332 170.717C435.582 169.807 434.55 168.959 433.607 169.011ZM465.709 161.386C465.791 163.509 464.737 165.498 464.362 167.589C463.987 169.68 464.701 172.343 466.768 172.832C467.378 172.977 467.555 173.849 467.211 174.373C466.866 174.896 466.216 175.122 465.599 175.234C463.684 175.582 461.416 174.967 460.536 173.231C460.095 172.362 460.061 171.351 460.036 170.377C459.969 167.768 459.902 165.16 459.835 162.552C459.789 160.769 459.989 158.573 461.621 157.853C463.565 156.996 465.626 159.263 465.709 161.386ZM437.242 173.218C436.865 173.394 436.608 173.802 436.612 174.218L436.518 174.243C436.727 174.707 437.481 174.78 437.775 174.364C438.07 173.947 437.751 173.261 437.242 173.218ZM433.632 159.586C432.766 159.608 431.798 159.765 431.286 160.464C430.738 161.211 430.96 162.307 431.522 163.043C432.085 163.779 432.913 164.252 433.686 164.762C436.942 166.91 439.542 170.038 441.057 173.633C442.088 172.276 443.118 170.92 444.148 169.564C444.918 168.551 445.729 167.392 445.567 166.131C445.45 165.219 444.838 164.453 444.188 163.803C441.434 161.048 437.526 159.487 433.632 159.586ZM101.731 138.603C100.521 138.702 99.8935 140.061 99.513 141.214C98.9332 142.971 98.3535 144.728 97.7738 146.485C97.1404 148.405 96.5025 150.346 96.3287 152.36C96.2136 153.694 96.3047 155.037 96.3959 156.374C96.6807 160.548 96.9654 164.721 97.2502 168.895C97.3052 169.702 97.9192 170.816 98.5865 170.359C98.3094 159.698 99.3685 149.003 101.731 138.603ZM444.049 153.95C442.951 154.368 441.784 155.104 441.625 156.269C441.466 157.434 443.181 158.515 443.846 157.545C444.695 156.308 446.817 156.954 447.518 158.28C448.22 159.606 448.014 161.201 448.004 162.702C447.993 164.202 448.338 165.923 449.646 166.658C449.865 164.651 450.085 162.644 450.304 160.637C450.575 158.16 450.559 155.087 448.381 153.874C447.078 153.148 445.444 153.419 444.049 153.95ZM479.327 152.816C481.11 152.896 483.014 153.517 483.989 155.012C484.965 156.507 484.447 158.956 482.729 159.437C480.276 160.124 477.983 156.668 475.585 157.526C474.086 158.063 473.16 160.172 471.596 159.869C470.627 159.682 470.09 158.52 470.283 157.551C470.476 156.583 471.199 155.808 471.973 155.194C474.036 153.56 476.698 152.699 479.327 152.816ZM206.268 151.051C207.987 151.329 209.67 153.211 208.764 154.697C208.51 155.115 208.096 155.412 207.663 155.639C206.591 156.203 205.269 156.395 204.162 155.903C203.055 155.411 202.277 154.134 202.576 152.96C202.953 151.486 204.766 150.808 206.268 151.051ZM482.123 141.265C483.306 142.389 484.227 144.508 482.903 145.462C481.502 146.472 479.824 144.767 478.484 143.679C476.986 142.462 474.957 141.926 473.053 142.242C471.836 142.445 470.689 142.973 469.468 143.151C468.247 143.328 466.826 143.048 466.16 142.009C465.461 140.92 465.905 139.378 466.867 138.511C467.828 137.644 469.164 137.327 470.453 137.21C474.681 136.823 479.046 138.34 482.123 141.265ZM206.209 137.818C207.264 138.436 207.833 139.896 207.246 140.969C206.469 142.387 204.435 142.368 202.866 141.978C202.301 141.838 201.706 141.652 201.332 141.206C200.439 140.141 201.44 138.47 202.687 137.856C203.784 137.314 205.153 137.199 206.209 137.818Z" fill="#00160A"/>
<path fill-rule="evenodd" clip-rule="evenodd" d="M64.5398 280.446C64.6841 280.846 64.8174 281.294 64.6524 281.687C64.3565 282.391 63.3931 282.418 62.6294 282.412C57.2582 282.369 52.2646 286.982 51.8832 292.34C51.8429 292.906 51.065 293.165 50.5617 292.903C50.0584 292.641 49.7993 292.075 49.6253 291.535C48.6439 288.49 49.2762 285.077 50.8406 282.287C52.4049 279.497 54.8256 277.271 57.4553 275.45C58.4755 274.743 59.7457 274.065 60.8999 274.521C61.6625 274.822 62.1607 275.549 62.5759 276.256C63.358 277.588 64.0164 278.993 64.5398 280.446ZM61.42 279.836C60.9472 278.39 59.0286 277.871 57.5954 278.382C56.1621 278.893 55.1172 280.111 54.1419 281.279C53.2173 282.386 52.2499 283.594 52.1409 285.033C54.6124 282.415 57.8967 280.576 61.42 279.836Z" fill="#FF304F"/>
</svg>
