<svg width="561" height="562" viewBox="0 0 561 562" fill="none" xmlns="http://www.w3.org/2000/svg">
<g clip-path="url(#clip0)">
<path fill-rule="evenodd" clip-rule="evenodd" d="M8.76389 463.039C7.40862 456.714 5.92244 450.417 4.62464 444.08C3.99702 441.015 3.63825 437.892 3.21139 434.788C2.41537 428.998 1.62872 423.206 0.901642 417.408C0.645924 415.367 0.462632 413.306 0.439586 411.251C0.252981 394.61 -0.192933 377.963 0.093471 361.33C0.226113 353.628 1.80032 345.949 2.74416 338.262C3.98564 328.151 6.59366 318.361 9.60276 308.674C13.9334 294.733 18.3183 280.809 22.6889 266.879C25.0369 259.397 27.5585 251.965 29.6925 244.42C30.6773 240.938 31.0754 237.258 31.456 233.636C31.8177 230.194 32.2045 226.673 31.8792 223.256C31.2707 216.862 30.2236 210.506 29.229 204.156C28.38 198.735 27.3874 193.336 26.3892 187.941C24.8386 179.561 24.3807 171.104 24.5473 162.601C24.6787 155.893 24.4748 149.15 25.0962 142.488C25.9943 132.858 27.3606 123.208 31.1078 114.221C33.9751 107.344 37.1526 100.549 40.8063 94.0752C44.4158 87.6794 48.7013 81.664 52.8736 75.612C55.4186 71.9203 58.1151 68.2957 61.0906 64.9597C65.6746 59.8203 70.4136 54.803 75.345 50.0074C83.0468 42.5181 91.6743 36.2048 100.844 30.6991C109.497 25.5032 118.655 21.385 128.272 18.3698C134.855 16.306 141.494 14.4226 148.046 12.2623C152.733 10.7168 157.225 8.50713 161.969 7.20638C167.854 5.59219 173.869 4.35251 179.899 3.42674C186.089 2.47655 192.359 2.04534 198.602 1.49084C203.182 1.08414 207.772 0.746859 212.364 0.555532C218.481 0.300694 224.603 0.148736 230.724 0.078947C237.656 -9.12949e-05 244.592 -0.0578439 251.522 0.0992269C256.81 0.219085 262.095 0.611001 267.371 1.02093C274.465 1.57207 281.554 2.19594 288.633 2.90472C293.875 3.42957 299.123 3.98964 304.327 4.80367C311.413 5.91204 318.478 7.17749 325.518 8.55619C335.449 10.501 345.421 12.3073 355.241 14.7337C365.614 17.297 375.991 20.0614 385.731 24.6496C394.49 28.7753 403.264 32.904 411.784 37.505C419.545 41.6967 426.96 46.5465 434.553 51.0611C437.467 52.7939 440.5 54.3242 443.391 56.094C445.329 57.2807 447.283 58.5414 448.939 60.0881C456.465 67.1145 463.923 74.2178 471.335 81.3687C474.909 84.8174 478.327 88.4329 481.817 91.9729C485.733 95.9465 489.837 99.7519 493.52 103.938C498.196 109.251 502.485 114.913 507.025 120.352C513.132 127.667 517.228 136.197 521.656 144.555C524.664 150.229 526.534 156.32 528.731 162.293C530.232 166.375 531.951 170.487 532.635 174.741C533.68 181.234 537.47 186.391 539.744 192.253C542.074 198.261 543.934 204.459 545.912 210.603C547.604 215.859 549.361 221.106 550.738 226.45C552.006 231.37 552.818 236.411 553.808 241.403C554.57 245.244 555.367 249.08 556.017 252.941C556.477 255.679 556.711 258.456 557.061 261.214C557.673 266.054 558.334 270.887 558.901 275.731C559.281 278.965 559.623 282.209 559.82 285.458C560.068 289.544 560.158 293.641 560.304 297.733C560.467 302.295 560.915 306.872 560.71 311.417C560.228 322.13 542.847 365.198 535.829 375.764C531.76 381.891 527.839 388.122 523.664 394.173C518.194 402.101 512.6 409.943 506.948 417.74C500.182 427.074 493.382 436.387 486.43 445.579C483.145 449.922 479.543 454.028 475.949 458.118C472.943 461.536 469.928 464.986 466.584 468.048C460.054 474.024 453.321 479.776 446.615 485.554C437.777 493.167 428.08 499.606 418.06 505.401C409.883 510.129 401.226 514.109 392.51 517.751C379.368 523.244 366.013 528.218 352.704 533.289C342.533 537.166 332.358 541.058 322.059 544.56C313.349 547.522 304.525 550.197 295.628 552.511C288.095 554.47 280.407 555.845 272.748 557.259C267.384 558.248 261.967 558.981 256.551 559.618C251.271 560.239 245.964 560.622 240.665 561.05C237.874 561.276 235.075 561.46 232.276 561.519C222.987 561.715 213.698 561.921 204.408 561.972C199.834 561.997 195.248 561.842 190.688 561.497C184.285 561.014 177.872 560.488 171.517 559.596C164.267 558.579 157.079 557.106 149.853 555.897C143.908 554.902 137.919 554.149 131.997 553.03C121.832 551.108 111.654 549.198 101.574 546.875C93.5044 545.017 85.471 542.867 77.6015 540.283C65.0818 536.171 53.3509 530.284 42.7587 522.29C39.2075 519.611 35.6954 516.744 32.708 513.456C25.5899 505.62 19.8664 496.78 15.7292 486.702C12.5629 478.916 10.4774 471.037 8.76389 463.039Z" fill="#775ADA"/>
<path d="M308.428 480.113C307.499 485.056 307.13 489.974 305.502 494.418C303.39 500.184 298.502 503.668 292.857 505.441C286.656 507.389 280.27 508.754 273.923 510.184C271.815 510.658 269.58 510.568 267.401 510.701C259.555 511.181 251.706 511.627 243.861 512.124C239.581 512.395 235.308 512.8 231.027 513.041C226.921 513.273 222.805 513.539 218.698 513.475C217.787 513.461 212.09 514.297 204.119 514.865C202.572 514.976 204.98 523.459 202.198 524.349C195.997 526.332 180.81 525.775 178.16 521.568C175.511 517.36 176.451 515.588 173.513 514.372C159.149 508.424 144.352 507.035 140.017 494.418C137.13 486.02 142.623 466.126 141.026 450.853C136.93 411.689 128.784 367.99 128.518 367.766C128.545 367.736 119.843 368.49 119.195 365.254C111.155 325.101 107.488 272.183 128.518 258.838C141.181 250.803 165.304 242.55 192.045 235.809C195.933 234.83 198.227 229.035 202.198 228.124C203.086 227.921 205.803 222.686 208.133 217.428C210.48 212.132 212.453 206.812 217.271 206.58C227.174 206.101 244.257 193.232 255.846 197.248C266.459 200.924 271.84 221.625 275.938 219.118C280.068 216.591 283.723 220.978 289.381 220.978C329.876 220.978 360.375 299.03 364.615 318.235C357.528 328.612 336.537 328.612 316.702 334.761C313.42 330.653 306.825 318.335 304.696 311.405C302.503 304.274 301.747 320.445 301.594 326.176C301.395 333.587 302.05 341.026 302.411 348.449C302.648 353.343 303.043 358.227 303.319 363.119C303.804 371.706 304.316 380.292 304.696 388.885C304.962 394.932 304.846 401.001 305.231 407.038C305.624 413.224 306.436 419.382 307.029 425.555C307.377 429.186 307.696 432.821 307.951 436.459C308.167 439.526 308.471 442.608 308.385 445.673C308.22 451.613 307.608 457.545 307.582 463.482C307.569 466.582 308.593 469.675 308.804 472.794C308.963 475.136 308.573 477.515 308.428 480.113Z" fill="white"/>
<path d="M373.179 109.76C370.568 107.25 368.971 104.115 366.918 101.325C366.858 101.243 366.799 101.156 366.758 101.065C365.151 97.5272 363.581 93.9916 362.818 90.125C362.371 87.8673 362.391 85.6668 362.729 83.4276C362.897 82.3139 362.968 81.1826 363.186 80.0804C363.855 76.6975 365.481 73.7512 367.389 70.9493C367.963 70.1067 368.622 69.3222 369.181 68.4689C371.274 65.2738 374.227 63.2167 377.666 61.7832C379.903 60.8506 382.201 60.0642 384.39 59.0095C384.66 58.8796 384.957 58.7635 385.25 58.7353C388.872 58.3877 392.493 58.0264 396.121 57.733C399.658 57.4462 403.201 57.5257 406.741 57.7572C408.659 57.8821 410.585 57.9363 412.495 58.1329C416.639 58.5601 420.645 59.5092 424.492 61.2158C427.179 62.4079 429.888 63.5227 432.465 64.9649C435.425 66.6219 437.936 68.8225 440.314 71.2127C441.402 72.3071 442.235 73.5895 442.979 74.9376C443.425 75.7425 443.818 76.5851 444.339 77.3366C447.365 81.7075 448.018 86.5744 447.284 91.7202C447.111 92.9332 446.727 94.1175 446.827 95.3665C446.23 97.859 445.649 100.362 444.185 102.521C443.036 104.214 441.791 105.828 440.241 107.177C439.704 107.644 439.164 108.115 438.679 108.636C437.627 109.766 436.344 110.576 435.128 111.494C432.509 113.469 429.591 114.864 426.705 116.331C426.347 116.513 425.966 116.659 425.582 116.776C424.036 117.254 422.485 117.715 420.935 118.179C419.189 118.701 417.452 119.255 415.693 119.729C412.94 120.473 410.085 120.484 407.281 120.861C406.885 120.915 406.465 120.886 406.07 120.817C403.077 120.302 400.044 120.145 397.037 119.764C396.537 119.702 396.046 119.569 395.553 119.465C392.185 118.754 388.798 118.123 385.531 116.992C384.713 116.71 383.974 116.774 383.212 117.228C382.341 117.746 381.417 118.17 380.507 118.619C378.584 119.566 376.91 120.898 375.178 122.141C374.686 122.494 374.17 122.815 373.646 123.117C373.241 123.35 372.548 122.999 372.442 122.512C372.311 121.914 372.182 121.323 372.356 120.694C373.329 117.189 373.295 113.604 373.179 109.76Z" fill="white"/>
<path fill-rule="evenodd" clip-rule="evenodd" d="M203.514 225.211C203.514 225.211 207.922 219.087 209.443 215.895C210.965 212.703 212.397 206.579 212.397 206.579C212.397 206.579 243.852 251.768 238.875 252.356C228.925 253.532 203.514 225.211 203.514 225.211Z" fill="#E7EAEE"/>
<path d="M339.159 369.865C334.179 361.832 323.597 343.106 318.723 335.196C318.611 335.013 341.303 313.842 361.503 319.202C363.508 319.734 367.365 327.666 369.256 328.612C372.776 330.372 372.147 321.769 378.884 309.647C389.493 290.559 409.033 262.054 416.703 245.037C419.821 238.121 417.617 232.73 417.288 231.22C416.071 225.634 413.214 221.076 409.09 217.249C406.414 214.766 406.308 209.225 409.354 207.698C411.603 206.571 414.139 206.214 416.703 207.515C419.633 208.999 422.549 210.404 424.564 213.172C424.837 213.546 425.314 213.765 425.697 214.056C425.881 213.584 426.084 213.119 426.247 212.64C427.87 207.832 429.364 202.975 431.144 198.228C432.716 194.032 434.458 189.884 436.436 185.873C437.088 184.551 438.732 182.849 439.887 182.876C441.588 182.914 442.696 184.777 442.952 186.731C443.087 187.766 443.232 188.801 443.424 189.827C443.509 190.278 443.724 190.703 443.88 191.14C444.188 190.766 444.473 190.37 444.808 190.022C445.818 188.972 446.714 187.735 447.9 186.955C449.529 185.883 451.385 187.074 451.255 189.132C451.073 191.975 450.855 194.865 450.179 197.615C448.963 202.559 447.391 207.414 445.986 212.311C445.902 212.602 445.984 212.943 445.987 213.261C446.303 213.088 446.776 212.998 446.911 212.731C447.795 210.99 448.742 209.262 449.412 207.434C450.495 204.478 452.134 201.947 454.506 199.949C455.057 199.483 455.952 199.438 456.689 199.199C456.902 199.894 457.435 200.676 457.277 201.27C456.136 205.56 455.148 209.928 453.559 214.053C449.555 224.444 445.279 234.726 441.075 245.037C438.644 250.995 435.823 256.812 433.76 262.896C431.657 269.1 430.432 275.604 428.524 281.882C426.5 288.539 424.167 295.101 421.892 301.677C418.432 311.671 415.318 321.817 411.273 331.563C408.111 339.18 403.995 346.428 399.855 353.574C396.753 358.927 393.202 364.074 389.339 368.891C387.071 371.72 383.85 373.783 380.977 376.089C376.378 379.779 371.155 382.134 365.438 383.464C358.857 384.994 353.017 383.803 348.106 378.932C345.132 375.981 342.216 372.968 339.159 369.865Z" fill="white"/>
<path fill-rule="evenodd" clip-rule="evenodd" d="M184.352 171.797C183.718 173.098 183.759 174.236 184.585 175.34C184.955 175.836 185.356 176.308 185.757 176.78C186.186 177.286 186.616 177.793 187.009 178.328C187.601 179.137 188.213 179.935 188.826 180.734C190.434 182.83 192.044 184.928 193.307 187.221C195.09 190.46 197.156 192.85 200.904 193.536C202.426 193.815 203 195.048 203.183 196.672C203.436 198.933 203.851 201.225 204.591 203.363C205.12 204.893 206.521 205.907 208.304 205.711C209.14 205.619 209.972 205.476 210.804 205.333C212.085 205.113 213.363 204.893 214.649 204.861C215.88 204.832 217.477 205.158 218.304 205.964C220.516 208.116 222.553 210.458 224.588 212.796C225.009 213.279 225.429 213.762 225.851 214.244C226.007 214.421 226.159 214.6 226.311 214.778L226.312 214.779C227.797 216.521 229.178 218.14 232.131 217.1C235.637 215.866 239.324 215.313 243.127 215.564C246.615 215.795 247.977 214.596 249.05 211.13C249.161 210.775 249.254 210.412 249.347 210.049C249.527 209.348 249.707 208.648 250.007 208.005C250.122 207.762 250.234 207.515 250.348 207.267V207.267C250.968 205.91 251.602 204.522 252.558 203.456C254.286 201.531 256.526 201.826 258.821 202.652C261.406 203.582 262.746 203.012 263.861 200.629C264.332 199.62 264.488 199.632 265.351 200.278C266.049 200.8 267.149 201.041 268.038 200.975C270.241 200.809 272.446 200.497 274.604 200.029C275.384 199.86 276.417 199.234 276.684 198.553C277.01 197.722 277.338 196.89 277.666 196.058C279.517 191.368 281.371 186.67 282.854 181.859C285.266 174.032 287.063 166.018 287.058 157.751C287.056 152.212 286.895 146.674 286.736 141.136C286.695 139.732 286.654 138.328 286.616 136.925C286.598 136.259 286.582 135.593 286.566 134.927V134.924C286.496 131.887 286.424 128.845 286.123 125.83C285.581 120.389 284.882 114.962 284.183 109.537L284.181 109.523C284.065 108.616 283.948 107.709 283.832 106.803C283.49 104.13 283.091 101.465 282.693 98.7996L282.693 98.7969C282.561 97.9166 282.429 97.0354 282.3 96.1551L282.019 94.2452C281.397 90.0091 280.775 85.7717 280.116 81.5404C280.091 81.3749 280.067 81.2038 280.044 81.0304C279.924 80.1498 279.795 79.2064 279.305 78.6112C278.868 78.0793 278.431 77.5458 277.995 77.0121C275.2 73.597 272.398 70.1726 269.281 67.0823C266.835 64.6579 263.888 62.711 260.993 60.7992L260.617 60.5506C252.708 55.3221 243.849 52.9684 234.537 52.3473C231.985 52.1772 229.421 52.2164 226.855 52.2557C225.319 52.2792 223.783 52.3026 222.249 52.2812C220.849 52.2617 220.091 52.7142 219.182 53.9536C217.976 55.598 216.175 56.9212 214.395 57.9787C209.952 60.62 206.042 63.7226 203.039 68.0839C199.095 73.8125 195.481 79.7066 193.119 86.2777C191.297 91.3462 190.036 96.5516 189.602 102.003C189.461 103.763 189.112 105.5 188.762 107.239C188.085 110.602 187.407 113.969 188.243 117.516C188.604 119.043 188.813 120.611 189.023 122.177C189.269 124.013 189.514 125.848 190.003 127.615C190.092 127.941 190.183 128.266 190.272 128.59C191.829 134.206 193.356 139.717 193.052 145.759C192.726 152.255 190.455 157.93 187.822 164.079C187.487 164.833 187.155 165.59 186.824 166.347V166.348C186.025 168.177 185.226 170.005 184.352 171.797ZM288.48 129.028C288.483 129.084 288.477 129.144 288.471 129.203C288.459 129.311 288.449 129.416 288.492 129.49C288.627 129.718 288.789 129.929 288.951 130.14C289.015 130.224 289.079 130.308 289.142 130.392C289.21 130.329 289.283 130.27 289.355 130.21C289.51 130.08 289.665 129.951 289.791 129.796C290.147 129.358 290.506 128.921 290.864 128.485L290.865 128.484L290.866 128.483C291.887 127.24 292.908 125.998 293.867 124.706C295.981 121.858 298.048 118.972 300.073 116.057C301.267 114.339 300.079 113.627 298.664 113.525C295.716 113.313 293.22 114.577 290.687 116.054C288.877 117.11 287.544 117.994 288.017 120.78L288.088 122.032C288.219 124.364 288.35 126.696 288.48 129.028ZM187.533 130.35C187.469 130.455 187.405 130.561 187.359 130.663C186.098 130.053 184.929 129.325 183.771 128.604C182.758 127.972 181.754 127.347 180.706 126.812C178.335 125.601 177.501 123.402 176.742 121.217C175.869 118.702 177.813 116.3 180.449 116.318C180.566 116.319 180.684 116.319 180.801 116.32C181.741 116.323 182.695 116.326 183.599 116.527C185.374 116.922 185.55 118.318 185.719 119.663C185.772 120.08 185.824 120.492 185.923 120.869C186.557 123.275 187.019 125.729 187.482 128.181C187.578 128.688 187.674 129.195 187.771 129.702C187.808 129.895 187.67 130.122 187.533 130.35Z" fill="white"/>
<path d="M272.081 164.554C275.507 164.554 278.284 161.736 278.284 158.259C278.284 154.783 275.507 151.965 272.081 151.965C268.654 151.965 265.877 154.783 265.877 158.259C265.877 161.736 268.654 164.554 272.081 164.554Z" fill="#FFAB36"/>
<path d="M207.384 159.158C210.81 159.158 213.588 156.34 213.588 152.864C213.588 149.388 210.81 146.57 207.384 146.57C203.958 146.57 201.18 149.388 201.18 152.864C201.18 156.34 203.958 159.158 207.384 159.158Z" fill="#FFAB36"/>
<path fill-rule="evenodd" clip-rule="evenodd" d="M236.712 77.0204C240.247 77.7908 244.081 78.7258 247.654 76.7576C248.863 76.0909 250 75.2702 251.103 74.4283C251.776 73.9147 252.381 73.2772 252.909 72.6086C257.105 67.301 260.202 68.0936 265.98 71.5589C273.373 75.9924 281.933 88.9066 259.014 88.9066C247.469 88.9066 201.36 82.5286 207.798 76.1887C210.429 73.5975 213.877 71.8632 216.931 69.7074C218.081 68.8956 219.252 68.0827 220.266 67.1127C221.738 65.7075 222.629 66.4495 223.547 67.7413C224.754 69.4393 226.014 71.0985 227.367 72.8921C230.549 74.395 233.501 76.3205 236.712 77.0204Z" fill="#E7EAEE"/>
<path fill-rule="evenodd" clip-rule="evenodd" d="M360.244 319.817C359.045 320.549 357.849 321.279 356.562 321.774C353.45 322.971 350.294 324.055 347.107 325.149H347.106C345.088 325.841 343.056 326.539 341.014 327.273C340.399 327.516 339.859 327.676 339.335 327.83H339.334C339.211 327.867 339.089 327.903 338.967 327.94C337.144 328.49 335.322 329.046 333.501 329.603H333.5H333.499L333.498 329.603H333.497H333.496L333.495 329.604H333.495H333.494H333.493H333.492C328.921 331 324.351 332.396 319.757 333.703C317.896 334.233 316.357 333.639 315.346 331.598C312.832 326.525 310.143 321.54 307.438 316.57C307.25 316.224 306.786 316.035 306.323 315.844C306.107 315.756 305.892 315.668 305.704 315.563C305.634 315.803 305.523 316.066 305.41 316.329C305.169 316.893 304.928 317.458 305.105 317.802C308.121 323.683 311.219 329.524 314.459 335.28C314.859 335.992 316.31 336.645 317.11 336.485C321.364 335.634 325.587 334.594 329.779 333.466C331.4 333.03 333.004 332.521 334.607 332.012C336.917 331.277 339.226 330.543 341.583 330.032C349.675 328.274 357.417 325.735 364.363 321.04C366.857 319.354 367.541 316.776 366.329 314.105C365.908 313.179 365.48 312.255 365.051 311.332L365.05 311.33V311.329L365.049 311.327L365.048 311.326L365.047 311.325V311.323L365.046 311.322L365.045 311.32L365.044 311.318V311.317L365.042 311.312C363.554 308.104 362.063 304.893 360.898 301.566C357.324 291.37 353.302 281.372 348.566 271.687C345.569 265.558 342.386 259.509 339.004 253.591C334.485 245.682 329.753 237.782 322.487 232.154C317.441 228.247 312.037 224.567 306.291 221.896C297.893 217.991 288.67 217.136 279.491 216.488C277.616 216.355 275.645 215.641 273.99 214.704C270.668 212.824 269.319 209.493 267.96 206.14C267.812 205.773 267.663 205.405 267.511 205.039C266.84 203.421 267.92 203.119 268.598 202.976C270.347 202.609 272.194 202.318 273.951 202.499C276.691 202.779 278.198 201.485 279.203 199.182C281.668 193.53 283.827 187.783 285.457 181.802C287.713 173.521 289.641 165.241 289.435 156.563C289.346 152.803 289.367 149.039 289.387 145.276V145.274C289.398 143.311 289.409 141.349 289.404 139.386C289.402 138.851 289.339 138.291 289.275 137.732C289.146 136.61 289.019 135.494 289.404 134.599C290.351 132.399 291.906 130.425 293.415 128.528C294.61 127.027 295.857 125.57 297.105 124.112C298.616 122.346 300.127 120.58 301.542 118.738C302.682 117.255 303.532 115.365 302.384 113.394C301.263 111.47 299.465 110.69 297.376 111.168C297.018 111.25 296.657 111.327 296.296 111.405C293.67 111.968 291.015 112.538 289.161 114.901C288.27 116.035 287.755 116.039 287.524 114.393C287.353 113.171 287.109 111.958 286.865 110.746C286.613 109.491 286.36 108.236 286.188 106.97C285.976 105.409 285.833 103.839 285.691 102.269C285.553 100.749 285.415 99.2294 285.215 97.7187C284.933 95.5975 284.615 93.4808 284.297 91.365C283.815 88.1612 283.334 84.9582 282.979 81.7403C282.768 79.8295 282.245 78.299 280.981 76.9063C280.326 76.1836 279.66 75.4678 278.994 74.7518C276.952 72.5574 274.908 70.3601 273.147 67.9526C268.287 61.3092 261.386 57.825 254.225 54.6651C249.61 52.629 244.839 51.1725 239.764 50.8786C237.532 50.7493 235.3 50.5879 233.068 50.4265C230.791 50.2616 228.512 50.0968 226.232 49.9662C224.356 49.8586 222.448 49.7819 220.595 50.0188C219.674 50.1365 218.753 50.8837 217.993 51.5389C217.243 52.1857 216.529 52.8775 215.815 53.569C214.896 54.4599 213.977 55.3504 212.981 56.1433C211.932 56.9792 210.82 57.7467 209.71 58.5131C207.888 59.7716 206.07 61.0273 204.535 62.579C202.773 64.3626 201.364 66.5122 199.958 68.6577V68.6577C199.44 69.4475 198.924 70.2366 198.389 71.0069C194.423 76.7238 191.376 82.9023 189.699 89.704C188.661 93.9142 187.782 98.1656 186.909 102.415L186.77 103.088C186.131 106.199 185.488 109.317 185.085 112.463L185.067 112.602C184.749 115.094 184.724 115.284 182.368 114.4C179.935 113.486 177.838 114.103 176.125 115.778C174.442 117.424 174.257 119.643 174.841 121.881C176.555 128.434 181.493 131.179 187.394 132.814C187.909 132.956 188.478 133.466 188.724 133.958C191.268 139.065 191.378 144.496 189.768 149.764C188.285 154.612 186.529 159.375 184.772 164.139V164.14H184.771V164.141V164.142V164.143H184.77V164.144V164.144L184.769 164.145V164.146C183.995 166.247 183.22 168.346 182.469 170.454C181.696 172.627 181.271 174.617 183.045 176.722C186.858 181.247 190.5 185.93 193.251 191.239C194.342 193.343 196.016 194.859 198.262 195.316C200.401 195.752 200.691 196.825 200.943 198.862C201.275 201.546 202.156 204.367 203.585 206.615C204.038 207.328 205.262 207.522 206.514 207.72C207.177 207.824 207.848 207.93 208.418 208.115C208.883 208.266 209.621 208.895 209.564 209.151C209.462 209.605 209.364 210.061 209.265 210.518V210.519V210.52C208.789 212.711 208.313 214.915 207.511 216.984C205.755 221.514 202.02 224.349 198.395 227.099C197.9 227.475 197.407 227.85 196.921 228.227C190.593 233.136 183.064 235.831 175.501 238.158C171.947 239.251 168.341 240.171 164.735 241.091H164.734C162.394 241.688 160.054 242.285 157.728 242.93C156.279 243.331 154.846 243.805 153.414 244.28H153.414V244.281H153.413C151.29 244.985 149.169 245.688 146.997 246.151C138.649 247.927 131.285 251.583 124.817 257.181C120.469 260.943 118.135 266.003 115.789 271.091C115.675 271.338 115.561 271.585 115.446 271.833C112.275 278.691 109.494 286.002 109.103 293.424C108.993 295.505 109.15 297.6 109.306 299.696C109.385 300.755 109.465 301.816 109.509 302.874C109.61 305.254 109.696 307.635 109.783 310.016C109.971 315.194 110.159 320.372 110.495 325.541C110.683 328.423 111.188 331.287 111.692 334.146C111.838 334.967 111.982 335.787 112.119 336.608C112.492 338.842 112.909 341.068 113.326 343.294C113.604 344.779 113.882 346.265 114.147 347.752C114.32 348.722 114.506 349.691 114.691 350.66C115.191 353.268 115.691 355.876 115.944 358.508C116.178 360.926 116.109 363.377 116.042 365.823C116.022 366.548 116.002 367.272 115.99 367.995C115.968 369.268 116.187 370.299 117.696 369.953C119.185 369.612 120.65 369.152 122.114 368.693C122.574 368.549 123.034 368.405 123.494 368.264C125.048 367.79 126 368.346 126.2 369.966C126.399 371.569 126.573 373.176 126.748 374.782C127.013 377.22 127.278 379.657 127.625 382.083C128.47 387.981 129.399 393.867 130.4 399.739C132.239 410.519 134.89 421.106 138.372 431.45C141.469 440.646 144.817 449.757 148.198 458.85C150.146 464.088 152.229 469.273 154.311 474.459C154.844 475.785 155.376 477.109 155.906 478.435C158.053 483.807 160.247 489.161 162.444 494.512C162.953 495.754 163.458 496.999 163.961 498.244C165.438 501.895 166.916 505.545 168.546 509.124C169.963 512.231 171.571 515.248 173.18 518.263C173.654 519.152 174.129 520.042 174.598 520.933C174.744 521.211 175.036 521.408 175.33 521.606C175.465 521.698 175.602 521.789 175.723 521.888C175.782 521.726 175.85 521.563 175.917 521.401C176.077 521.021 176.236 520.641 176.273 520.249C176.301 519.942 176.13 519.607 175.966 519.287C175.923 519.202 175.88 519.119 175.841 519.038C175.294 517.874 174.729 516.719 174.163 515.563C172.977 513.141 171.79 510.719 170.777 508.223C167.268 499.579 163.902 490.875 160.549 482.167C159.042 478.255 157.569 474.328 156.095 470.402C154.645 466.536 153.196 462.672 151.713 458.819C150.791 456.424 149.816 454.047 148.842 451.671C147.098 447.418 145.355 443.164 143.914 438.808C140.856 429.558 138.12 420.184 135.643 410.756C134.247 405.444 133.288 400.008 132.33 394.581V394.581C132.158 393.606 131.987 392.63 131.812 391.656C131.329 388.961 131.021 386.234 130.714 383.507C130.608 382.576 130.504 381.646 130.392 380.717C129.906 376.678 129.447 372.637 129.002 368.595C128.854 367.247 129.441 366.609 130.796 366.174C135.987 364.507 141.152 362.761 146.318 361.013C148.15 360.394 149.983 359.774 151.817 359.158C153.18 358.701 154.633 358.261 156.126 357.81C161.654 356.137 167.739 354.296 171.947 350.705C172.191 350.497 172.828 350.379 172.981 350.531C173.256 350.803 173.45 351.325 173.421 351.723C173.275 353.716 173.099 355.709 172.923 357.702C172.575 361.631 172.228 365.56 172.119 369.496C171.981 374.488 172.216 379.496 172.452 384.494V384.495L172.453 384.497V384.5V384.502V384.504V384.507V384.509V384.511V384.513V384.516L172.454 384.518V384.52V384.523C172.485 385.174 172.515 385.825 172.545 386.475C172.691 389.648 172.924 392.844 173.485 395.963C174.911 403.896 177.872 411.32 181.349 418.53C181.854 419.578 182.455 420.587 183.056 421.595C183.953 423.101 184.849 424.604 185.418 426.23C186.289 428.715 187.21 431.183 188.131 433.653C190.659 440.431 193.189 447.212 194.69 454.344C195.162 456.588 195.714 458.814 196.265 461.04C196.877 463.511 197.489 465.982 197.992 468.475C198.769 472.32 199.374 476.202 199.979 480.082V480.083V480.084V480.085V480.086C200.118 480.978 200.258 481.871 200.399 482.764C200.571 483.856 200.764 484.947 200.958 486.04C201.481 489.004 202.004 491.971 202.131 494.953C202.382 500.888 202.462 506.829 202.541 512.77C202.584 515.943 202.626 519.114 202.696 522.286C202.705 522.759 202.903 523.227 203.102 523.695C203.194 523.913 203.286 524.131 203.359 524.349C203.482 524.128 203.633 523.91 203.786 523.691C204.115 523.218 204.445 522.745 204.473 522.254C204.627 519.58 204.716 516.901 204.807 514.223V514.222V514.22V514.219V514.218V514.217V514.215V514.215V514.214V514.212V514.211V514.21V514.209V514.207V514.207C204.865 512.485 204.923 510.762 204.997 509.04C205.033 508.219 205.118 507.397 205.202 506.576V506.575V506.574V506.573C205.329 505.34 205.455 504.109 205.416 502.882C205.377 501.602 205.341 500.32 205.305 499.038V499.037V499.035V499.034V499.033V499.032V499.031V499.029V499.028V499.026V499.025V499.024V499.023C205.139 493.137 204.974 487.248 204.429 481.396C204.064 477.472 203.148 473.591 202.236 469.727C202.061 468.985 201.886 468.243 201.715 467.503C201.306 465.728 200.906 463.95 200.507 462.173C199.09 455.866 197.673 449.558 195.811 443.388C192.754 433.257 188.604 423.533 183.837 414.068C181.67 409.765 179.853 405.173 178.636 400.508C176.247 391.349 176.04 381.881 175.834 372.467L175.815 371.582C175.719 367.249 175.894 362.91 176.07 358.572V358.571V358.569C176.13 357.089 176.19 355.609 176.239 354.13C176.304 352.186 176.451 350.246 176.598 348.305V348.301V348.299V348.296L176.599 348.292V348.29C176.631 347.87 176.663 347.45 176.694 347.03C176.836 345.097 177.01 343.163 177.184 341.231L177.185 341.23C177.565 337.006 177.945 332.781 177.997 328.553C178.039 325.152 177.821 321.749 177.604 318.345C177.423 315.525 177.243 312.704 177.21 309.883C177.163 305.902 176.031 302.223 174.897 298.542C174.538 297.373 174.179 296.205 173.854 295.027C173.729 294.574 173.267 294.218 172.806 293.861C172.592 293.696 172.379 293.53 172.199 293.356C172.128 293.611 172.027 293.873 171.925 294.135C171.703 294.706 171.482 295.277 171.584 295.783C171.786 296.795 172.089 297.792 172.39 298.789C172.813 300.183 173.235 301.573 173.38 302.995C174.032 309.37 174.65 315.772 174.751 322.172C174.794 324.85 174.588 327.535 174.381 330.219C174.152 333.214 173.922 336.206 174.038 339.188C174.202 343.441 172.064 345.703 169.2 347.861C165.434 350.7 160.053 352.34 155.223 353.813C153.944 354.203 152.703 354.581 151.54 354.967C144.321 357.364 137.145 359.893 129.969 362.422C127.006 363.467 124.042 364.512 121.075 365.548L121.025 365.565C120.034 365.911 119.216 366.197 119.216 364.481C119.218 362.387 119.005 360.288 118.792 358.2L118.78 358.088C118.659 356.9 118.54 355.711 118.422 354.522V354.52V354.519C117.962 349.924 117.503 345.329 116.906 340.752C116.542 337.955 116.099 335.17 115.656 332.384C115.126 329.055 114.596 325.726 114.201 322.38C113.645 317.677 113.314 312.922 113.277 308.186C113.239 303.39 113.384 298.593 113.529 293.795C113.586 291.912 113.644 290.028 113.69 288.146C113.813 283.093 116.258 278.458 118.642 273.938C119.535 272.246 120.418 270.571 121.169 268.896C124.974 260.401 132.141 255.717 140.208 252.408C144.084 250.818 148.128 249.643 152.17 248.47V248.469H152.171H152.172H152.173V248.468H152.174H152.175H152.175V248.467H152.176H152.177H152.178L152.179 248.466C153.662 248.035 155.144 247.605 156.616 247.154C159.923 246.142 163.237 245.157 166.551 244.171H166.553H166.554L166.555 244.17H166.556H166.557L166.558 244.169H166.559H166.559H166.56L166.561 244.168C173.098 242.224 179.634 240.281 186.107 238.134C191.882 236.22 197.38 233.476 201.928 229.231C203.173 228.068 203.787 228.274 204.886 229.34C208.472 232.819 212.145 236.207 215.818 239.595L216.449 240.179C222.711 245.957 229.679 250.681 237.427 254.126C238.575 254.637 240.455 254.566 241.522 253.936C243.927 252.517 246.177 250.818 248.423 249.123C248.885 248.774 249.348 248.426 249.812 248.079C250.743 247.382 251.677 246.688 252.61 245.993C256.49 243.107 260.372 240.219 264.146 237.195C268.154 233.982 271.023 229.748 273.881 225.53C274.339 224.855 274.795 224.18 275.257 223.51C275.438 223.248 274.799 221.892 274.389 221.808C272.783 221.478 272.045 222.54 271.271 223.653C271.124 223.866 270.976 224.08 270.82 224.286C270.179 225.134 269.552 226.007 268.925 226.881C266.981 229.587 265.027 232.308 262.571 234.41C258.651 237.762 254.534 240.876 250.416 243.991C247.488 246.204 244.56 248.419 241.701 250.721C239.922 252.154 238.612 252.048 236.893 251.064C236.516 250.848 236.139 250.633 235.763 250.418H235.762C231.751 248.132 227.773 245.866 224.303 242.63C219.844 238.472 215.163 234.556 210.483 230.642C209.145 229.523 207.807 228.403 206.474 227.278C205.238 226.236 205.461 225.59 206.523 224.605C210.084 221.299 211.995 217.211 212.513 212.277C212.545 211.976 212.555 211.645 212.566 211.301C212.615 209.746 212.674 207.928 214.725 207.443C216.696 206.977 218.165 208.283 219.342 209.732C220.097 210.663 220.819 211.623 221.54 212.583C222.437 213.776 223.334 214.97 224.296 216.106L224.477 216.32C226.317 218.497 228.344 220.896 231.542 219.774C236.015 218.205 240.529 217.913 245.177 217.857C246.499 217.842 248.334 216.839 249.011 215.716C250.131 213.862 250.958 211.824 251.784 209.788V209.787L251.785 209.786V209.785H251.786V209.784V209.783L251.787 209.782V209.782V209.781L251.788 209.78V209.779H251.789V209.778V209.777L251.79 209.776V209.775V209.774L251.791 209.773C252.109 208.989 252.427 208.205 252.762 207.432C253.949 204.694 255.182 203.671 258.153 204.768C259.443 205.244 261.152 205.624 262.319 205.152C264.632 204.22 265.069 205.351 265.718 207.029C265.745 207.097 265.771 207.167 265.799 207.236C267.313 211.128 268.854 215.032 272.51 217.57C274.919 219.244 277.646 219.707 280.377 220.171C280.63 220.214 280.884 220.256 281.137 220.3C283.512 220.713 285.894 221.084 288.275 221.453L288.277 221.454C291.702 221.985 295.128 222.518 298.529 223.177C307.39 224.893 314.984 229.511 321.493 235.485C326.039 239.659 329.711 244.915 333.292 250.04L333.395 250.188C335.996 253.91 338.109 257.998 340.212 262.063C340.454 262.532 340.696 263.001 340.939 263.468C341.592 264.726 342.252 265.983 342.91 267.24C345.92 272.984 348.933 278.734 351.486 284.683C354.439 291.568 357.132 298.568 359.825 305.569V305.571C361.133 308.969 362.441 312.368 363.778 315.753C364.225 316.885 364.368 317.605 363.01 318.254C362.06 318.708 361.151 319.263 360.244 319.817H360.244ZM186.825 166.347C187.156 165.59 187.487 164.833 187.823 164.079C190.455 157.93 192.726 152.255 193.053 145.759C193.357 139.717 191.829 134.206 190.273 128.59C190.183 128.265 190.093 127.941 190.003 127.615C189.515 125.847 189.27 124.013 189.023 122.177V122.176V122.175C188.814 120.61 188.604 119.043 188.244 117.515C187.408 113.969 188.086 110.602 188.763 107.239C189.112 105.5 189.462 103.763 189.602 102.003C190.037 96.5516 191.297 91.3461 193.12 86.2777C195.481 79.7065 199.096 73.8124 203.04 68.0838C206.043 63.7225 209.953 60.62 214.396 57.9787C216.175 56.9211 217.977 55.5979 219.183 53.9535C220.091 52.7141 220.85 52.2616 222.25 52.2812C223.784 52.3026 225.32 52.2791 226.856 52.2556C229.422 52.2163 231.985 52.1771 234.537 52.3472C243.85 52.9683 252.708 55.3221 260.618 60.5506L260.994 60.7992C263.888 62.7111 266.836 64.6579 269.281 67.0823C272.398 70.1724 275.2 73.5969 277.995 77.0118C278.432 77.5456 278.868 78.0791 279.305 78.6111C279.795 79.2063 279.924 80.1497 280.044 81.0302C280.068 81.2037 280.091 81.3748 280.117 81.5403C280.775 85.7704 281.397 90.0063 282.019 94.2424L282.02 94.2442L282.301 96.155C282.43 97.0362 282.561 97.9165 282.694 98.7969V98.7995C283.092 101.465 283.49 104.13 283.832 106.802C283.949 107.714 284.066 108.627 284.184 109.539C284.883 114.963 285.581 120.388 286.124 125.829C286.425 128.845 286.496 131.886 286.567 134.923V134.924C286.583 135.591 286.598 136.258 286.617 136.925C286.655 138.327 286.695 139.73 286.736 141.133V141.135V141.137V141.137V141.138V141.139V141.14V141.141V141.142V141.143V141.144V141.145V141.146C286.896 146.68 287.057 152.216 287.059 157.751C287.064 166.018 285.267 174.032 282.855 181.859C281.372 186.67 279.518 191.367 277.668 196.056L277.667 196.058C277.339 196.89 277.01 197.721 276.684 198.553C276.417 199.234 275.384 199.86 274.605 200.029C272.446 200.497 270.241 200.809 268.039 200.975C267.149 201.041 266.05 200.8 265.351 200.278C264.489 199.632 264.333 199.62 263.861 200.629C262.747 203.011 261.406 203.582 258.822 202.652C256.527 201.826 254.286 201.53 252.559 203.456C251.603 204.522 250.968 205.91 250.349 207.266C250.235 207.515 250.123 207.761 250.008 208.005C249.707 208.648 249.528 209.348 249.347 210.049V210.049V210.05C249.254 210.413 249.161 210.775 249.051 211.13C247.978 214.596 246.616 215.794 243.127 215.564C239.324 215.313 235.637 215.866 232.132 217.1C229.179 218.14 227.798 216.521 226.312 214.779C226.16 214.601 226.007 214.421 225.852 214.244C225.43 213.762 225.009 213.279 224.589 212.796H224.588C222.554 210.457 220.517 208.116 218.305 205.964C217.477 205.158 215.88 204.831 214.649 204.861C213.363 204.893 212.085 205.113 210.805 205.333C209.973 205.476 209.14 205.619 208.304 205.711C206.521 205.907 205.121 204.893 204.592 203.363C203.852 201.225 203.437 198.933 203.184 196.672C203.001 195.048 202.427 193.814 200.905 193.536C197.157 192.85 195.091 190.46 193.307 187.221C192.045 184.928 190.435 182.83 188.827 180.734V180.733H188.826V180.732H188.825V180.731L188.824 180.73C188.212 179.933 187.601 179.136 187.009 178.328C186.616 177.793 186.186 177.287 185.757 176.78C185.357 176.308 184.956 175.836 184.586 175.34C183.76 174.236 183.718 173.098 184.353 171.797C185.226 170.005 186.025 168.176 186.825 166.347ZM288.085 121.974L288.018 120.78C287.545 117.994 288.878 117.11 290.688 116.054C293.22 114.577 295.716 113.313 298.664 113.525C300.08 113.627 301.267 114.339 300.073 116.057C298.049 118.972 295.981 121.858 293.867 124.706C292.909 125.998 291.888 127.24 290.866 128.483V128.484L290.865 128.485L290.864 128.486C290.506 128.922 290.147 129.358 289.792 129.796C289.666 129.951 289.511 130.08 289.355 130.21C289.328 130.232 289.301 130.254 289.275 130.277C289.23 130.315 289.185 130.352 289.142 130.392C289.08 130.308 289.016 130.224 288.952 130.14C288.79 129.929 288.628 129.718 288.493 129.49C288.449 129.416 288.46 129.311 288.471 129.203C288.477 129.144 288.483 129.084 288.481 129.028C288.35 126.677 288.218 124.325 288.085 121.974ZM187.534 130.35C187.47 130.455 187.406 130.561 187.359 130.663C186.099 130.053 184.93 129.325 183.772 128.604C182.759 127.972 181.755 127.347 180.707 126.811C178.336 125.601 177.502 123.402 176.742 121.217C175.869 118.702 177.813 116.3 180.449 116.318C180.567 116.319 180.685 116.319 180.802 116.32C181.742 116.323 182.695 116.326 183.599 116.527C185.374 116.922 185.55 118.318 185.72 119.663C185.773 120.08 185.825 120.492 185.923 120.869C186.558 123.275 187.02 125.729 187.483 128.181C187.579 128.688 187.674 129.195 187.772 129.701C187.808 129.895 187.671 130.122 187.534 130.35ZM328.065 351.887C331.734 357.846 335.412 363.823 339.159 369.865C340.115 370.835 341.056 371.796 341.99 372.748C344.045 374.845 346.062 376.902 348.106 378.931C353.017 383.803 358.857 384.994 365.439 383.463C371.155 382.133 376.379 379.779 380.978 376.089C381.706 375.503 382.458 374.934 383.21 374.364H383.211C385.424 372.687 387.647 371.002 389.339 368.89C393.202 364.073 396.753 358.927 399.856 353.573C403.995 346.428 408.112 339.18 411.273 331.563C414.22 324.463 416.673 317.15 419.125 309.839L419.126 309.835C420.04 307.111 420.953 304.388 421.892 301.677L422.175 300.86L422.383 300.259L422.558 299.755L422.923 298.706L422.924 298.702V298.702H422.925V298.701V298.7V298.699C424.865 293.118 426.806 287.534 428.524 281.882C429.358 279.137 430.062 276.349 430.766 273.563C431.671 269.975 432.577 266.388 433.76 262.896C435.119 258.888 436.807 254.995 438.496 251.102C439.371 249.086 440.246 247.07 441.075 245.036C441.947 242.898 442.822 240.761 443.697 238.623L443.698 238.621C447.043 230.454 450.386 222.288 453.56 214.053C454.818 210.788 455.699 207.37 456.577 203.959L456.578 203.955L456.579 203.952V203.95L456.58 203.948V203.947L456.58 203.946V203.944L456.581 203.942V203.941L456.582 203.939V203.938V203.936L456.583 203.935C456.813 203.045 457.041 202.155 457.277 201.269C457.385 200.864 457.171 200.37 456.956 199.876C456.856 199.648 456.757 199.419 456.689 199.199C456.457 199.274 456.209 199.33 455.961 199.386C455.422 199.508 454.883 199.63 454.506 199.948C452.134 201.947 450.495 204.478 449.412 207.434C448.857 208.947 448.113 210.392 447.371 211.833C447.293 211.986 447.214 212.139 447.135 212.293C447.06 212.439 446.986 212.585 446.911 212.731C446.818 212.913 446.568 213.013 446.319 213.113C446.203 213.16 446.088 213.206 445.988 213.261C445.986 213.16 445.977 213.056 445.968 212.953C445.949 212.732 445.929 212.51 445.986 212.311C446.434 210.752 446.898 209.197 447.362 207.642L447.363 207.641L447.363 207.639V207.637L447.364 207.635V207.634L447.365 207.632V207.631L447.366 207.629V207.627L447.367 207.624L447.368 207.622L447.369 207.619L447.37 207.616C448.361 204.296 449.352 200.977 450.179 197.614C450.855 194.865 451.074 191.975 451.255 189.132C451.386 187.074 449.53 185.883 447.9 186.954C447.055 187.51 446.358 188.299 445.66 189.086C445.379 189.403 445.098 189.72 444.808 190.022C444.579 190.26 444.372 190.522 444.166 190.783C444.071 190.903 443.976 191.022 443.88 191.14C443.831 191.004 443.777 190.869 443.723 190.733C443.602 190.435 443.482 190.137 443.425 189.827C443.232 188.801 443.087 187.765 442.953 186.73C442.696 184.777 441.589 182.914 439.888 182.875C438.732 182.849 437.088 184.551 436.437 185.873C434.458 189.884 432.716 194.032 431.144 198.227C429.922 201.488 428.834 204.801 427.747 208.114L427.746 208.117C427.25 209.626 426.754 211.136 426.247 212.64C426.136 212.967 426.006 213.288 425.876 213.609C425.816 213.758 425.756 213.906 425.697 214.055C425.577 213.964 425.445 213.878 425.315 213.794C425.032 213.61 424.751 213.427 424.564 213.171C422.628 210.511 419.858 209.111 417.045 207.687L416.704 207.514C414.139 206.213 411.603 206.571 409.354 207.698C406.308 209.225 406.414 214.766 409.09 217.248C413.215 221.076 416.071 225.634 417.288 231.22C418.942 238.807 417.376 245.663 412.955 251.943L412.74 252.25L412.299 252.876V252.877C410.095 256.003 407.89 259.133 405.864 262.376C400.671 270.686 395.529 279.032 390.506 287.447L390.207 287.947C385.562 295.728 380.912 303.516 376.619 311.497C374.677 315.106 373.103 318.92 371.53 322.732C370.974 324.077 370.42 325.423 369.848 326.758C369.337 327.953 368.977 328.372 368.004 327.158C367.277 326.249 366.445 325.398 365.535 324.684C365.255 324.465 364.831 324.435 364.407 324.405C364.215 324.393 364.023 324.379 363.844 324.348C363.833 324.482 363.802 324.634 363.772 324.785C363.706 325.114 363.641 325.443 363.773 325.592C363.945 325.788 364.117 325.988 364.29 326.187V326.187C365.186 327.222 366.095 328.271 367.181 329.05C370.572 331.48 370.974 331.199 372.472 327.189C372.552 326.977 372.631 326.764 372.71 326.551C372.818 326.26 372.926 325.97 373.033 325.678L373.034 325.678C374.331 322.172 375.637 318.645 377.409 315.393C382.22 306.564 387.298 297.881 392.408 289.223C397.463 280.664 402.605 272.154 407.874 263.729C409.063 261.826 410.385 260.003 411.707 258.181H411.708V258.18C413.559 255.628 415.408 253.08 416.885 250.322C422.377 240.072 421.574 229.872 415.178 220.219C414.544 219.263 413.72 218.429 412.899 217.598C411.993 216.681 411.089 215.767 410.441 214.688C409.744 213.528 409.667 211.423 410.256 210.22C410.654 209.409 412.885 208.836 413.982 209.182C419.25 210.848 424.26 213.014 425.367 219.525C425.419 219.83 425.769 220.083 426.119 220.335C426.281 220.453 426.444 220.571 426.577 220.693C426.64 220.596 426.712 220.501 426.784 220.406C426.939 220.201 427.094 219.996 427.164 219.765C427.816 217.593 428.444 215.413 429.071 213.234L429.364 212.218C429.838 210.573 430.296 208.922 430.754 207.271L430.755 207.27V207.269L430.756 207.267V207.266V207.266L430.757 207.265V207.263V207.262L430.758 207.261V207.26V207.259L430.759 207.257V207.257L430.759 207.256V207.255V207.254V207.253L430.76 207.252V207.251V207.25V207.249H430.761V207.248V207.248L430.762 207.247V207.246V207.245V207.244C431.842 203.359 432.921 199.475 434.201 195.66C435.005 193.265 436.173 190.994 437.338 188.728C437.7 188.024 438.062 187.32 438.412 186.615C438.652 186.13 439.283 185.793 439.806 185.539C439.942 185.473 440.561 185.954 440.595 186.229C440.654 186.706 440.736 187.192 440.818 187.679C441.049 189.037 441.282 190.408 441.005 191.656C440.44 194.187 439.668 196.669 438.895 199.153V199.154C438.457 200.562 438.019 201.971 437.618 203.39C436.706 206.623 435.864 209.879 435.121 213.154C435.057 213.435 435.36 213.803 435.663 214.171C435.803 214.34 435.944 214.51 436.048 214.672C436.189 214.548 436.353 214.433 436.517 214.317H436.517C436.873 214.066 437.229 213.816 437.343 213.481C438.091 211.285 438.774 209.065 439.456 206.845C439.692 206.079 439.928 205.312 440.165 204.548C441.76 199.425 443.455 194.349 447.231 190.349C447.467 190.099 447.784 189.928 448.099 189.756L448.1 189.755H448.101C448.171 189.717 448.242 189.678 448.312 189.639C448.386 189.597 448.46 189.554 448.531 189.509C448.578 189.688 448.649 189.873 448.719 190.058C448.871 190.455 449.023 190.852 448.944 191.195C447.619 196.902 446.237 202.596 444.828 208.283C444.62 209.122 444.376 209.955 444.131 210.787C443.738 212.127 443.344 213.466 443.104 214.833C442.998 215.44 443.26 216.114 443.523 216.787C443.643 217.094 443.762 217.4 443.847 217.701C444.082 217.617 444.345 217.556 444.608 217.494C445.183 217.36 445.758 217.226 446.033 216.86C447.443 214.991 448.746 213.016 449.876 210.96C450.541 209.753 451.118 208.497 451.697 207.239V207.238C452.178 206.192 452.66 205.146 453.191 204.128C453.381 203.762 453.788 203.512 454.195 203.262C454.383 203.147 454.57 203.032 454.735 202.906C454.716 203.094 454.707 203.287 454.699 203.48C454.682 203.896 454.664 204.312 454.526 204.681C454.322 205.23 454.118 205.777 453.915 206.325C452.453 210.253 450.992 214.181 449.42 218.063C448.773 219.66 448.049 221.226 447.326 222.79L447.325 222.791V222.792L447.324 222.793V222.794L447.324 222.795V222.796V222.797L447.323 222.797V222.798L447.322 222.799V222.8V222.801C446.619 224.319 445.917 225.836 445.286 227.383C444.108 230.272 442.972 233.179 441.836 236.086C439.812 241.264 437.788 246.443 435.528 251.513C432.328 258.694 429.77 266.061 427.634 273.609C426.782 276.617 425.908 279.622 424.93 282.59C423.886 285.758 422.805 288.916 421.724 292.074L421.723 292.078C419.61 298.252 417.498 304.425 415.655 310.68C412.941 319.888 409.921 328.946 405.917 337.652C401.649 346.932 396.381 355.65 390.243 363.731C387.36 367.528 383.72 371.048 379.737 373.587C375.192 376.484 370.32 379.158 364.872 380.269C361.249 381.007 357.597 381.44 354.274 379.496C348.159 375.919 343.591 370.585 339.559 364.874C336.519 360.568 333.645 356.144 330.77 351.719C329.116 349.173 327.462 346.627 325.776 344.104C325.501 343.692 325.022 343.421 324.543 343.15C324.321 343.024 324.098 342.898 323.896 342.759C323.887 342.993 323.874 343.228 323.861 343.463C323.827 344.088 323.794 344.712 323.826 345.333C323.833 345.464 323.978 345.58 324.131 345.701C324.25 345.794 324.373 345.892 324.443 346.005C325.649 347.962 326.853 349.918 328.059 351.878L328.063 351.882L328.065 351.887ZM308.428 480.112C308.155 481.568 307.93 483.021 307.706 484.461C307.173 487.91 306.651 491.282 305.502 494.418C303.39 500.183 298.502 503.668 292.857 505.441C287.307 507.184 281.611 508.461 275.925 509.734H275.924L275.923 509.735L275.878 509.745L275.814 509.759C275.183 509.9 274.553 510.041 273.923 510.184C272.414 510.523 270.839 510.574 269.266 510.623C268.643 510.643 268.02 510.663 267.401 510.701C264.281 510.891 261.16 511.077 258.04 511.263C253.313 511.543 248.587 511.825 243.861 512.124C241.936 512.245 240.013 512.395 238.089 512.544C235.736 512.726 233.382 512.908 231.027 513.041C230.653 513.063 230.279 513.083 229.905 513.105L229.891 513.106L229.877 513.107C226.153 513.32 222.422 513.533 218.698 513.475C216.101 513.435 213.507 513.115 210.917 512.797L210.916 512.796C210.238 512.713 209.56 512.629 208.883 512.551C208.61 512.519 208.362 512.256 208.115 511.994C208.001 511.872 207.886 511.75 207.769 511.651C207.86 511.552 207.947 511.432 208.034 511.311C208.223 511.049 208.412 510.786 208.641 510.742C208.882 510.696 209.123 510.647 209.366 510.596C210.451 510.371 211.56 510.142 212.611 510.28C219.877 511.231 227.084 510.61 234.305 509.784C237.836 509.381 241.385 509.133 244.932 508.887H244.933L245.745 508.83C248.208 508.658 250.673 508.516 253.14 508.374H253.14H253.141H253.143H253.144H253.146H253.147H253.148H253.149H253.151H253.152L253.154 508.373H253.155H253.156H253.158H253.159C257.844 508.105 262.529 507.835 267.193 507.358C276.245 506.431 285.2 504.783 293.672 501.254C298.568 499.215 301.939 495.335 303.217 490.218L303.347 489.699C304.757 484.061 306.191 478.332 305.622 472.402C305.489 471.02 305.264 469.641 305.039 468.265V468.264H305.038V468.263V468.262C304.692 466.149 304.347 464.04 304.339 461.926C304.328 459.147 304.529 456.366 304.73 453.586C304.906 451.164 305.082 448.74 305.117 446.316C305.148 444.154 304.869 441.988 304.59 439.822C304.472 438.9 304.354 437.979 304.259 437.058C304.176 436.258 304.1 435.457 304.023 434.656C303.819 432.525 303.614 430.393 303.308 428.277C302.202 420.665 301.774 413.024 301.899 405.331C301.931 403.317 301.807 401.301 301.684 399.284V399.283V399.282V399.282V399.281V399.28V399.279C301.6 397.91 301.517 396.543 301.481 395.174C301.402 392.099 301.347 389.024 301.29 385.947V385.946V385.946V385.945V385.944V385.943V385.942V385.94C301.21 381.553 301.129 377.167 300.983 372.783C300.864 369.181 300.66 365.581 300.456 361.982C300.326 359.674 300.194 357.364 300.086 355.055C299.998 353.164 299.935 351.272 299.872 349.38V349.379V349.378V349.377V349.376V349.375V349.374C299.796 347.097 299.721 344.821 299.601 342.546C299.515 340.929 299.367 339.31 299.22 337.693C298.943 334.651 298.666 331.611 298.798 328.588C298.94 325.307 299.509 322.046 300.079 318.784V318.783H300.08V318.783V318.782V318.781V318.78V318.779C300.334 317.325 300.589 315.871 300.804 314.415C300.949 313.442 301.097 312.468 301.245 311.495C301.648 308.852 302.051 306.207 302.379 303.554C302.564 302.056 302.701 300.551 302.837 299.047C302.995 297.307 303.154 295.567 303.387 293.837C303.438 293.454 303.864 293.123 304.291 292.792C304.487 292.638 304.684 292.485 304.844 292.328C304.929 292.509 305.041 292.694 305.154 292.878C305.398 293.277 305.64 293.675 305.601 294.041C305.057 299.045 304.436 304.04 303.786 309.031C303.544 310.891 303.243 312.749 302.943 314.607C302.321 318.459 301.697 322.309 301.594 326.176C301.446 331.691 301.771 337.22 302.095 342.746C302.207 344.648 302.319 346.549 302.411 348.449C302.547 351.235 302.733 354.019 302.919 356.802V356.802V356.803V356.804L302.92 356.805V356.806V356.807V356.808V356.809V356.81V356.811V356.811V356.812V356.813C303.061 358.915 303.201 361.016 303.319 363.118C303.401 364.552 303.482 365.985 303.564 367.418L303.565 367.427V367.436L303.566 367.445V367.447C303.973 374.591 304.38 381.736 304.696 388.885C304.811 391.505 304.854 394.129 304.899 396.753V396.754V396.755V396.756V396.757V396.758C304.956 400.188 305.013 403.618 305.231 407.038C305.489 411.093 305.927 415.137 306.365 419.181L306.365 419.183V419.184V419.184V419.186V419.187V419.188V419.189L306.366 419.191V419.192V419.193V419.194V419.195C306.596 421.315 306.825 423.434 307.029 425.555C307.377 429.185 307.696 432.821 307.952 436.459C307.991 437.02 308.033 437.581 308.076 438.143V438.147V438.148V438.149C308.266 440.656 308.455 443.17 308.386 445.673C308.314 448.243 308.159 450.811 308.004 453.379V453.38C307.8 456.748 307.597 460.114 307.583 463.482C307.575 465.217 307.892 466.95 308.211 468.686C308.461 470.052 308.711 471.421 308.804 472.794C308.912 474.372 308.769 475.967 308.621 477.635V477.636C308.548 478.443 308.476 479.266 308.428 480.112ZM137.861 488.716C139.809 497.097 145.146 503.312 151.989 508.469L152.559 508.7C155.543 509.912 158.414 511.077 161.342 512.066C161.903 512.254 162.56 512.152 163.216 512.049C163.518 512.002 163.82 511.955 164.112 511.936C163.943 511.755 163.775 511.573 163.607 511.391C163.115 510.858 162.622 510.325 162.103 509.818C162.037 509.753 161.908 509.763 161.773 509.773C161.657 509.782 161.535 509.791 161.443 509.754C160.677 509.443 159.874 509.176 159.071 508.91C157.233 508.301 155.394 507.691 153.997 506.533C150.588 503.707 147.48 500.386 144.762 496.863C142.076 493.382 140.706 489.2 140.959 484.611C141.05 482.95 141.1 481.287 141.149 479.623C141.218 477.274 141.287 474.923 141.477 472.583C141.62 470.804 141.893 469.037 142.166 467.268C142.407 465.709 142.648 464.149 142.801 462.581C143.134 459.148 143.341 455.704 143.55 452.26C143.599 451.437 143.649 450.613 143.7 449.791C143.72 449.478 143.518 449.042 143.275 448.854C143.075 448.701 142.511 448.697 142.371 448.86C142.273 448.973 142.169 449.089 142.062 449.206C141.595 449.72 141.096 450.27 141.026 450.853C140.733 453.286 140.529 455.729 140.324 458.173V458.174V458.175V458.176V458.176V458.177V458.178C140.231 459.288 140.139 460.398 140.038 461.507C140.007 461.841 139.939 462.171 139.871 462.501C139.819 462.752 139.767 463.003 139.732 463.256C139.535 464.664 139.322 466.071 139.109 467.478C138.595 470.879 138.081 474.281 137.788 477.703C137.766 477.963 137.743 478.225 137.72 478.488C137.42 481.908 137.107 485.475 137.861 488.716ZM262.23 252.175H262.231C267.258 248.731 272.221 245.331 276.289 240.827C278.433 238.452 280.335 235.851 282.236 233.251L282.237 233.25C283.074 232.105 283.91 230.959 284.768 229.835C284.864 229.71 284.945 229.561 285.025 229.415V229.414C285.171 229.148 285.314 228.886 285.535 228.773C285.982 228.544 286.479 228.417 286.975 228.291C287.182 228.238 287.39 228.185 287.593 228.125C287.527 228.332 287.476 228.551 287.424 228.769C287.314 229.241 287.204 229.712 286.944 230.075C286.41 230.818 285.88 231.565 285.349 232.311C283.207 235.324 281.063 238.339 278.728 241.191C276.623 243.763 274.302 246.25 271.707 248.292C267.204 251.835 262.576 255.276 257.702 258.256C252.37 261.515 246.774 264.363 241.144 267.072C238.354 268.415 235.312 268.24 232.55 266.415C224.198 260.895 216.055 255.098 209.113 247.767C207.192 245.74 205.417 243.555 203.739 241.316C203.467 240.953 203.503 240.352 203.538 239.753C203.555 239.477 203.571 239.2 203.558 238.947C203.807 238.995 204.085 239.014 204.363 239.034C204.966 239.077 205.571 239.121 205.883 239.449C206.723 240.335 207.492 241.29 208.26 242.246H208.261V242.247V242.248H208.262C209.155 243.358 210.045 244.465 211.047 245.462C213.63 248.032 216.347 250.487 219.184 252.764C222.587 255.495 226.087 258.102 229.585 260.708C230.362 261.287 231.138 261.865 231.915 262.446C232.427 262.829 232.979 263.157 233.53 263.486C234.105 263.829 234.68 264.171 235.209 264.574C237.418 266.257 239.321 265.154 241.066 264.144C241.499 263.893 241.923 263.647 242.339 263.452C246.477 261.506 250.477 259.259 254.536 256.979C255.831 256.251 257.133 255.52 258.446 254.795C259.703 253.906 260.969 253.039 262.23 252.175ZM436.781 231.055C437.467 230.201 438.164 229.333 438.89 228.438C439.384 228.382 439.854 228.376 440.309 228.37C440.81 228.363 441.293 228.356 441.766 228.284C442.164 228.223 442.536 227.993 442.909 227.763C443.076 227.659 443.243 227.556 443.412 227.468C443.278 227.31 443.154 227.126 443.029 226.942C442.758 226.544 442.488 226.147 442.123 226.009C438.675 224.705 432.59 229.502 432.774 233.358C432.791 233.718 432.995 234.07 433.201 234.421C433.296 234.583 433.391 234.746 433.467 234.91C433.586 234.791 433.707 234.675 433.828 234.559L433.83 234.558C434.096 234.304 434.363 234.052 434.593 233.769C435.322 232.874 436.044 231.973 436.781 231.055ZM264.013 166.314C265.127 166.582 266.126 166.967 267.125 167.353C266.973 167.61 266.837 167.881 266.7 168.153C266.406 168.739 266.111 169.326 265.672 169.762C260.289 175.109 253.732 178.234 246.439 179.786C245.555 179.974 244.569 179.728 243.607 179.487C243.316 179.414 243.026 179.342 242.743 179.282C242.48 179.227 242.083 178.499 242.13 178.447C242.233 178.336 242.339 178.213 242.445 178.088C242.837 177.63 243.254 177.141 243.721 177.07C251.032 175.96 257.164 172.553 262.462 167.435C262.712 167.193 263.007 166.998 263.332 166.784C263.548 166.642 263.775 166.492 264.013 166.314ZM427.157 234.881C428.249 232.124 427.367 229.51 426.365 226.791C426.245 226.65 426.126 226.511 426.009 226.374C425.867 226.207 425.728 226.043 425.59 225.881C424.865 225.027 424.184 224.224 423.471 223.453C423.425 223.403 422.558 223.975 422.585 224.039C422.944 224.902 423.368 225.743 423.826 226.561C425.231 229.068 425.413 231.794 425.361 234.596C425.354 234.986 425.583 235.381 425.811 235.776C425.917 235.958 426.022 236.14 426.105 236.321C426.217 236.17 426.343 236.025 426.468 235.879C426.739 235.563 427.011 235.248 427.157 234.881ZM227.367 72.892C228.275 73.3205 229.164 73.7833 230.045 74.2422C232.254 75.3932 234.416 76.52 236.713 77.0203L237.071 77.0985C240.505 77.8504 244.202 78.6595 247.654 76.7574C248.863 76.0908 250.001 75.2701 251.104 74.4281C251.776 73.9146 252.381 73.2771 252.91 72.6085C257.106 67.3009 260.203 68.0935 265.98 71.5587C273.374 75.9923 276.066 83.5596 278.668 91.088C279.969 94.8494 280.786 98.7942 281.6 102.717L281.601 102.721V102.724L281.602 102.726C281.711 103.251 281.819 103.774 281.929 104.296C282.466 106.86 282.693 109.503 282.892 112.124C283.129 115.232 283.24 118.351 283.352 121.467L283.372 122.04C283.434 123.746 283.466 125.454 283.498 127.161V127.162V127.163V127.164V127.165V127.166C283.561 130.493 283.624 133.819 283.901 137.128C284.323 142.189 283.527 147.068 282.413 151.906C281.132 157.48 276.957 160.166 271.896 161.418C269.765 161.946 267.54 162.098 265.32 162.25H265.319V162.251H265.318C264.552 162.303 263.786 162.355 263.025 162.423C255.189 163.121 247.404 164.105 239.834 166.383C237.486 167.088 235.243 166.763 233.275 165.436C229.301 162.755 224.812 161.775 220.235 161.024C211.697 159.623 203.593 157.261 197.337 150.673C195.685 148.934 194.626 147.072 194.733 144.453C194.921 139.808 194.26 135.236 193.6 130.67C193.223 128.061 192.847 125.455 192.629 122.837C191.968 114.922 192.258 106.971 194.643 99.0873C197.303 90.2958 201.361 82.5285 207.799 76.1885C209.567 74.4471 211.704 73.0927 213.842 71.7373C214.885 71.0759 215.929 70.4142 216.931 69.7073L217.099 69.5884L217.1 69.5883C218.195 68.8157 219.301 68.0352 220.267 67.1126C221.738 65.7074 222.63 66.4494 223.548 67.7412C224.645 69.2836 225.784 70.7941 226.998 72.4022V72.4023L227.367 72.892ZM274.798 87.1288C274.676 86.832 274.551 86.5355 274.428 86.2392C274.161 85.6011 273.896 84.9631 273.64 84.3211C271.198 78.2038 266.884 73.9112 260.976 71.3294C260.058 70.9284 258.461 71.1612 257.633 71.7546C256.944 72.2485 256.46 73.0246 255.973 73.8073C255.696 74.25 255.419 74.6947 255.103 75.0916C252.276 78.638 248.963 81.4106 244.125 80.9734C241.132 80.7029 238.108 80.3131 235.21 79.5425C230.667 78.3345 226.531 76.1667 223.593 72.3017C223.492 72.1705 223.398 72.0448 223.306 71.9248L223.305 71.9238C221.375 69.374 221.351 69.3424 218.72 71.1345C217.852 71.7251 216.961 72.291 216.068 72.8574L216.067 72.8575C213.844 74.2689 211.617 75.6823 209.759 77.4839C203.478 83.5758 199.353 90.8992 196.877 99.5666C194.647 107.38 194.512 115.125 194.878 122.959C195.175 129.32 196.173 135.665 197.169 141.967C197.191 142.104 197.212 142.242 197.234 142.379L197.234 142.384C197.671 145.176 198.119 148.046 200.521 150.207C205.069 154.3 210.458 156.502 216.254 157.674C217.04 157.833 217.827 157.986 218.613 158.139C224.139 159.215 229.632 160.284 234.609 163.301C235.77 164.005 237.527 164.16 238.913 163.94C242.031 163.445 245.138 162.868 248.244 162.291H248.245C251.464 161.693 254.682 161.095 257.916 160.589C259.747 160.301 261.604 160.147 263.46 159.992C265.993 159.78 268.522 159.569 270.983 159.022C274.372 158.267 278.183 157.102 279.282 153.078C280.35 149.167 281.271 145.1 281.417 141.071C281.619 135.502 281.388 129.912 281.157 124.331V124.33V124.329V124.328C281.115 123.312 281.073 122.297 281.034 121.282C280.953 119.214 280.782 117.15 280.61 115.086V115.085C280.421 112.813 280.232 110.541 280.165 108.265C279.956 101.173 277.567 94.6704 275.086 87.914V87.9139L274.798 87.1288ZM270.069 110.6C266.142 107.487 261.537 106.849 256.475 107.366C256.005 107.452 255.606 107.547 255.236 107.635C254.926 107.709 254.637 107.778 254.347 107.832C249.563 108.714 245.463 110.695 242.645 114.954C242.35 115.401 241.245 115.627 240.635 115.473C237.947 114.788 235.453 114.731 233.365 116.936C233.107 117.209 232.866 117.5 232.626 117.791C232.515 117.925 232.405 118.059 232.292 118.191C232.25 117.996 232.191 117.8 232.133 117.603C232.007 117.179 231.881 116.756 231.915 116.346C232.333 111.474 230.033 108.44 225.844 106.391C221.924 104.474 217.806 104.064 213.571 104.07C207.121 104.078 201.627 108.316 199.36 114.513C197.975 118.298 198.35 121.978 199.544 125.474C200.71 128.887 202.035 132.535 205.499 134.427C205.938 134.666 206.379 134.918 206.824 135.17C208.859 136.329 210.953 137.521 213.119 137.783C213.313 137.808 213.508 137.832 213.705 137.856C216.917 138.256 220.363 138.684 223.399 136.484C227.986 133.158 230.489 128.458 231.816 123.123C232.444 120.606 233.709 119.091 235.921 118.085C239.251 116.57 241.339 117.902 241.686 121.4C242.093 125.492 242.98 129.516 245.344 133.021C248.113 137.128 251.872 139.625 256.514 141.361C262.108 143.455 266.128 142.179 270.184 138.852C277.722 132.667 278.471 117.261 270.069 110.6ZM252.562 110.786C255.724 109.829 259.156 109.52 262.505 110.425C266.308 110.716 268.806 112.891 270.649 115.534C272.499 118.186 274.176 121.192 274.058 124.631C273.931 128.318 272.564 131.638 270.281 134.54C268.321 137.029 265.769 138.62 262.74 139.302C262.105 139.445 261.391 139.259 260.687 139.075C260.435 139.009 260.185 138.944 259.94 138.894C251.88 137.255 246.485 132.777 244.88 124.286C244.777 123.743 244.647 123.207 244.518 122.671C243.997 120.518 243.482 118.389 244.784 116.088C246.565 112.94 249.587 111.686 252.562 110.786ZM229.101 116.332C229.603 120.658 228.222 124.549 226.324 128.309C225.942 128.825 225.614 129.315 225.304 129.777C224.851 130.455 224.436 131.074 223.949 131.628C221.267 134.676 218.061 135.634 213.992 134.763C211.141 134.152 208.603 133.403 206.233 131.564C203.376 129.346 202.151 126.286 201.332 123.066C200.026 117.936 201.805 113.63 205.429 109.947C208.356 106.972 212.057 106.603 215.755 106.98C219.314 107.342 222.79 108.238 225.931 110.376C228.183 111.907 228.822 113.938 229.101 116.332ZM228.179 98.4246C230.539 98.5586 232.499 98.3059 234.285 96.842C234.612 96.574 235.299 96.7575 235.986 96.9409C236.301 97.0254 236.616 97.1091 236.896 97.1495C236.764 97.3051 236.637 97.4642 236.509 97.6243C236.232 97.9696 235.956 98.3149 235.635 98.6098C232.646 101.351 229.356 101.16 225.717 100.017C222.536 99.019 219.196 98.2483 215.886 98.0397C210.915 97.7268 206.663 99.6889 203.339 103.578C203.052 103.914 202.608 104.111 202.163 104.309C201.957 104.401 201.752 104.491 201.561 104.598C201.621 104.325 201.656 104.03 201.69 103.735C201.763 103.1 201.837 102.464 202.176 102.057C207.723 95.4024 214.947 95.1272 222.595 96.7871C223.666 97.02 224.716 97.3545 225.81 97.7043C226.571 97.9471 227.353 98.1971 228.179 98.4246ZM264.791 100.108C260.273 99.4047 255.775 99.4838 251.721 102.542C251.129 102.986 250.545 103.411 249.97 103.829C248.82 104.666 247.709 105.474 246.652 106.349C246.414 106.547 246.377 106.995 246.34 107.444C246.323 107.649 246.307 107.856 246.27 108.038C246.429 108.017 246.595 108.01 246.762 108.003C247.13 107.988 247.499 107.972 247.78 107.807C248.589 107.331 249.324 106.714 250.05 106.106L250.084 106.077C254.583 102.302 259.583 100.778 265.343 102.469C267.346 103.057 269.367 103.599 271.405 104.029C271.737 104.099 272.118 103.921 272.5 103.742C272.675 103.661 272.852 103.579 273.022 103.52C272.892 103.381 272.77 103.218 272.649 103.055C272.384 102.702 272.119 102.349 271.776 102.228C271.338 102.075 270.9 101.918 270.462 101.76C268.597 101.085 266.72 100.407 264.791 100.108ZM240.356 149.371C237.636 149.567 235.031 149.728 232.432 149.652C232.087 149.642 231.755 149.2 231.424 148.757C231.27 148.553 231.117 148.349 230.963 148.187C231.162 148.101 231.362 147.996 231.56 147.89C231.993 147.658 232.427 147.427 232.87 147.408C235.264 147.297 237.665 147.305 240.061 147.332C240.634 147.338 241.205 147.432 241.777 147.525C242.037 147.568 242.298 147.61 242.559 147.644L242.559 147.645H242.558L242.557 147.646V147.647C241.862 148.182 241.166 148.718 240.356 149.371ZM254.733 115.488C253.081 117.35 253.261 121.271 255.199 123.251C259.129 123.368 261.486 119.371 259.656 116.007C258.641 114.139 256.161 113.877 254.733 115.488ZM219.83 113.014C220.657 115.493 220.116 118.06 218.272 119.443C217.735 119.845 216.377 119.971 215.999 119.596C213.867 117.485 213.51 113.911 216.56 112.056C217.95 111.212 218.941 111.603 219.83 113.014ZM370.135 101.68C371.334 103.507 372.541 105.348 374.179 106.922C374.286 110.491 374.318 113.82 373.415 117.074C373.254 117.658 373.373 118.207 373.495 118.762C373.593 119.214 374.237 119.54 374.612 119.323C375.098 119.042 375.577 118.745 376.033 118.417C376.34 118.197 376.645 117.974 376.949 117.751C378.241 116.805 379.533 115.858 380.978 115.147C381.153 115.061 381.329 114.974 381.506 114.889C382.177 114.563 382.848 114.237 383.487 113.856C384.194 113.434 384.88 113.375 385.638 113.637C388.253 114.542 390.95 115.103 393.646 115.663C394.076 115.752 394.506 115.842 394.936 115.933C395.065 115.96 395.194 115.99 395.323 116.019C395.652 116.094 395.981 116.169 396.313 116.211C397.386 116.347 398.462 116.452 399.538 116.557C401.261 116.725 402.985 116.893 404.694 117.188C405.061 117.252 405.45 117.279 405.817 117.23C406.685 117.113 407.558 117.034 408.431 116.954C410.176 116.796 411.92 116.639 413.622 116.178C414.788 115.864 415.944 115.511 417.099 115.159C417.561 115.018 418.023 114.877 418.485 114.739C418.699 114.675 418.914 114.61 419.128 114.546C420.353 114.18 421.577 113.813 422.796 113.437C423.153 113.327 423.505 113.192 423.838 113.023C424.126 112.877 424.414 112.731 424.702 112.585C427.095 111.377 429.484 110.169 431.653 108.532C431.926 108.326 432.203 108.125 432.48 107.925C433.345 107.299 434.208 106.674 434.947 105.879C435.395 105.397 435.894 104.962 436.391 104.529L436.397 104.524C437.834 103.271 438.989 101.773 440.055 100.201C441.388 98.2349 441.932 95.9608 442.476 93.6903L442.507 93.559C442.442 92.7515 442.595 91.9737 442.748 91.195C442.815 90.8551 442.882 90.5161 442.93 90.1735C443.612 85.3961 443.006 80.8776 440.198 76.8195C439.855 76.324 439.571 75.7861 439.289 75.2482C439.173 75.0285 439.057 74.8089 438.937 74.5922C438.246 73.3405 437.474 72.15 436.464 71.1339C434.258 68.9146 431.928 66.8717 429.182 65.3331C427.232 64.241 425.201 63.351 423.165 62.4594C422.705 62.2579 422.245 62.0563 421.785 61.8523C418.216 60.2679 414.499 59.3867 410.655 58.9902C409.471 58.8681 408.28 58.8052 407.089 58.7423C406.498 58.711 405.907 58.6798 405.316 58.6413C402.032 58.4264 398.745 58.3526 395.463 58.6188C392.658 58.8459 389.857 59.1167 387.056 59.3875C386.497 59.4416 385.937 59.4957 385.378 59.5495C385.106 59.5755 384.83 59.6835 384.58 59.804C383.266 60.4374 381.91 60.9668 380.554 61.4961C379.814 61.7848 379.074 62.0735 378.341 62.3793C375.15 63.7101 372.411 65.62 370.469 68.5864C370.188 69.0154 369.881 69.4257 369.572 69.836C369.312 70.1832 369.051 70.5306 368.807 70.8893C367.037 73.4907 365.528 76.226 364.907 79.3669C364.786 79.983 364.713 80.6089 364.641 81.2351C364.593 81.649 364.545 82.063 364.483 82.4746C364.17 84.5535 364.152 86.5965 364.566 88.6925C365.274 92.2822 366.73 95.5651 368.221 98.849C368.26 98.9344 368.314 99.0145 368.37 99.0909C368.987 99.9307 369.561 100.804 370.135 101.68ZM375.91 115.124C375.896 115.125 375.881 115.126 375.866 115.128C375.857 115.145 375.879 115.169 375.934 115.2C375.926 115.175 375.918 115.149 375.91 115.124ZM376.141 115.115C376.063 115.116 375.984 115.116 375.91 115.124C375.752 114.581 375.838 114.035 375.989 113.514C376.357 112.241 376.517 110.933 376.677 109.627C376.771 108.855 376.865 108.084 377.003 107.319C377.089 106.838 376.982 106.347 376.479 106.111C374.878 105.361 373.833 104 372.833 102.625C371.999 101.478 371.207 100.281 370.559 99.019C369.956 97.8455 369.509 96.5776 369.1 95.3161C368.573 93.6894 368.118 92.0367 367.693 90.3785C367.312 88.8949 367.275 87.3635 367.288 85.8376C367.291 85.5066 367.313 85.1752 367.335 84.844C367.365 84.4131 367.393 83.9823 367.379 83.5527C367.227 78.8643 369.085 74.853 371.456 71.0179C372.947 68.608 375.087 66.8474 377.527 65.5993C380.367 64.1471 383.319 62.8738 386.459 62.194C389.396 61.5583 392.351 61.0314 395.367 60.9288C396.482 60.8911 397.584 60.8299 398.687 60.4451C399.448 60.1795 400.319 60.1865 401.158 60.1931C401.263 60.1939 401.367 60.1947 401.47 60.1951C402.594 60.1987 403.723 60.2751 404.842 60.401C404.939 60.412 405.037 60.423 405.134 60.4341C406.249 60.5605 407.36 60.6864 408.487 60.7013C409.237 60.7118 409.99 60.8782 410.733 61.0422C410.817 61.0609 410.901 61.0795 410.985 61.0979C412.954 61.5281 414.864 62.1597 416.773 62.7913C417.985 63.192 419.196 63.5926 420.423 63.9421C421.125 64.29 421.828 64.6364 422.531 64.9828C424.104 65.7584 425.676 66.5338 427.241 67.3258C430.293 68.8691 432.72 71.2294 435.143 73.587L435.4 73.8369C437.07 75.4599 438.062 77.5317 438.8 79.6933C439.505 81.757 439.994 83.8881 440.142 86.0984C440.389 89.7815 439.765 93.2848 438.478 96.7251C437.138 100.308 434.973 103.284 431.987 105.521C428.13 108.411 423.93 110.751 419.346 112.283C417.391 112.937 415.437 113.589 413.408 114.019C410.349 114.666 407.26 114.721 404.162 114.754C404.035 114.755 403.909 114.75 403.782 114.743C403.627 114.736 403.472 114.728 403.317 114.734C397.687 114.947 392.342 113.542 387.055 111.798C386.549 111.632 386.039 111.484 385.528 111.334C385.229 111.248 384.929 111.161 384.631 111.07C384.052 110.894 383.51 110.993 383.02 111.327C382.076 111.973 381.063 112.5 380.05 113.026C378.892 113.628 377.733 114.231 376.675 115.012C376.543 115.11 376.342 115.113 376.141 115.115Z" fill="#00160A"/>
<path fill-rule="evenodd" clip-rule="evenodd" d="M308.914 266.008C309.321 265.646 309.735 265.278 310.167 264.913C310.455 264.529 310.749 264.163 311.036 263.805C311.733 262.934 312.395 262.109 312.859 261.181C314.008 258.88 313.398 258.051 310.974 256.946C309.869 256.443 308.855 255.74 307.839 255.036C307.174 254.575 306.507 254.113 305.814 253.707L305.658 253.615C304.721 253.064 303.699 252.461 302.678 252.376C297.335 251.929 292.757 259.08 294.885 264.26C297.084 269.614 301.47 271.234 306.059 268.297C307.064 267.654 307.969 266.849 308.914 266.008ZM296.822 262.08C296.679 260.274 296.924 258.622 298.222 257.266C298.557 257.006 298.841 256.817 299.09 256.652C299.331 256.492 299.54 256.354 299.73 256.194C301.977 254.295 303.419 254.419 305.655 256.261C306.975 257.35 308.551 258.196 310.13 258.863C311.343 259.374 311.467 260.074 310.72 260.801C310.245 261.263 309.776 261.74 309.305 262.217L309.304 262.218C307.647 263.9 305.975 265.596 304.01 266.755C301.017 268.52 297.109 265.705 296.822 262.08ZM160.919 265.501L161.262 265.193V265.192C163.184 263.461 165.029 261.8 167.091 260.494C169.381 259.043 171.984 259.665 173.999 261.577C177.096 264.517 179.15 264.175 181.172 261.666C181.366 261.425 181.581 261.185 181.828 261.004C182.096 260.808 182.363 260.593 182.631 260.375C183.831 259.4 185.065 258.399 186.714 259.041C188.747 259.835 189.564 261.708 190.206 263.841C191.667 268.702 188.695 272.829 184.974 274.982C180.699 277.454 176.094 278.42 171.37 279.137C167.976 279.652 161.437 276.659 159.966 274.222C158.067 271.076 159.226 268.404 160.919 265.501ZM181.461 273.908H181.462C184.96 272.153 188.437 270.408 187.849 265.304C187.818 265.035 187.803 264.752 187.788 264.469C187.72 263.187 187.653 261.893 186.069 261.729C185.06 261.624 183.73 262.482 182.895 263.28C179.435 266.592 176.565 266.906 172.938 263.435C171.831 262.377 170.592 261.279 168.488 262.123C164.824 263.593 163.195 266.655 161.945 269.928C161.376 271.42 161.523 273.516 163.727 274.22C164.382 274.429 165.039 274.679 165.697 274.93C167.379 275.571 169.07 276.214 170.742 276.183C173.387 276.133 176.019 275.452 178.773 274.74C179.461 274.561 180.159 274.381 180.865 274.208C181.063 274.108 181.262 274.008 181.461 273.908ZM258.679 394.339C258.586 394.53 258.494 394.722 258.403 394.912C256.898 398.058 255.444 401.098 252.063 402.437C248.542 403.831 242.856 404.288 240.091 400.723C238.452 398.61 238.343 395.803 240.181 393.799C240.761 393.164 241.378 392.548 241.996 391.932C243.561 390.368 245.129 388.801 246.132 386.927C247.091 385.134 247.52 383.051 247.948 380.967L247.949 380.966C248.145 380.005 248.344 379.043 248.593 378.11C249.388 375.14 250.221 372.13 253.097 370.48C255.168 369.291 256.817 370.064 258.365 371.978C261.176 375.455 260.908 379.383 260.642 383.272C260.573 384.28 260.504 385.286 260.489 386.28C260.461 388.216 259.891 390.144 259.307 392.118V392.119C259.09 392.851 258.872 393.591 258.679 394.339ZM251.77 379.577C251.745 379.737 251.721 379.896 251.696 380.055C251.199 383.254 250.696 386.481 248.556 389.059C246.934 391.013 245.101 392.824 243.175 394.472C241.358 396.028 241.044 397.863 242.681 399.522C245.562 402.441 252.548 401.114 254.584 397.118C255.794 394.745 256.821 392.244 257.634 389.702C259.138 385 258.206 380.402 256.497 375.941C256.238 375.266 255.511 374.382 254.944 374.337C254.41 374.295 253.669 375.146 253.26 375.767C252.671 376.664 252.3 377.709 251.837 379.161C251.815 379.3 251.792 379.439 251.77 379.577ZM252.149 280.955C250.022 279.405 248 279.38 245.816 279.887C242.243 280.717 238.38 284.942 238.38 289.266C238.38 293.62 240.289 296.806 243.808 298.86C247.204 300.843 250.779 302.225 254.992 301.833C259.925 301.376 263.653 299.416 265.67 294.841C266.09 293.889 266.05 292.728 266.011 291.567C265.993 291.035 265.975 290.504 266.001 289.992C265.567 289.994 265.121 289.96 264.674 289.927C263.669 289.853 262.663 289.778 261.808 290.104C260.214 290.714 259.361 290.154 258.826 288.947C257.345 285.611 255.103 283.108 252.149 280.955ZM244.656 283.428C246.711 282.446 250.498 281.353 252.745 283.428C254.992 285.503 255.843 287.447 256.408 288.777C257.77 291.985 259.686 293.041 262.922 292.157C263.227 292.074 263.554 292.074 263.881 292.074C264.032 292.074 264.184 292.074 264.334 292.065C264.288 292.217 264.247 292.371 264.205 292.525C264.117 292.857 264.028 293.188 263.892 293.499C260.696 300.845 250.421 299.749 245.618 296.648C242.688 294.756 241.023 292.288 241.164 288.693C241.262 286.201 242.542 284.438 244.656 283.428ZM265.637 341.628C265.09 342.097 264.572 342.593 264.063 343.083C262.911 344.188 261.799 345.256 260.483 345.885C257.609 347.261 254.541 346.554 251.745 345.159C247.026 342.804 244.116 339.223 244.407 333.557C244.615 329.52 246.992 327.165 250.201 325.223C252.907 323.586 255.55 323.242 258.38 324.624C260.495 325.657 261.077 327.659 261.652 329.635C261.767 330.031 261.882 330.426 262.009 330.812C262.174 331.314 262.219 331.858 262.263 332.401C262.312 332.991 262.36 333.581 262.563 334.111C262.857 334.88 263.571 335.831 264.281 336.031C267.779 337.016 268.127 337.886 265.925 340.879C265.865 340.959 265.836 341.063 265.801 341.187C265.764 341.313 265.723 341.46 265.637 341.628ZM261.114 341.98C261.214 341.928 261.319 341.88 261.423 341.833C261.649 341.731 261.875 341.629 262.06 341.477C264.27 339.645 264.263 339.639 262.138 337.77L262.026 337.672C261.405 337.124 260.901 336.259 260.688 335.447C260.469 334.609 260.317 333.746 260.167 332.885C259.922 331.489 259.678 330.098 259.145 328.827C258.672 327.699 257.144 326.554 255.923 326.321C253.429 325.845 247.927 330.358 247.706 332.937C247.409 336.413 248.438 339.374 251.618 341.321C254.603 343.147 257.578 344.203 261.114 341.98ZM133.756 298.071C138.872 294.739 142.146 290.317 142.828 283.857C142.828 283.283 142.848 282.731 142.866 282.196V282.195C142.906 281.048 142.943 279.974 142.784 278.933C142.436 276.671 141.703 274.473 138.627 274.978C137.123 275.225 135.578 275.927 134.312 276.807C131.692 278.631 130.809 281.646 129.968 284.515L129.892 284.772C128.646 289.011 126.714 291.994 121.762 291.991C120.899 291.991 119.495 293.635 119.275 294.716C118.675 297.66 121.569 300.681 124.679 300.801C128.013 300.931 130.934 299.91 133.756 298.071ZM127.165 298.257C126.895 298.317 126.626 298.376 126.361 298.446C124.121 298.699 123.053 297.51 122.023 296.364C121.943 296.274 121.861 296.184 121.78 296.095C121.615 295.913 121.702 295.174 121.909 295.023C121.958 294.987 122.007 294.95 122.057 294.913L122.059 294.912C122.708 294.431 123.415 293.909 124.16 293.78C127.927 293.129 130.012 290.905 131.315 287.291C132.412 284.247 134.061 281.356 135.836 278.648C136.404 277.782 138.179 277.368 139.35 277.454C139.808 277.488 140.435 279.46 140.46 280.56C140.652 289.253 135.89 294.666 128.862 297.766C128.327 298.003 127.746 298.131 127.165 298.257ZM137.145 319.036C138.059 316.231 140.048 314.435 142.008 312.663H142.009C142.702 312.037 143.393 311.413 144.031 310.749C145.296 309.432 148.213 311.157 148.859 313.39C149.129 314.322 149.393 315.258 149.656 316.193C150.32 318.549 150.983 320.904 151.753 323.223C152.42 325.234 152.144 326.808 150.724 328.382C149.648 329.575 148.675 330.937 147.966 332.381C146.223 335.93 143.658 336.814 139.769 333.725C134.631 329.644 135.314 324.518 137.145 319.036ZM149.323 324.096C149.034 323.363 148.745 322.63 148.457 321.896C147.662 319.88 146.868 317.863 146.077 315.843C145.916 315.429 145.768 315.009 145.619 314.59C145.551 314.397 145.483 314.204 145.413 314.011C145.213 314.108 145.006 314.197 144.799 314.285H144.798C144.35 314.476 143.9 314.667 143.518 314.951C140.685 317.057 139.346 320.193 138.752 323.468C138.279 326.077 138.166 329.05 140.208 331.209C141.145 332.2 142.64 332.792 143.989 333.136C144.195 333.189 144.564 332.537 144.955 331.845C145.178 331.452 145.406 331.048 145.617 330.751C145.974 330.248 146.346 329.755 146.716 329.261V329.26C147.325 328.45 147.935 327.639 148.483 326.788C148.857 326.207 149.017 325.483 149.241 324.465C149.267 324.346 149.294 324.223 149.323 324.096ZM201.59 310.429C196.919 308.635 192.264 309.719 191.998 315.86C192.28 316.517 192.541 317.175 192.798 317.824C193.526 319.664 194.226 321.431 195.306 322.913C199.202 328.259 204.13 329.866 209.609 327.639C213.093 326.223 213.109 322.988 210.776 320.958C208.584 319.05 206.696 316.903 205.536 314.015C204.927 312.501 203.163 311.033 201.59 310.429ZM206.241 325.313C203.723 325.779 201.185 326.249 199.188 323.86C196.704 321.382 194.99 318.867 194.768 315.529C194.679 314.187 195.202 313.457 196.44 312.957C198.179 312.255 202.18 313.112 202.565 314.855C203.112 317.324 204.552 319.112 205.994 320.902C206.563 321.609 207.133 322.315 207.648 323.065C207.947 323.501 208.266 324.291 208.076 324.61C207.842 325 207.098 325.156 206.547 325.258L206.41 325.283L206.241 325.313ZM190.143 373.278C190.235 372.706 190.291 372.133 190.345 371.573C190.471 370.264 190.59 369.032 191.161 368.077C192.638 365.604 192.293 363.475 191.081 361.185C190.962 360.961 190.898 360.708 190.832 360.454C190.769 360.21 190.707 359.964 190.596 359.746C189.611 357.802 190.073 355.898 191.793 355.088C193.002 354.518 195.023 354.697 196.244 355.366C200.212 357.538 202.012 361.393 202.624 365.739C203.159 369.536 202.32 373.226 200.797 376.71C198.832 381.203 194.866 380.631 192.336 377.968C191.541 377.131 191.114 375.935 190.663 374.67C190.499 374.21 190.331 373.742 190.143 373.278ZM198.028 360.806C197.791 360.566 197.559 360.32 197.326 360.075C196.753 359.47 196.18 358.866 195.545 358.338C195.277 358.115 194.889 358.041 194.501 357.965C194.325 357.931 194.149 357.897 193.985 357.849C193.946 358.036 193.876 358.24 193.808 358.444C193.659 358.885 193.511 359.326 193.661 359.595C195.326 362.575 194.947 365.321 193.203 368.126C192.835 368.718 192.7 369.458 192.566 370.199C192.499 370.566 192.433 370.932 192.337 371.283C191.819 373.189 193.2 376.808 194.959 377.357C195.002 377.371 195.045 377.385 195.09 377.4L195.107 377.405H195.109C196.047 377.704 197.311 378.107 198.056 376.518C200.456 371.405 201.253 366.353 198.028 360.806ZM334.57 312.008C337.554 313.34 342.572 312.895 346.349 308.683C346.627 308.247 346.905 307.823 347.179 307.405L347.181 307.401C348.039 306.091 348.858 304.838 349.552 303.517C351.286 300.213 348.279 295.125 344.566 295.2C343.51 295.222 342.459 295.425 341.407 295.628C340.429 295.818 339.449 296.007 338.465 296.05C335.482 296.181 333.118 297.255 331.453 299.795C328.573 304.187 329.655 309.817 334.57 312.008ZM339.299 299.395C339.445 299.391 339.592 299.388 339.739 299.388C340.087 299.327 340.422 299.287 340.734 299.249C341.586 299.145 342.276 299.061 342.663 298.67C343.933 297.387 345.039 297.982 346.017 298.763C347.076 299.607 347.662 300.643 347.154 302.29C345.953 306.177 343.786 309.042 339.822 310.076C337.601 310.655 335.523 310.099 333.985 308.148C332.595 306.385 332.382 304.518 333.407 302.521C334.445 300.501 335.896 299.136 338.348 299.38C338.662 299.412 338.98 299.404 339.299 299.395ZM281.872 304.918C284.798 302.955 287.586 302.83 290.243 305.055C290.996 305.686 291.659 306.494 292.161 307.344C292.383 307.717 292.515 308.158 292.645 308.595C292.814 309.158 292.98 309.714 293.333 310.11C294.905 311.869 293.921 313.446 292.637 314.09C289.393 315.718 285.97 317.046 282.511 318.141C280.69 318.718 278.257 316.534 277.815 314.445C276.845 309.863 278.675 306.842 281.872 304.918ZM289.873 311.388C289.648 311.078 289.425 310.765 289.203 310.452V310.451C288.662 309.691 288.122 308.93 287.539 308.204L287.487 308.14C287.095 307.65 286.593 307.024 286.09 306.968C282.316 306.552 279.084 310.975 280.623 314.432C281.076 315.45 282.005 316.542 283.106 315.348C284.63 313.697 286.512 313.36 288.504 313.003L288.638 312.98C289.189 312.881 289.62 312.094 289.873 311.388ZM274.04 407.971C273.962 408.352 273.881 408.75 273.754 409.164C273.773 409.468 273.855 409.741 273.931 410C274.006 410.253 274.077 410.492 274.083 410.732C274.214 416.545 281.698 421.037 286.369 420.35C289.633 419.871 291.42 418.667 291.89 415.616C292.308 412.903 291.652 409.934 289.557 408.2C287.143 406.205 284.231 404.701 281.336 403.467C277.897 402.002 275.727 403.174 274.378 406.674C274.221 407.08 274.133 407.513 274.04 407.971ZM277.465 406.932C277.67 406.54 277.875 406.147 278.045 405.752C278.462 405.853 278.878 405.948 279.291 406.044C283.16 406.938 286.75 407.767 288.474 411.673C289.292 413.527 290.223 415.75 287.981 417.192C286.899 417.887 285.247 418.104 283.938 417.918C280.683 417.459 276.058 413.899 276.485 409.534C276.572 408.643 277.019 407.787 277.465 406.932ZM279.669 349.275C283.443 349.634 286.437 351.327 287.059 355.365C287.279 356.793 288.17 356.983 289.149 357.192C289.292 357.222 289.436 357.253 289.581 357.288C291.748 357.814 293.47 359.625 293.129 362.484C292.883 364.555 291.833 365.4 288.909 365.233C286.952 365.122 284.898 364.911 283.095 364.203C277.258 361.91 275.585 357.035 275.997 351.879C276.151 349.944 277.56 349.156 279.669 349.275ZM288.249 359.63C285.747 359.79 284.552 358.268 284.357 356.053C284.151 353.712 282.499 352.964 280.871 352.226L280.685 352.142C279.522 351.613 278.152 352.988 278.343 354.284C279.056 359.127 284.493 363.333 289.368 362.954C291.167 362.814 290.939 361.872 290.29 360.911C290.077 360.596 289.689 360.404 289.228 360.174C288.924 360.023 288.588 359.857 288.249 359.63ZM232.818 440.579C232.874 439.96 232.878 439.329 232.881 438.714C232.889 437.359 232.897 436.08 233.466 435.157C234.856 432.908 236.53 430.84 238.205 428.772V428.771L238.206 428.77C238.888 427.928 239.569 427.087 240.232 426.232C241.372 424.763 243.14 423.911 244.581 424.706C246.046 425.513 247.467 427.157 248.026 428.751C249.353 432.543 247.679 435.802 245.176 438.584C244.467 439.373 243.662 440.073 242.856 440.772C242.222 441.325 241.586 441.877 240.997 442.473C237.727 445.783 234.813 444.24 232.818 440.579ZM240.936 439.638C244.277 437.409 246.433 434.515 246.292 430.218C246.243 428.716 245.688 427.714 244.346 427.08C242.936 426.414 241.974 427.311 241.541 428.279C240.445 430.723 238.879 432.809 237.309 434.9V434.901C236.767 435.624 236.224 436.348 235.699 437.087C235.165 437.839 235.495 439.657 236.034 440.645C236.662 441.795 237.919 441.602 238.981 440.718C239.24 440.503 239.553 440.353 239.915 440.181C240.221 440.035 240.563 439.872 240.936 439.638ZM221.628 412.472C223.073 409.07 223.291 405.421 222.497 401.634C222.431 401.566 222.379 401.519 222.339 401.481C222.276 401.422 222.242 401.388 222.22 401.349C220.617 398.454 218.94 397.159 217.056 397.792C214.673 398.594 213.784 400.403 213.7 403.029C213.64 404.902 212.907 406.555 210.425 407.29C206.741 408.381 207.007 411.731 209.28 413.544C210.147 414.236 211.251 414.637 212.344 415.034C212.688 415.158 213.031 415.282 213.364 415.415C215.455 416.247 220.595 414.9 221.628 412.472ZM220.008 403.166C220.1 403.325 220.193 403.484 220.294 403.634C220.294 404.477 220.347 405.289 220.399 406.067C220.507 407.694 220.604 409.172 220.18 410.474C219.09 413.814 212.619 414.408 210.555 411.518C210.334 411.209 210.949 409.697 211.372 409.596C214.793 408.788 216.063 406.539 216.181 403.185C216.206 402.458 216.895 401.586 217.525 401.134C217.762 400.964 218.76 401.723 219.295 402.193C219.588 402.451 219.798 402.809 220.008 403.166Z" fill="#FF304F"/>
</g>
<defs>
<clipPath id="clip0">
<rect width="561" height="562" fill="white"/>
</clipPath>
</defs>
</svg>
